<?xml version="1.0" encoding="UTF-8"?>
<svg xmlns="http://www.w3.org/2000/svg" xmlns:xlink="http://www.w3.org/1999/xlink" width="100px" height="100px" viewBox="0 0 100 100" version="1.1">
<g id="surface1">
<path style=" stroke:none;fill-rule:evenodd;fill:rgb(73.333333%,92.156863%,42.352941%);fill-opacity:1;" d="M 21.652344 8.785156 C 21.484375 8.875 21.273438 9.035156 21.179688 9.136719 C 21.082031 9.238281 20.9375 9.296875 20.851562 9.265625 C 20.769531 9.234375 20.699219 9.253906 20.699219 9.308594 C 20.699219 9.433594 20.242188 9.898438 20.121094 9.898438 C 20.070312 9.898438 19.886719 10.039062 19.707031 10.207031 C 19.449219 10.453125 19.359375 10.492188 19.242188 10.394531 C 19.128906 10.300781 19.101562 10.308594 19.101562 10.445312 C 19.101562 10.671875 18.828125 10.929688 18.683594 10.839844 C 18.613281 10.796875 18.597656 10.8125 18.640625 10.886719 C 18.707031 10.992188 18.492188 11.300781 18.351562 11.300781 C 18.316406 11.300781 18.226562 11.355469 18.15625 11.425781 C 18.085938 11.492188 17.8125 11.730469 17.546875 11.949219 C 16.449219 12.867188 12.566406 16.703125 12.355469 17.082031 C 12.304688 17.175781 12.148438 17.363281 12.003906 17.5 C 11.859375 17.636719 11.632812 17.90625 11.5 18.101562 C 11.367188 18.292969 11.085938 18.617188 10.878906 18.816406 C 10.671875 19.019531 10.5 19.234375 10.5 19.292969 C 10.5 19.351562 10.363281 19.542969 10.199219 19.714844 C 10.035156 19.886719 9.898438 20.070312 9.898438 20.117188 C 9.898438 20.164062 9.765625 20.34375 9.601562 20.515625 C 9.433594 20.6875 9.300781 20.878906 9.300781 20.941406 C 9.300781 21.003906 9.210938 21.121094 9.101562 21.199219 C 8.988281 21.277344 8.898438 21.386719 8.898438 21.433594 C 8.898438 21.617188 7.945312 22.992188 7.8125 22.996094 C 7.734375 22.996094 7.703125 23.0625 7.738281 23.15625 C 7.773438 23.242188 7.710938 23.40625 7.597656 23.523438 C 7.488281 23.640625 7.398438 23.796875 7.398438 23.867188 C 7.398438 23.941406 7.355469 24 7.300781 24 C 7.246094 24 7.199219 24.058594 7.199219 24.132812 C 7.199219 24.203125 7.109375 24.359375 7 24.476562 C 6.890625 24.59375 6.800781 24.761719 6.800781 24.847656 C 6.800781 24.929688 6.753906 25 6.699219 25 C 6.644531 25 6.601562 25.089844 6.601562 25.199219 C 6.601562 25.308594 6.554688 25.398438 6.5 25.398438 C 6.445312 25.398438 6.398438 25.46875 6.398438 25.550781 C 6.398438 25.632812 6.355469 25.699219 6.300781 25.699219 C 6.246094 25.699219 6.199219 25.773438 6.199219 25.859375 C 6.199219 25.960938 6.144531 26 6.054688 25.964844 C 5.972656 25.933594 5.875 25.957031 5.835938 26.019531 C 5.796875 26.085938 5.816406 26.101562 5.882812 26.058594 C 5.957031 26.015625 6 26.0625 6 26.195312 C 6 26.308594 5.953125 26.398438 5.898438 26.398438 C 5.84375 26.398438 5.800781 26.488281 5.800781 26.601562 C 5.800781 26.710938 5.761719 26.800781 5.71875 26.800781 C 5.675781 26.800781 5.574219 26.957031 5.5 27.148438 C 5.425781 27.34375 5.324219 27.5 5.28125 27.5 C 5.238281 27.5 5.199219 27.59375 5.199219 27.710938 C 5.199219 27.847656 5.152344 27.902344 5.066406 27.871094 C 4.96875 27.832031 4.945312 27.886719 4.980469 28.074219 C 5.019531 28.285156 5 28.320312 4.863281 28.269531 C 4.722656 28.214844 4.710938 28.234375 4.800781 28.402344 C 4.886719 28.558594 4.875 28.617188 4.757812 28.660156 C 4.582031 28.726562 4.621094 29.046875 4.917969 29.949219 C 5.109375 30.539062 5.15625 30.671875 5.386719 31.226562 C 5.449219 31.375 5.539062 31.601562 5.585938 31.726562 C 6.328125 33.632812 8.933594 38.347656 9.496094 38.800781 C 9.53125 38.828125 9.667969 39.007812 9.800781 39.199219 C 9.933594 39.390625 10.066406 39.574219 10.09375 39.601562 C 10.125 39.628906 10.304688 39.851562 10.496094 40.101562 C 11.503906 41.410156 13.382812 43.257812 15.101562 44.628906 C 16.074219 45.40625 19.367188 47.601562 19.5625 47.601562 C 19.589844 47.601562 19.808594 47.734375 20.050781 47.898438 C 20.289062 48.066406 20.511719 48.199219 20.546875 48.199219 C 20.769531 48.199219 22.117188 49.269531 23.03125 50.171875 C 25.394531 52.511719 25.796875 53.589844 26 58.148438 C 26.253906 63.878906 26.933594 65.683594 29.601562 67.734375 C 29.6875 67.796875 30.046875 68.050781 30.402344 68.292969 C 30.757812 68.539062 31.074219 68.765625 31.101562 68.796875 C 31.128906 68.824219 31.328125 68.984375 31.550781 69.148438 C 32.65625 69.972656 33.851562 71.539062 34.613281 73.171875 C 35.15625 74.332031 35.324219 74.746094 35.507812 75.351562 C 35.574219 75.570312 35.664062 75.839844 35.707031 75.949219 C 35.75 76.058594 35.8125 76.261719 35.847656 76.398438 C 35.882812 76.539062 35.957031 76.808594 36.011719 77 C 36.109375 77.332031 36.207031 77.726562 36.394531 78.5 C 36.46875 78.820312 36.742188 80.167969 37.15625 82.25 C 37.347656 83.203125 37.875 85.449219 37.992188 85.800781 C 38.039062 85.9375 38.179688 86.386719 38.304688 86.800781 C 38.433594 87.210938 38.574219 87.59375 38.617188 87.644531 C 38.664062 87.695312 38.699219 87.800781 38.699219 87.871094 C 38.699219 88 38.898438 88.472656 39.332031 89.398438 C 41.394531 93.785156 44.417969 93.222656 46.328125 88.101562 C 46.984375 86.347656 47.230469 85.234375 47.757812 81.671875 C 47.792969 81.410156 47.867188 81.171875 47.914062 81.140625 C 47.960938 81.113281 48 80.964844 48 80.8125 C 48 80.664062 48.035156 80.496094 48.078125 80.445312 C 48.125 80.394531 48.214844 80.171875 48.285156 79.949219 C 48.683594 78.707031 50.089844 76.359375 51.316406 74.890625 C 53.5 72.277344 54.273438 71.324219 54.765625 70.625 C 55.027344 70.253906 55.269531 69.925781 55.300781 69.898438 C 55.371094 69.835938 55.710938 69.3125 55.855469 69.050781 C 56.09375 68.613281 56.253906 68.347656 56.304688 68.300781 C 56.359375 68.25 56.726562 67.488281 57.035156 66.800781 C 57.242188 66.332031 57.707031 64.9375 57.804688 64.5 C 58.433594 61.621094 58.40625 60.5625 57.671875 59.300781 C 57.324219 58.707031 55.828125 57.148438 55.316406 56.84375 C 55.140625 56.742188 55 56.621094 55 56.578125 C 55 56.535156 54.9375 56.5 54.859375 56.5 C 54.78125 56.5 54.703125 56.464844 54.683594 56.417969 C 54.644531 56.324219 53.746094 55.699219 53.648438 55.699219 C 53.609375 55.699219 53.460938 55.613281 53.3125 55.507812 C 52.902344 55.21875 49.953125 53.757812 49.050781 53.402344 C 48.128906 53.035156 47.621094 52.820312 47.375 52.691406 C 47.28125 52.640625 47.132812 52.601562 47.050781 52.601562 C 46.902344 52.601562 46.796875 52.558594 46.328125 52.316406 C 46.203125 52.253906 46.035156 52.199219 45.949219 52.199219 C 45.800781 52.199219 45.695312 52.160156 45.226562 51.914062 C 45.101562 51.851562 44.914062 51.800781 44.808594 51.800781 C 44.699219 51.800781 44.585938 51.753906 44.550781 51.699219 C 44.515625 51.644531 44.359375 51.601562 44.199219 51.601562 C 44.042969 51.601562 43.886719 51.558594 43.855469 51.511719 C 43.828125 51.460938 43.679688 51.398438 43.527344 51.371094 C 43.375 51.339844 43.070312 51.265625 42.851562 51.203125 C 42.628906 51.136719 42.292969 51.050781 42.101562 51.003906 C 41.90625 50.957031 41.503906 50.851562 41.199219 50.773438 C 39.613281 50.351562 39.117188 50.332031 36.550781 50.59375 C 31.996094 51.058594 31.585938 51.011719 30.453125 49.867188 C 29.953125 49.363281 28.101562 46.746094 28.101562 46.546875 C 28.101562 46.515625 27.921875 46.230469 27.707031 45.910156 C 25.96875 43.351562 25.394531 41.332031 26.128906 40.371094 C 26.796875 39.492188 27.78125 39.101562 30.351562 38.695312 C 35.738281 37.84375 36.671875 37.328125 37.292969 34.851562 C 38.003906 32.03125 39.269531 30.675781 43.042969 28.703125 C 44.445312 27.972656 44.632812 27.867188 44.699219 27.796875 C 44.757812 27.738281 45.625 27.324219 46 27.175781 C 46.136719 27.121094 46.328125 27.035156 46.421875 26.988281 C 46.519531 26.941406 46.707031 26.898438 46.84375 26.898438 C 46.976562 26.898438 47.113281 26.859375 47.144531 26.8125 C 47.171875 26.761719 47.320312 26.699219 47.472656 26.667969 C 47.625 26.636719 47.953125 26.5625 48.199219 26.5 C 48.449219 26.441406 48.851562 26.347656 49.101562 26.296875 C 49.347656 26.242188 49.730469 26.160156 49.949219 26.113281 C 50.171875 26.0625 50.710938 25.949219 51.148438 25.859375 C 55.441406 24.96875 55.578125 24.796875 56.203125 19.601562 C 56.710938 15.371094 56.070312 14.550781 51.800781 13.953125 C 51.371094 13.894531 51.136719 13.839844 50.175781 13.589844 C 49.011719 13.285156 47.808594 12.625 46.550781 11.601562 C 45.664062 10.886719 44.652344 10.199219 44.476562 10.199219 C 44.402344 10.199219 44.296875 10.164062 44.246094 10.117188 C 43.882812 9.800781 41.914062 9.550781 40.878906 9.6875 C 40.421875 9.75 39.871094 9.820312 39.648438 9.847656 C 39.027344 9.917969 37.105469 10.28125 35.648438 10.601562 C 35.175781 10.703125 34.890625 10.757812 33.523438 11.003906 C 32.550781 11.175781 30.445312 11.238281 29.921875 11.105469 C 28.867188 10.839844 28.640625 10.777344 28.476562 10.691406 C 28.378906 10.640625 28.214844 10.601562 28.105469 10.601562 C 28 10.601562 27.890625 10.5625 27.863281 10.519531 C 27.835938 10.476562 27.582031 10.375 27.300781 10.300781 C 27.019531 10.222656 26.765625 10.125 26.738281 10.082031 C 26.710938 10.035156 26.601562 10 26.492188 10 C 26.386719 10 26.21875 9.957031 26.125 9.902344 C 25.84375 9.742188 22.300781 8.597656 22.117188 8.609375 C 22.023438 8.613281 21.816406 8.691406 21.652344 8.785156 M 83.199219 12.804688 C 83.199219 12.863281 83.242188 12.886719 83.292969 12.855469 C 83.453125 12.757812 87.734375 16.9375 87.851562 17.304688 C 87.929688 17.554688 88.867188 18.429688 88.867188 18.253906 C 88.867188 18.167969 88.824219 18.101562 88.777344 18.101562 C 88.648438 18.101562 88.398438 17.835938 88.398438 17.699219 C 88.398438 17.636719 88.015625 17.203125 87.546875 16.738281 C 87.078125 16.273438 86.714844 15.859375 86.738281 15.820312 C 86.761719 15.78125 86.597656 15.589844 86.375 15.398438 C 85.804688 14.910156 84.996094 14.097656 84.699219 13.722656 C 84.5625 13.546875 84.390625 13.402344 84.320312 13.402344 C 84.246094 13.402344 84.214844 13.355469 84.25 13.300781 C 84.285156 13.246094 84.238281 13.199219 84.152344 13.199219 C 84.0625 13.199219 83.878906 13.085938 83.742188 12.949219 C 83.484375 12.691406 83.199219 12.617188 83.199219 12.804688 M 79.246094 14.410156 C 79.214844 14.460938 79.101562 14.5 78.992188 14.5 C 78.886719 14.5 78.71875 14.539062 78.625 14.589844 C 78.527344 14.636719 78.316406 14.730469 78.148438 14.800781 C 77.984375 14.867188 77.773438 14.964844 77.675781 15.011719 C 77.582031 15.058594 77.457031 15.101562 77.402344 15.101562 C 77.347656 15.101562 77 15.238281 76.628906 15.40625 C 74.109375 16.539062 72.679688 17.59375 72.035156 18.800781 C 71.757812 19.320312 71.664062 19.582031 71.40625 20.5625 C 71.269531 21.089844 71.269531 23.824219 71.40625 24.515625 C 71.464844 24.808594 71.5625 25.296875 71.621094 25.601562 C 71.8125 26.574219 72.003906 27.070312 72.230469 27.179688 C 73.082031 27.585938 74.828125 27.570312 80.199219 27.109375 C 80.777344 27.058594 81.847656 26.96875 82.582031 26.910156 C 83.316406 26.851562 83.957031 26.777344 84.007812 26.746094 C 84.113281 26.679688 85.535156 26.878906 85.851562 27 C 87.519531 27.652344 88.160156 28.585938 88.078125 30.246094 C 87.992188 31.910156 87.089844 33.742188 86.109375 34.246094 C 84.761719 34.929688 75.664062 34.484375 71.726562 33.535156 C 70.898438 33.335938 70.632812 33.308594 70.328125 33.394531 C 69.03125 33.746094 67.289062 35.8125 67.445312 36.816406 C 67.691406 38.398438 67.597656 39.015625 66.894531 40.398438 C 66.644531 40.894531 65.429688 42.902344 65.230469 43.152344 C 65.054688 43.371094 64.175781 45.082031 64 45.550781 C 63.722656 46.28125 63.652344 46.75 63.65625 47.777344 C 63.660156 48.5 63.707031 48.945312 63.78125 49.023438 C 63.847656 49.085938 63.898438 49.21875 63.898438 49.316406 C 63.898438 49.414062 63.984375 49.648438 64.089844 49.832031 C 64.195312 50.019531 64.339844 50.28125 64.414062 50.410156 C 64.488281 50.542969 64.574219 50.671875 64.605469 50.699219 C 64.636719 50.726562 64.769531 50.90625 64.902344 51.101562 C 65.253906 51.613281 66.328125 52.625 67.300781 53.359375 C 68.746094 54.449219 69.980469 54.722656 74.25 54.894531 C 76.804688 55 77.550781 55.078125 78.25 55.316406 C 80.367188 56.042969 81.539062 57.933594 81.953125 61.300781 C 81.980469 61.546875 82.050781 63.300781 82.105469 65.199219 C 82.160156 67.097656 82.238281 69.234375 82.277344 69.949219 C 82.359375 71.433594 82.273438 74.039062 82.109375 75 C 81.957031 75.882812 81.828125 76.5625 81.710938 77.101562 C 81.28125 79.015625 81.335938 79.542969 82.035156 80.222656 C 82.300781 80.480469 82.488281 80.585938 83.21875 80.878906 C 83.476562 80.984375 83.511719 80.957031 84.253906 79.976562 C 84.980469 79.011719 86.652344 76.539062 87.078125 75.796875 C 87.1875 75.605469 87.496094 75.066406 87.765625 74.601562 C 89.441406 71.71875 91.210938 67.59375 92.097656 64.5 C 92.171875 64.253906 92.285156 63.871094 92.355469 63.648438 C 93.648438 59.539062 94.375 53.316406 94.183594 48.03125 C 93.894531 40.1875 91.539062 31.828125 87.824219 25.449219 C 86.277344 22.792969 83.917969 19.386719 82.632812 17.949219 C 82.53125 17.835938 82.136719 17.386719 81.75 16.949219 C 80.558594 15.585938 79.304688 14.3125 79.246094 14.410156 M 88.898438 18.589844 C 88.898438 18.640625 89.023438 18.789062 89.175781 18.917969 C 89.328125 19.046875 89.507812 19.265625 89.582031 19.40625 C 89.652344 19.546875 89.832031 19.796875 89.980469 19.960938 C 90.128906 20.125 90.296875 20.34375 90.355469 20.449219 C 90.414062 20.554688 90.519531 20.648438 90.585938 20.660156 C 90.652344 20.675781 90.660156 20.664062 90.601562 20.632812 C 90.546875 20.605469 90.5 20.515625 90.5 20.433594 C 90.5 20.347656 90.363281 20.152344 90.199219 20 C 90.035156 19.847656 89.898438 19.648438 89.898438 19.558594 C 89.898438 19.472656 89.855469 19.398438 89.800781 19.398438 C 89.746094 19.398438 89.699219 19.335938 89.699219 19.257812 C 89.699219 19.179688 89.609375 19.085938 89.5 19.050781 C 89.386719 19.015625 89.328125 18.9375 89.363281 18.878906 C 89.402344 18.8125 89.382812 18.796875 89.316406 18.839844 C 89.242188 18.886719 89.199219 18.835938 89.199219 18.707031 C 89.199219 18.589844 89.132812 18.5 89.050781 18.5 C 88.96875 18.5 88.898438 18.539062 88.898438 18.589844 M 90.699219 20.855469 C 90.699219 20.886719 90.746094 21 90.804688 21.105469 C 90.957031 21.394531 91.117188 21.34375 90.980469 21.050781 C 90.882812 20.828125 90.699219 20.703125 90.699219 20.855469 M 91.199219 21.683594 C 91.199219 21.816406 91.59375 22.140625 91.667969 22.066406 C 91.703125 22.03125 91.679688 22 91.617188 22 C 91.550781 22 91.5 21.910156 91.5 21.800781 C 91.5 21.6875 91.433594 21.601562 91.351562 21.601562 C 91.265625 21.601562 91.199219 21.636719 91.199219 21.683594 M 91.601562 22.285156 C 91.601562 22.417969 91.992188 22.738281 92.066406 22.664062 C 92.101562 22.628906 92.082031 22.601562 92.015625 22.601562 C 91.953125 22.601562 91.898438 22.511719 91.898438 22.398438 C 91.898438 22.289062 91.832031 22.199219 91.75 22.199219 C 91.667969 22.199219 91.601562 22.238281 91.601562 22.285156 M 92 22.859375 C 92 22.949219 92.429688 23.542969 92.523438 23.582031 C 92.566406 23.601562 92.601562 23.683594 92.601562 23.761719 C 92.601562 23.84375 92.691406 24.003906 92.800781 24.121094 C 92.910156 24.242188 93 24.398438 93 24.46875 C 93 24.539062 93.046875 24.601562 93.101562 24.601562 C 93.15625 24.601562 93.199219 24.691406 93.199219 24.800781 C 93.199219 24.992188 93.304688 25.0625 93.421875 24.945312 C 93.503906 24.859375 93.199219 24.292969 93.039062 24.230469 C 92.960938 24.203125 92.898438 24.113281 92.898438 24.035156 C 92.898438 23.957031 92.8125 23.796875 92.703125 23.679688 C 92.59375 23.566406 92.53125 23.429688 92.558594 23.382812 C 92.589844 23.335938 92.542969 23.273438 92.457031 23.238281 C 92.371094 23.207031 92.300781 23.09375 92.300781 22.988281 C 92.300781 22.886719 92.234375 22.800781 92.148438 22.800781 C 92.066406 22.800781 92 22.828125 92 22.859375 M 95.398438 28.949219 C 95.398438 29.03125 95.445312 29.101562 95.5 29.101562 C 95.554688 29.101562 95.601562 29.03125 95.601562 28.949219 C 95.601562 28.867188 95.554688 28.800781 95.5 28.800781 C 95.445312 28.800781 95.398438 28.867188 95.398438 28.949219 M 95.570312 29.265625 C 95.488281 29.34375 95.578125 29.5 95.707031 29.5 C 95.757812 29.5 95.800781 29.433594 95.800781 29.351562 C 95.800781 29.195312 95.683594 29.152344 95.570312 29.265625 M 95.699219 29.796875 C 95.699219 29.847656 95.746094 29.914062 95.800781 29.949219 C 95.855469 29.984375 95.898438 30.09375 95.898438 30.195312 C 95.898438 30.296875 95.96875 30.40625 96.050781 30.4375 C 96.242188 30.511719 96.242188 30.328125 96.050781 30.132812 C 95.964844 30.050781 95.921875 29.945312 95.949219 29.902344 C 95.976562 29.859375 95.929688 29.796875 95.847656 29.761719 C 95.765625 29.730469 95.699219 29.746094 95.699219 29.796875 M 96.101562 30.765625 C 96.101562 30.839844 96.167969 30.898438 96.25 30.898438 C 96.332031 30.898438 96.398438 30.839844 96.398438 30.765625 C 96.398438 30.691406 96.332031 30.632812 96.25 30.632812 C 96.167969 30.632812 96.101562 30.691406 96.101562 30.765625 M 96.300781 31.09375 C 96.300781 31.152344 96.339844 31.28125 96.386719 31.375 C 96.5 31.59375 96.664062 31.996094 96.738281 32.226562 C 96.796875 32.410156 97 32.46875 97 32.300781 C 97 32.246094 96.953125 32.199219 96.898438 32.199219 C 96.84375 32.199219 96.800781 32.066406 96.800781 31.898438 C 96.800781 31.734375 96.753906 31.601562 96.699219 31.601562 C 96.644531 31.601562 96.601562 31.527344 96.601562 31.441406 C 96.601562 31.355469 96.53125 31.21875 96.449219 31.136719 C 96.367188 31.054688 96.300781 31.035156 96.300781 31.09375 M 96.898438 32.691406 C 96.898438 32.808594 96.945312 32.898438 97 32.898438 C 97.054688 32.898438 97.101562 33.011719 97.101562 33.148438 C 97.101562 33.304688 97.15625 33.398438 97.25 33.398438 C 97.332031 33.398438 97.398438 33.328125 97.398438 33.242188 C 97.398438 33.160156 97.355469 33.117188 97.300781 33.148438 C 97.246094 33.183594 97.199219 33.117188 97.199219 33 C 97.199219 32.882812 97.132812 32.71875 97.050781 32.636719 C 96.917969 32.503906 96.898438 32.507812 96.898438 32.691406 M 97.300781 33.851562 C 97.300781 33.933594 97.371094 34 97.460938 34 C 97.59375 34 97.601562 33.972656 97.5 33.851562 C 97.429688 33.765625 97.359375 33.699219 97.335938 33.699219 C 97.316406 33.699219 97.300781 33.765625 97.300781 33.851562 M 97.5 34.449219 C 97.5 34.542969 97.546875 34.601562 97.609375 34.582031 C 97.667969 34.5625 97.714844 34.503906 97.714844 34.449219 C 97.714844 34.398438 97.667969 34.339844 97.609375 34.320312 C 97.546875 34.300781 97.5 34.359375 97.5 34.449219 M 98.300781 37.148438 C 98.300781 37.234375 98.34375 37.300781 98.398438 37.300781 C 98.453125 37.300781 98.5 37.234375 98.5 37.148438 C 98.5 37.066406 98.453125 37 98.398438 37 C 98.34375 37 98.300781 37.066406 98.300781 37.148438 M 98.574219 37.761719 C 98.53125 37.800781 98.5 37.902344 98.5 37.988281 C 98.5 38.097656 98.53125 38.109375 98.609375 38.027344 C 98.671875 37.96875 98.707031 37.867188 98.683594 37.800781 C 98.664062 37.738281 98.613281 37.71875 98.574219 37.761719 M 98.671875 38.707031 C 98.730469 38.929688 98.898438 38.96875 98.898438 38.761719 C 98.898438 38.683594 98.835938 38.597656 98.761719 38.566406 C 98.664062 38.53125 98.636719 38.574219 98.671875 38.707031 M 98.808594 39.367188 C 98.796875 39.550781 98.914062 39.800781 99.011719 39.800781 C 99.058594 39.800781 99.101562 39.707031 99.101562 39.59375 C 99.101562 39.480469 99.058594 39.414062 99.007812 39.445312 C 98.957031 39.476562 98.894531 39.445312 98.867188 39.375 C 98.832031 39.289062 98.8125 39.285156 98.808594 39.367188 M 99.039062 40.457031 C 99.074219 40.542969 99.101562 40.660156 99.101562 40.714844 C 99.101562 40.769531 99.144531 40.785156 99.199219 40.75 C 99.355469 40.65625 99.320312 40.429688 99.140625 40.359375 C 99.019531 40.3125 98.992188 40.339844 99.039062 40.457031 M 99.207031 41.417969 C 99.222656 41.738281 99.375 41.960938 99.449219 41.777344 C 99.492188 41.671875 99.457031 41.542969 99.359375 41.445312 C 99.242188 41.328125 99.203125 41.320312 99.207031 41.417969 M 99.402344 42.550781 C 99.402344 42.859375 99.511719 43.199219 99.613281 43.199219 C 99.746094 43.199219 99.71875 42.957031 99.550781 42.636719 C 99.429688 42.40625 99.402344 42.390625 99.402344 42.550781 M 99.601562 44.101562 C 99.601562 44.453125 99.707031 44.800781 99.8125 44.800781 C 99.949219 44.800781 99.917969 44.453125 99.75 44.136719 L 99.601562 43.851562 L 99.601562 44.101562 M 99.820312 46.300781 C 99.820312 46.601562 99.855469 46.960938 99.898438 47.101562 C 100.015625 47.457031 100.019531 46.695312 99.90625 46.148438 C 99.824219 45.753906 99.824219 45.753906 99.820312 46.300781 M 99.875 52.851562 C 99.835938 53.070312 99.808594 53.476562 99.8125 53.75 L 99.824219 54.25 L 99.914062 53.699219 C 99.964844 53.398438 99.996094 52.992188 99.980469 52.800781 L 99.949219 52.449219 L 99.875 52.851562 M 99.664062 55.324219 C 99.628906 55.449219 99.609375 55.683594 99.613281 55.851562 C 99.625 56.085938 99.636719 56.101562 99.671875 55.925781 C 99.695312 55.800781 99.753906 55.699219 99.808594 55.699219 C 99.859375 55.699219 99.898438 55.566406 99.898438 55.398438 C 99.898438 55.046875 99.75 55 99.664062 55.324219 M 99.445312 57.042969 C 99.410156 57.234375 99.402344 57.449219 99.433594 57.519531 C 99.460938 57.589844 99.488281 57.546875 99.492188 57.425781 C 99.496094 57.300781 99.546875 57.199219 99.601562 57.199219 C 99.726562 57.199219 99.730469 56.832031 99.605469 56.753906 C 99.554688 56.722656 99.480469 56.851562 99.445312 57.042969 M 99.242188 58.347656 C 99.207031 58.480469 99.203125 58.648438 99.230469 58.722656 C 99.261719 58.792969 99.289062 58.746094 99.292969 58.617188 C 99.296875 58.492188 99.34375 58.414062 99.398438 58.449219 C 99.453125 58.484375 99.5 58.417969 99.5 58.304688 C 99.5 58.019531 99.316406 58.046875 99.242188 58.347656 M 99.0625 59.359375 C 98.953125 59.632812 98.992188 59.730469 99.148438 59.601562 C 99.3125 59.464844 99.355469 59.199219 99.210938 59.199219 C 99.160156 59.199219 99.09375 59.269531 99.0625 59.359375 M 98.859375 60.359375 C 98.753906 60.632812 98.792969 60.71875 98.949219 60.5625 C 99.03125 60.480469 99.101562 60.367188 99.101562 60.308594 C 99.101562 60.144531 98.929688 60.179688 98.859375 60.359375 M 98.671875 61.292969 C 98.636719 61.425781 98.664062 61.46875 98.761719 61.433594 C 98.835938 61.402344 98.898438 61.316406 98.898438 61.238281 C 98.898438 61.03125 98.730469 61.070312 98.671875 61.292969 M 98.5 62.050781 C 98.5 62.132812 98.546875 62.199219 98.601562 62.199219 C 98.65625 62.199219 98.699219 62.132812 98.699219 62.050781 C 98.699219 61.96875 98.65625 61.898438 98.601562 61.898438 C 98.546875 61.898438 98.5 61.96875 98.5 62.050781 M 98.101562 63.550781 C 98.101562 63.632812 98.144531 63.699219 98.199219 63.699219 C 98.253906 63.699219 98.300781 63.632812 98.300781 63.550781 C 98.300781 63.46875 98.253906 63.398438 98.199219 63.398438 C 98.144531 63.398438 98.101562 63.46875 98.101562 63.550781 M 97.5 65.550781 C 97.5 65.640625 97.546875 65.699219 97.609375 65.679688 C 97.667969 65.660156 97.714844 65.601562 97.714844 65.550781 C 97.714844 65.496094 97.667969 65.4375 97.609375 65.417969 C 97.546875 65.398438 97.5 65.457031 97.5 65.550781 M 97.222656 66.515625 C 97.15625 66.585938 97.101562 66.742188 97.101562 66.871094 C 97.101562 66.996094 97.054688 67.101562 97 67.101562 C 96.945312 67.101562 96.898438 67.191406 96.898438 67.308594 C 96.898438 67.492188 96.917969 67.496094 97.050781 67.363281 C 97.132812 67.28125 97.199219 67.101562 97.199219 66.964844 C 97.199219 66.828125 97.25 66.699219 97.316406 66.679688 C 97.378906 66.65625 97.410156 66.585938 97.390625 66.515625 C 97.355469 66.417969 97.320312 66.417969 97.222656 66.515625 M 96.699219 67.808594 C 96.699219 67.992188 96.714844 67.996094 96.851562 67.863281 C 96.933594 67.78125 97 67.6875 97 67.65625 C 97 67.625 96.933594 67.601562 96.851562 67.601562 C 96.765625 67.601562 96.699219 67.691406 96.699219 67.808594 M 96.5 68.34375 C 96.5 68.476562 96.453125 68.617188 96.398438 68.648438 C 96.34375 68.683594 96.300781 68.78125 96.300781 68.863281 C 96.300781 68.996094 96.316406 68.996094 96.449219 68.863281 C 96.53125 68.78125 96.601562 68.621094 96.601562 68.507812 C 96.601562 68.394531 96.644531 68.300781 96.699219 68.300781 C 96.753906 68.300781 96.800781 68.253906 96.800781 68.199219 C 96.800781 68.144531 96.734375 68.101562 96.648438 68.101562 C 96.558594 68.101562 96.5 68.195312 96.5 68.34375 M 96.167969 69.167969 C 96.054688 69.277344 96.089844 69.367188 96.25 69.367188 C 96.332031 69.367188 96.398438 69.308594 96.398438 69.234375 C 96.398438 69.089844 96.277344 69.054688 96.167969 69.167969 M 95.941406 69.675781 C 95.910156 69.769531 95.84375 69.929688 95.792969 70.023438 C 95.648438 70.292969 95.683594 70.429688 95.851562 70.265625 C 95.933594 70.183594 96 70.019531 96 69.902344 C 96 69.785156 96.046875 69.714844 96.101562 69.75 C 96.15625 69.785156 96.199219 69.742188 96.199219 69.65625 C 96.199219 69.445312 96.007812 69.457031 95.941406 69.675781 M 94.199219 73.351562 C 94.199219 73.433594 94.246094 73.5 94.300781 73.5 C 94.355469 73.5 94.398438 73.433594 94.398438 73.351562 C 94.398438 73.265625 94.355469 73.199219 94.300781 73.199219 C 94.246094 73.199219 94.199219 73.265625 94.199219 73.351562 M 93.199219 75.160156 C 93.199219 75.246094 93.253906 75.296875 93.320312 75.277344 C 93.503906 75.214844 93.535156 75 93.359375 75 C 93.269531 75 93.199219 75.070312 93.199219 75.160156 M 93 75.53125 C 93 75.601562 92.921875 75.75 92.824219 75.855469 C 92.726562 75.960938 92.535156 76.265625 92.398438 76.523438 C 92.261719 76.785156 92.117188 77 92.074219 77 C 92.035156 77 92 77.046875 92 77.101562 C 92 77.15625 92.066406 77.199219 92.148438 77.199219 C 92.234375 77.199219 92.300781 77.140625 92.300781 77.070312 C 92.300781 76.828125 92.550781 76.398438 92.726562 76.34375 C 92.820312 76.3125 92.898438 76.195312 92.898438 76.085938 C 92.898438 75.976562 92.945312 75.914062 93 75.949219 C 93.085938 76.003906 93.125 75.875 93.089844 75.636719 C 93.085938 75.601562 93.144531 75.535156 93.214844 75.488281 C 93.320312 75.421875 93.308594 75.402344 93.175781 75.402344 C 93.078125 75.402344 93 75.460938 93 75.53125 M 91.765625 77.484375 C 91.558594 77.710938 91.554688 77.800781 91.75 77.800781 C 91.832031 77.800781 91.898438 77.714844 91.898438 77.609375 C 91.898438 77.503906 91.957031 77.394531 92.023438 77.367188 C 92.097656 77.335938 92.105469 77.3125 92.039062 77.308594 C 91.980469 77.304688 91.855469 77.382812 91.765625 77.484375 M 91.308594 78.164062 C 91.082031 78.449219 91.042969 78.601562 91.199219 78.601562 C 91.253906 78.601562 91.300781 78.527344 91.300781 78.4375 C 91.300781 78.347656 91.398438 78.191406 91.515625 78.085938 C 91.632812 77.984375 91.683594 77.898438 91.621094 77.898438 C 91.5625 77.898438 91.421875 78.019531 91.308594 78.164062 M 90.757812 78.890625 C 90.628906 79.035156 90.617188 79.089844 90.71875 79.125 C 90.789062 79.148438 90.90625 79.097656 90.972656 79.007812 C 91.226562 78.675781 91.042969 78.574219 90.757812 78.890625 M 83.75 81.101562 C 83.859375 81.148438 84.039062 81.183594 84.148438 81.183594 C 84.3125 81.179688 84.300781 81.164062 84.101562 81.101562 C 83.757812 80.992188 83.496094 80.992188 83.75 81.101562 "/>
<path style=" stroke:none;fill-rule:evenodd;fill:rgb(54.509804%,79.607843%,98.431373%);fill-opacity:1;" d="M 45.488281 0.0429688 C 45.464844 0.0703125 45.050781 0.0976562 44.570312 0.109375 C 44.09375 0.117188 43.699219 0.164062 43.699219 0.214844 C 43.699219 0.261719 43.386719 0.300781 43.007812 0.300781 C 42.625 0.300781 42.285156 0.34375 42.25 0.398438 C 42.214844 0.453125 41.96875 0.5 41.699219 0.5 C 41.429688 0.5 41.183594 0.546875 41.148438 0.601562 C 41.117188 0.65625 40.886719 0.699219 40.644531 0.699219 C 40.398438 0.699219 40.199219 0.746094 40.199219 0.800781 C 40.199219 0.855469 39.976562 0.898438 39.699219 0.898438 C 39.425781 0.898438 39.199219 0.945312 39.199219 1 C 39.199219 1.054688 39 1.101562 38.757812 1.101562 C 38.511719 1.101562 38.285156 1.144531 38.25 1.199219 C 38.214844 1.253906 38.035156 1.300781 37.851562 1.300781 C 37.664062 1.300781 37.484375 1.34375 37.449219 1.398438 C 37.414062 1.453125 37.257812 1.5 37.101562 1.5 C 36.941406 1.5 36.785156 1.546875 36.75 1.601562 C 36.714844 1.65625 36.554688 1.699219 36.394531 1.699219 C 36.230469 1.699219 36.101562 1.746094 36.101562 1.800781 C 36.101562 1.855469 35.964844 1.898438 35.800781 1.898438 C 35.636719 1.898438 35.5 1.945312 35.5 2 C 35.5 2.054688 35.320312 2.101562 35.101562 2.101562 C 34.878906 2.101562 34.699219 2.144531 34.699219 2.199219 C 34.699219 2.253906 34.597656 2.300781 34.476562 2.304688 C 34.351562 2.308594 34.070312 2.375 33.851562 2.460938 C 33.414062 2.625 33.390625 2.628906 32.949219 2.75 C 32.785156 2.792969 32.566406 2.886719 32.464844 2.957031 C 32.359375 3.027344 32.214844 3.0625 32.136719 3.03125 C 32.0625 3.003906 32 3.027344 32 3.089844 C 32 3.148438 31.910156 3.199219 31.800781 3.199219 C 31.691406 3.199219 31.601562 3.246094 31.601562 3.304688 C 31.601562 3.363281 31.566406 3.390625 31.523438 3.363281 C 31.480469 3.339844 31.222656 3.421875 30.949219 3.554688 C 30.675781 3.683594 30.351562 3.789062 30.234375 3.792969 C 30.113281 3.796875 30 3.832031 29.984375 3.875 C 29.933594 3.984375 29.105469 4.398438 28.941406 4.398438 C 28.863281 4.398438 28.800781 4.445312 28.800781 4.5 C 28.800781 4.554688 28.6875 4.601562 28.550781 4.601562 C 28.414062 4.601562 28.300781 4.644531 28.300781 4.699219 C 28.300781 4.753906 28.234375 4.800781 28.148438 4.800781 C 28.066406 4.800781 28 4.84375 28 4.898438 C 28 4.953125 27.914062 5 27.804688 5 C 27.699219 5 27.585938 5.046875 27.550781 5.101562 C 27.515625 5.15625 27.402344 5.199219 27.292969 5.199219 C 27.1875 5.199219 27.101562 5.246094 27.101562 5.300781 C 27.101562 5.355469 27.03125 5.398438 26.945312 5.398438 C 26.859375 5.398438 26.816406 5.445312 26.851562 5.5 C 26.882812 5.554688 26.820312 5.601562 26.707031 5.601562 C 26.59375 5.601562 26.5 5.644531 26.5 5.699219 C 26.5 5.753906 26.410156 5.800781 26.300781 5.800781 C 26.191406 5.800781 26.101562 5.84375 26.101562 5.898438 C 26.101562 5.953125 26.015625 6 25.910156 6 C 25.804688 6 25.703125 6.035156 25.683594 6.074219 C 25.664062 6.117188 25.289062 6.328125 24.851562 6.542969 C 24.410156 6.757812 24.035156 6.972656 24.015625 7.019531 C 24 7.0625 23.925781 7.101562 23.855469 7.101562 C 23.789062 7.101562 23.648438 7.191406 23.550781 7.300781 C 23.449219 7.410156 23.308594 7.5 23.234375 7.5 C 23.160156 7.5 23.101562 7.539062 23.101562 7.589844 C 23.101562 7.640625 22.894531 7.800781 22.644531 7.949219 C 21.984375 8.335938 22.015625 8.355469 24.855469 9.320312 C 30.207031 11.144531 30.296875 11.164062 31.675781 11.0625 C 33.128906 10.953125 33.746094 10.847656 37.601562 10.070312 C 42.433594 9.09375 43.929688 9.328125 46.625 11.480469 C 48.503906 12.980469 49.679688 13.472656 52.398438 13.902344 C 56 14.472656 56.914062 15.699219 56.40625 19.28125 C 56.351562 19.648438 56.257812 20.355469 56.199219 20.851562 C 55.941406 22.914062 55.570312 24.003906 54.910156 24.671875 C 54.328125 25.253906 53.8125 25.445312 51.601562 25.902344 C 51.296875 25.96875 50.890625 26.054688 50.699219 26.101562 C 50.507812 26.144531 50.113281 26.230469 49.824219 26.289062 C 48.691406 26.527344 48.238281 26.628906 48 26.699219 C 47.863281 26.742188 47.546875 26.832031 47.300781 26.898438 C 46.585938 27.097656 45.289062 27.617188 44.796875 27.902344 C 44.550781 28.046875 43.875 28.417969 43.296875 28.722656 C 40.613281 30.148438 40.117188 30.480469 39.167969 31.503906 C 38.296875 32.441406 37.765625 33.484375 37.398438 34.976562 C 37.046875 36.390625 36.46875 37.140625 35.328125 37.664062 C 34.269531 38.148438 33.679688 38.308594 31.851562 38.597656 C 31.464844 38.660156 30.957031 38.753906 30.722656 38.804688 C 30.488281 38.855469 30.164062 38.898438 30 38.898438 C 29.71875 38.898438 29.285156 38.984375 28.351562 39.222656 C 25.546875 39.929688 25.238281 41.636719 27.304688 45 C 27.558594 45.414062 27.914062 45.996094 28.097656 46.300781 C 31.050781 51.164062 31.027344 51.152344 38.101562 50.292969 C 39.636719 50.105469 43.847656 51.148438 47.476562 52.609375 C 47.597656 52.660156 47.8125 52.746094 47.949219 52.800781 C 48.085938 52.855469 48.300781 52.941406 48.425781 52.988281 C 48.546875 53.039062 48.863281 53.175781 49.125 53.289062 C 49.382812 53.40625 49.625 53.5 49.65625 53.5 C 49.6875 53.5 50.441406 53.863281 51.328125 54.308594 C 56.886719 57.09375 58.890625 59.464844 58.308594 62.570312 C 58.261719 62.835938 58.164062 63.363281 58.097656 63.75 C 57.808594 65.40625 56.878906 67.714844 55.914062 69.199219 C 55.824219 69.339844 55.703125 69.523438 55.648438 69.613281 C 55.507812 69.839844 54.699219 71 54.542969 71.191406 C 54.101562 71.746094 51.929688 74.375 51.828125 74.484375 C 51.015625 75.328125 49.445312 77.660156 48.902344 78.824219 C 48.183594 80.375 47.976562 81.148438 47.597656 83.699219 C 47.484375 84.441406 47.40625 84.847656 47.1875 85.773438 C 47.015625 86.507812 46.597656 87.886719 46.402344 88.351562 C 44.128906 93.828125 41.101562 93.925781 38.832031 88.601562 C 38.078125 86.835938 37.421875 84.429688 36.796875 81.148438 C 36.464844 79.421875 36.335938 78.832031 36.003906 77.523438 C 34.933594 73.308594 33.269531 70.457031 30.949219 68.851562 C 28.855469 67.402344 28.191406 66.824219 27.609375 65.964844 C 26.476562 64.277344 25.984375 62.046875 25.84375 57.949219 C 25.703125 53.8125 25.210938 52.511719 22.929688 50.253906 C 21.828125 49.164062 21.332031 48.804688 19.285156 47.601562 C 13.285156 44.078125 9.390625 39.941406 6.480469 34 C 5.703125 32.417969 5.492188 31.921875 5.011719 30.621094 C 4.398438 28.957031 4.417969 28.972656 4.035156 29.773438 C 3.859375 30.140625 3.738281 30.480469 3.761719 30.523438 C 3.789062 30.566406 3.765625 30.601562 3.707031 30.601562 C 3.648438 30.601562 3.601562 30.667969 3.601562 30.753906 C 3.601562 30.839844 3.511719 31.097656 3.398438 31.324219 C 3.289062 31.550781 3.199219 31.796875 3.199219 31.867188 C 3.199219 31.941406 3.152344 32 3.09375 32 C 3.035156 32 3.011719 32.035156 3.039062 32.082031 C 3.066406 32.128906 3.023438 32.289062 2.945312 32.445312 C 2.867188 32.597656 2.800781 32.785156 2.800781 32.863281 C 2.800781 33 2.753906 33.109375 2.511719 33.578125 C 2.449219 33.703125 2.367188 34.007812 2.335938 34.253906 C 2.300781 34.5 2.234375 34.699219 2.1875 34.699219 C 2.140625 34.699219 2.101562 34.878906 2.101562 35.101562 C 2.101562 35.320312 2.054688 35.5 2 35.5 C 1.945312 35.5 1.898438 35.636719 1.898438 35.800781 C 1.898438 35.964844 1.855469 36.101562 1.800781 36.101562 C 1.746094 36.101562 1.699219 36.230469 1.699219 36.394531 C 1.699219 36.554688 1.65625 36.714844 1.601562 36.75 C 1.546875 36.785156 1.5 36.941406 1.5 37.101562 C 1.5 37.257812 1.464844 37.410156 1.421875 37.4375 C 1.378906 37.464844 1.332031 37.632812 1.320312 37.816406 C 1.304688 38 1.25 38.164062 1.195312 38.183594 C 1.144531 38.203125 1.101562 38.4375 1.101562 38.707031 C 1.101562 38.980469 1.054688 39.199219 1 39.199219 C 0.945312 39.199219 0.898438 39.398438 0.898438 39.644531 C 0.898438 39.886719 0.855469 40.117188 0.800781 40.148438 C 0.746094 40.183594 0.699219 40.386719 0.699219 40.601562 C 0.699219 40.8125 0.65625 41.015625 0.601562 41.050781 C 0.546875 41.085938 0.5 41.375 0.5 41.699219 C 0.5 42.023438 0.453125 42.316406 0.398438 42.351562 C 0.34375 42.382812 0.300781 42.703125 0.300781 43.054688 C 0.300781 43.410156 0.261719 43.699219 0.214844 43.699219 C 0 43.699219 -0.0390625 56.003906 0.175781 56.074219 C 0.261719 56.101562 0.300781 56.351562 0.300781 56.851562 C 0.300781 57.257812 0.34375 57.617188 0.398438 57.648438 C 0.453125 57.683594 0.5 57.976562 0.5 58.300781 C 0.5 58.625 0.546875 58.914062 0.601562 58.949219 C 0.65625 58.984375 0.699219 59.1875 0.699219 59.398438 C 0.699219 59.613281 0.746094 59.816406 0.800781 59.851562 C 0.855469 59.882812 0.898438 60.113281 0.898438 60.355469 C 0.898438 60.601562 0.945312 60.800781 1 60.800781 C 1.054688 60.800781 1.101562 61 1.101562 61.242188 C 1.101562 61.488281 1.144531 61.714844 1.199219 61.75 C 1.253906 61.785156 1.300781 61.964844 1.300781 62.148438 C 1.300781 62.335938 1.34375 62.515625 1.398438 62.550781 C 1.453125 62.585938 1.5 62.742188 1.5 62.898438 C 1.5 63.058594 1.546875 63.214844 1.601562 63.25 C 1.65625 63.285156 1.699219 63.445312 1.699219 63.605469 C 1.699219 63.769531 1.746094 63.898438 1.800781 63.898438 C 1.855469 63.898438 1.898438 64.035156 1.898438 64.199219 C 1.898438 64.363281 1.945312 64.5 2 64.5 C 2.054688 64.5 2.101562 64.65625 2.101562 64.84375 C 2.101562 65.035156 2.144531 65.214844 2.199219 65.25 C 2.253906 65.285156 2.300781 65.445312 2.300781 65.605469 C 2.300781 65.769531 2.339844 65.898438 2.390625 65.898438 C 2.4375 65.898438 2.507812 66.070312 2.542969 66.273438 C 2.609375 66.660156 2.746094 67.09375 2.914062 67.453125 C 2.96875 67.566406 3.023438 67.722656 3.035156 67.804688 C 3.058594 67.945312 3.324219 68.578125 3.507812 68.921875 C 3.558594 69.019531 3.601562 69.164062 3.601562 69.25 C 3.601562 69.332031 3.648438 69.398438 3.707031 69.398438 C 3.765625 69.398438 3.789062 69.4375 3.761719 69.484375 C 3.734375 69.527344 3.820312 69.785156 3.953125 70.050781 C 4.089844 70.316406 4.199219 70.59375 4.199219 70.667969 C 4.199219 70.742188 4.246094 70.800781 4.300781 70.800781 C 4.355469 70.800781 4.398438 70.867188 4.398438 70.945312 C 4.398438 71.027344 4.488281 71.253906 4.601562 71.449219 C 4.710938 71.644531 4.800781 71.867188 4.800781 71.945312 C 4.800781 72.019531 4.835938 72.097656 4.875 72.117188 C 4.917969 72.136719 5.105469 72.453125 5.289062 72.824219 C 5.476562 73.195312 5.667969 73.5 5.714844 73.5 C 5.761719 73.5 5.800781 73.589844 5.800781 73.699219 C 5.800781 73.808594 5.84375 73.898438 5.898438 73.898438 C 5.953125 73.898438 6 73.988281 6 74.101562 C 6 74.210938 6.046875 74.300781 6.101562 74.300781 C 6.15625 74.300781 6.199219 74.390625 6.199219 74.5 C 6.199219 74.609375 6.238281 74.699219 6.289062 74.699219 C 6.335938 74.699219 6.5 74.957031 6.65625 75.273438 C 6.808594 75.589844 7.058594 76.039062 7.214844 76.269531 C 7.371094 76.496094 7.5 76.734375 7.5 76.792969 C 7.5 76.851562 7.539062 76.898438 7.589844 76.898438 C 7.636719 76.898438 7.75 77.054688 7.839844 77.246094 C 7.929688 77.433594 8.0625 77.648438 8.132812 77.71875 C 8.304688 77.894531 8.898438 78.769531 8.898438 78.847656 C 8.898438 78.882812 9.011719 79.023438 9.148438 79.160156 C 9.289062 79.296875 9.398438 79.449219 9.398438 79.5 C 9.398438 79.550781 9.5 79.695312 9.625 79.820312 C 9.75 79.945312 9.914062 80.171875 9.988281 80.320312 C 10.066406 80.472656 10.167969 80.570312 10.214844 80.539062 C 10.261719 80.511719 10.300781 80.558594 10.300781 80.644531 C 10.300781 80.730469 10.34375 80.800781 10.398438 80.800781 C 10.453125 80.800781 10.5 80.847656 10.5 80.902344 C 10.5 80.960938 10.613281 81.128906 10.753906 81.277344 C 10.894531 81.429688 11.097656 81.6875 11.203125 81.859375 C 11.308594 82.027344 11.601562 82.386719 11.851562 82.660156 C 12.667969 83.535156 12.800781 83.6875 12.800781 83.753906 C 12.800781 83.84375 13.425781 84.394531 13.523438 84.398438 C 13.566406 84.398438 13.601562 84.457031 13.601562 84.523438 C 13.601562 84.59375 13.746094 84.761719 13.917969 84.898438 C 14.351562 85.242188 15.699219 86.601562 15.699219 86.699219 C 15.699219 86.742188 15.789062 86.800781 15.898438 86.828125 C 16.011719 86.859375 16.101562 86.953125 16.101562 87.039062 C 16.101562 87.128906 16.171875 87.199219 16.257812 87.199219 C 16.339844 87.199219 16.386719 87.238281 16.355469 87.289062 C 16.328125 87.335938 16.425781 87.429688 16.578125 87.492188 C 16.726562 87.554688 17.027344 87.785156 17.242188 88.003906 C 17.457031 88.222656 17.675781 88.398438 17.722656 88.398438 C 17.773438 88.398438 17.789062 88.441406 17.757812 88.488281 C 17.726562 88.535156 17.835938 88.632812 18 88.699219 C 18.164062 88.769531 18.300781 88.851562 18.300781 88.886719 C 18.300781 88.921875 18.5 89.085938 18.746094 89.25 C 18.996094 89.414062 19.195312 89.582031 19.199219 89.625 C 19.199219 89.667969 19.257812 89.699219 19.328125 89.699219 C 19.398438 89.699219 19.519531 89.789062 19.601562 89.898438 C 19.679688 90.011719 19.78125 90.101562 19.824219 90.101562 C 19.867188 90.101562 20.042969 90.234375 20.214844 90.398438 C 20.386719 90.566406 20.589844 90.699219 20.664062 90.699219 C 20.738281 90.699219 20.800781 90.746094 20.800781 90.800781 C 20.800781 90.855469 20.871094 90.898438 20.957031 90.898438 C 21.042969 90.898438 21.085938 90.945312 21.050781 91 C 21.015625 91.054688 21.050781 91.101562 21.125 91.101562 C 21.199219 91.101562 21.359375 91.191406 21.476562 91.300781 C 21.59375 91.410156 21.730469 91.5 21.78125 91.5 C 21.832031 91.5 22.011719 91.636719 22.183594 91.800781 C 22.355469 91.964844 22.558594 92.101562 22.628906 92.101562 C 22.703125 92.101562 22.859375 92.191406 22.976562 92.300781 C 23.09375 92.410156 23.21875 92.5 23.253906 92.5 C 23.285156 92.5 23.460938 92.613281 23.640625 92.75 C 23.820312 92.886719 23.996094 92.96875 24.035156 92.933594 C 24.070312 92.898438 24.101562 92.917969 24.101562 92.984375 C 24.101562 93.046875 24.167969 93.101562 24.25 93.101562 C 24.332031 93.101562 24.398438 93.148438 24.398438 93.207031 C 24.398438 93.265625 24.4375 93.289062 24.488281 93.257812 C 24.535156 93.230469 24.652344 93.292969 24.753906 93.402344 C 24.851562 93.511719 25.015625 93.601562 25.117188 93.601562 C 25.21875 93.601562 25.300781 93.644531 25.300781 93.699219 C 25.300781 93.753906 25.390625 93.800781 25.5 93.800781 C 25.609375 93.800781 25.699219 93.84375 25.699219 93.898438 C 25.699219 93.953125 25.789062 94 25.898438 94 C 26.011719 94 26.101562 94.046875 26.101562 94.101562 C 26.101562 94.15625 26.191406 94.199219 26.300781 94.199219 C 26.410156 94.199219 26.5 94.238281 26.5 94.285156 C 26.5 94.332031 26.714844 94.46875 26.976562 94.59375 C 27.234375 94.71875 27.539062 94.871094 27.648438 94.929688 C 28.089844 95.164062 28.566406 95.390625 28.875 95.515625 C 29.054688 95.589844 29.199219 95.683594 29.199219 95.722656 C 29.199219 95.765625 29.289062 95.800781 29.394531 95.800781 C 29.5 95.800781 29.617188 95.84375 29.648438 95.898438 C 29.683594 95.953125 29.824219 96 29.960938 96 C 30.101562 96 30.183594 96.042969 30.148438 96.101562 C 30.117188 96.15625 30.160156 96.199219 30.25 96.199219 C 30.335938 96.199219 30.597656 96.289062 30.824219 96.398438 C 31.050781 96.511719 31.296875 96.601562 31.367188 96.601562 C 31.441406 96.601562 31.5 96.644531 31.5 96.699219 C 31.5 96.753906 31.589844 96.800781 31.703125 96.800781 C 31.8125 96.800781 32.003906 96.851562 32.125 96.914062 C 32.589844 97.15625 32.699219 97.199219 32.832031 97.199219 C 32.902344 97.199219 33.140625 97.285156 33.351562 97.390625 C 33.566406 97.492188 33.84375 97.566406 33.96875 97.554688 C 34.097656 97.539062 34.199219 97.566406 34.199219 97.613281 C 34.199219 97.660156 34.308594 97.699219 34.445312 97.699219 C 34.578125 97.699219 34.714844 97.746094 34.75 97.800781 C 34.785156 97.855469 34.964844 97.898438 35.15625 97.898438 C 35.34375 97.898438 35.5 97.945312 35.5 98 C 35.5 98.054688 35.609375 98.101562 35.742188 98.101562 C 35.878906 98.101562 36.015625 98.144531 36.050781 98.199219 C 36.085938 98.253906 36.242188 98.300781 36.398438 98.300781 C 36.558594 98.300781 36.714844 98.339844 36.742188 98.390625 C 36.773438 98.4375 36.96875 98.503906 37.175781 98.535156 C 38.050781 98.667969 38.304688 98.726562 38.355469 98.8125 C 38.386719 98.859375 38.585938 98.898438 38.800781 98.898438 C 39.011719 98.898438 39.214844 98.945312 39.25 99 C 39.285156 99.054688 39.511719 99.101562 39.757812 99.101562 C 40 99.101562 40.199219 99.144531 40.199219 99.199219 C 40.199219 99.253906 40.394531 99.300781 40.628906 99.300781 C 40.867188 99.300781 41.101562 99.339844 41.15625 99.390625 C 41.242188 99.476562 41.5 99.511719 43.050781 99.660156 C 43.378906 99.691406 43.699219 99.757812 43.757812 99.804688 C 43.894531 99.917969 47.707031 99.972656 48.300781 99.871094 C 48.546875 99.828125 49.15625 99.75 49.648438 99.695312 C 51.488281 99.488281 53.527344 99.148438 55.050781 98.796875 C 58.101562 98.089844 61.542969 97.011719 63.375 96.191406 C 63.855469 95.976562 64.476562 95.699219 65.175781 95.390625 C 71.511719 92.585938 78.261719 87.382812 82.800781 81.800781 C 83.046875 81.496094 83.28125 81.222656 83.324219 81.191406 C 83.367188 81.160156 83.144531 81.019531 82.828125 80.878906 C 81.96875 80.492188 81.535156 80.03125 81.300781 79.25 C 81.179688 78.839844 81.191406 78.742188 81.613281 76.851562 C 82.195312 74.222656 82.230469 73.183594 82.015625 65.898438 C 81.921875 62.65625 81.835938 61.363281 81.652344 60.398438 C 80.902344 56.410156 79.324219 55.113281 75.199219 55.097656 C 73.113281 55.089844 70.464844 54.828125 69.300781 54.511719 C 68.363281 54.253906 68.132812 54.140625 67.226562 53.460938 C 63.15625 50.40625 62.410156 46.984375 65.011719 43.285156 C 65.117188 43.136719 65.199219 42.988281 65.199219 42.953125 C 65.199219 42.917969 65.375 42.628906 65.589844 42.3125 C 67.183594 39.96875 67.675781 38.550781 67.351562 37.246094 C 67.140625 36.394531 67.234375 36.09375 68.050781 35.015625 C 69.265625 33.410156 70.253906 32.988281 71.800781 33.425781 C 74.589844 34.210938 84.578125 34.746094 85.90625 34.179688 C 86.984375 33.714844 87.933594 31.789062 87.9375 30.050781 C 87.941406 27.503906 85.980469 26.554688 81.820312 27.089844 C 81.105469 27.183594 80.460938 27.238281 77.234375 27.5 C 74.550781 27.71875 72.445312 27.59375 72.015625 27.191406 C 71.652344 26.851562 71.101562 24.015625 71.101562 22.476562 C 71.101562 18.394531 72.8125 16.59375 78.738281 14.441406 L 79.226562 14.261719 L 78.488281 13.578125 C 74.515625 9.90625 69.429688 6.464844 65.300781 4.660156 C 64.351562 4.242188 63.851562 4.023438 63.375 3.808594 C 63.140625 3.703125 62.703125 3.527344 62.398438 3.417969 C 62.097656 3.308594 61.398438 3.050781 60.851562 2.851562 C 59.773438 2.457031 57.632812 1.8125 56.53125 1.550781 C 53.5 0.832031 51.945312 0.550781 49.550781 0.300781 C 49 0.242188 48.300781 0.148438 47.992188 0.0976562 C 47.4375 0 45.574219 -0.0390625 45.488281 0.0429688 "/>
<path style=" stroke:none;fill-rule:evenodd;fill:rgb(58.039216%,83.137255%,17.254902%);fill-opacity:1;" d="M 82.800781 13.0625 C 82.101562 13.390625 81.941406 13.457031 81.449219 13.613281 C 81.230469 13.683594 81.007812 13.777344 80.953125 13.820312 C 80.902344 13.863281 80.757812 13.898438 80.636719 13.898438 C 80.511719 13.898438 80.382812 13.945312 80.351562 14 C 80.316406 14.054688 80.199219 14.101562 80.09375 14.101562 C 79.929688 14.101562 79.726562 14.183594 79.40625 14.375 C 79.382812 14.390625 79.746094 14.792969 80.210938 15.277344 C 80.675781 15.757812 81.371094 16.507812 81.753906 16.949219 C 82.136719 17.386719 82.53125 17.835938 82.632812 17.949219 C 83.789062 19.238281 85.914062 22.269531 87.410156 24.75 C 92.980469 34.007812 95.296875 45.828125 93.734375 57.050781 C 93.445312 59.128906 92.792969 62.261719 92.355469 63.648438 C 92.285156 63.871094 92.171875 64.253906 92.097656 64.5 C 91.210938 67.59375 89.441406 71.71875 87.765625 74.601562 C 87.496094 75.066406 87.183594 75.609375 87.074219 75.800781 C 86.667969 76.515625 84.796875 79.277344 84.164062 80.101562 L 83.503906 80.949219 L 83.976562 81.074219 C 84.238281 81.140625 84.632812 81.195312 84.855469 81.199219 C 85.507812 81.203125 87.46875 80.839844 87.644531 80.683594 C 87.695312 80.636719 87.800781 80.601562 87.871094 80.601562 C 88.414062 80.601562 91.078125 78.878906 91.09375 78.515625 C 91.097656 78.445312 91.226562 78.257812 91.378906 78.105469 C 91.53125 77.953125 91.644531 77.78125 91.625 77.722656 C 91.605469 77.667969 91.703125 77.53125 91.84375 77.425781 C 91.980469 77.316406 92.0625 77.195312 92.023438 77.15625 C 91.988281 77.121094 92.003906 77.058594 92.058594 77.019531 C 92.117188 76.980469 92.273438 76.746094 92.40625 76.5 C 92.539062 76.253906 92.730469 75.964844 92.824219 75.855469 C 92.921875 75.75 93 75.601562 93 75.53125 C 93 75.460938 93.085938 75.398438 93.195312 75.398438 C 93.300781 75.398438 93.414062 75.355469 93.449219 75.300781 C 93.484375 75.246094 93.445312 75.226562 93.355469 75.261719 C 93.253906 75.300781 93.199219 75.265625 93.199219 75.160156 C 93.199219 75.070312 93.246094 75 93.300781 75 C 93.355469 75 93.398438 74.941406 93.398438 74.867188 C 93.398438 74.796875 93.488281 74.640625 93.601562 74.523438 C 93.710938 74.40625 93.800781 74.238281 93.800781 74.152344 C 93.800781 74.070312 93.84375 74 93.898438 74 C 93.953125 74 94 73.910156 94 73.800781 C 94 73.691406 94.046875 73.601562 94.101562 73.601562 C 94.15625 73.601562 94.199219 73.515625 94.199219 73.410156 C 94.199219 73.304688 94.234375 73.203125 94.277344 73.183594 C 94.316406 73.164062 94.507812 72.835938 94.699219 72.449219 C 94.890625 72.066406 95.085938 71.722656 95.136719 71.6875 C 95.183594 71.652344 95.195312 71.570312 95.15625 71.511719 C 95.117188 71.449219 95.160156 71.371094 95.246094 71.339844 C 95.332031 71.304688 95.390625 71.203125 95.375 71.113281 C 95.359375 71.015625 95.417969 70.949219 95.519531 70.949219 C 95.609375 70.949219 95.722656 70.90625 95.769531 70.859375 C 95.8125 70.808594 95.800781 70.796875 95.734375 70.832031 C 95.671875 70.871094 95.59375 70.828125 95.558594 70.742188 C 95.476562 70.519531 95.480469 70.5 95.640625 70.5 C 95.730469 70.5 95.761719 70.429688 95.730469 70.3125 C 95.703125 70.207031 95.730469 70.09375 95.792969 70.054688 C 95.851562 70.019531 95.898438 69.898438 95.898438 69.789062 C 95.898438 69.683594 95.964844 69.570312 96.042969 69.539062 C 96.121094 69.507812 96.164062 69.421875 96.132812 69.34375 C 96.101562 69.265625 96.148438 69.175781 96.226562 69.144531 C 96.3125 69.113281 96.359375 69.007812 96.332031 68.90625 C 96.304688 68.804688 96.332031 68.691406 96.390625 68.65625 C 96.449219 68.617188 96.5 68.476562 96.5 68.34375 C 96.5 68.203125 96.558594 68.101562 96.636719 68.101562 C 96.726562 68.101562 96.757812 68.019531 96.722656 67.851562 C 96.691406 67.675781 96.722656 67.601562 96.824219 67.601562 C 96.929688 67.601562 96.957031 67.527344 96.925781 67.351562 C 96.898438 67.203125 96.921875 67.101562 96.988281 67.101562 C 97.050781 67.101562 97.101562 66.992188 97.101562 66.855469 C 97.101562 66.722656 97.144531 66.585938 97.199219 66.550781 C 97.253906 66.515625 97.300781 66.378906 97.300781 66.242188 C 97.300781 66.109375 97.359375 66 97.433594 66 C 97.523438 66 97.550781 65.902344 97.519531 65.683594 C 97.480469 65.429688 97.503906 65.378906 97.628906 65.429688 C 97.757812 65.476562 97.777344 65.429688 97.730469 65.15625 C 97.699219 64.964844 97.722656 64.796875 97.789062 64.757812 C 97.851562 64.71875 97.898438 64.554688 97.898438 64.394531 C 97.898438 64.230469 97.945312 64.101562 98 64.101562 C 98.054688 64.101562 98.101562 63.941406 98.101562 63.75 C 98.101562 63.558594 98.144531 63.398438 98.199219 63.398438 C 98.253906 63.398438 98.300781 63.242188 98.300781 63.050781 C 98.300781 62.859375 98.34375 62.699219 98.398438 62.699219 C 98.453125 62.699219 98.5 62.519531 98.5 62.300781 C 98.5 62.078125 98.542969 61.898438 98.597656 61.898438 C 98.648438 61.898438 98.6875 61.738281 98.679688 61.539062 C 98.671875 61.34375 98.722656 61.148438 98.792969 61.101562 C 98.878906 61.050781 98.898438 60.921875 98.855469 60.71875 C 98.800781 60.480469 98.832031 60.371094 98.984375 60.238281 C 99.144531 60.105469 99.164062 60.019531 99.089844 59.820312 C 98.984375 59.550781 99.054688 59.199219 99.210938 59.199219 C 99.273438 59.199219 99.285156 59.03125 99.246094 58.765625 C 99.195312 58.429688 99.21875 58.292969 99.351562 58.164062 C 99.476562 58.035156 99.503906 57.902344 99.453125 57.636719 C 99.378906 57.234375 99.472656 56.671875 99.605469 56.753906 C 99.652344 56.78125 99.683594 56.445312 99.671875 56 C 99.65625 55.488281 99.691406 55.167969 99.761719 55.121094 C 99.886719 55.042969 99.914062 54.164062 99.910156 49.898438 C 99.90625 45.253906 99.898438 44.859375 99.769531 44.78125 C 99.691406 44.730469 99.65625 44.453125 99.671875 43.980469 C 99.683594 43.503906 99.648438 43.230469 99.570312 43.179688 C 99.492188 43.132812 99.457031 42.875 99.472656 42.449219 C 99.484375 42.089844 99.453125 41.816406 99.40625 41.84375 C 99.277344 41.925781 99.210938 41.546875 99.273438 41.085938 C 99.3125 40.808594 99.296875 40.691406 99.226562 40.734375 C 99.082031 40.824219 98.996094 40.425781 99.097656 40.15625 C 99.164062 39.984375 99.136719 39.890625 98.984375 39.761719 C 98.832031 39.628906 98.800781 39.519531 98.855469 39.28125 C 98.898438 39.078125 98.878906 38.949219 98.792969 38.894531 C 98.71875 38.851562 98.671875 38.648438 98.683594 38.402344 C 98.691406 38.148438 98.660156 38.011719 98.597656 38.050781 C 98.539062 38.085938 98.5 37.949219 98.5 37.707031 C 98.5 37.484375 98.453125 37.300781 98.398438 37.300781 C 98.34375 37.300781 98.300781 37.121094 98.300781 36.898438 C 98.300781 36.679688 98.253906 36.5 98.199219 36.5 C 98.144531 36.5 98.101562 36.363281 98.101562 36.199219 C 98.101562 36.035156 98.054688 35.898438 98 35.898438 C 97.945312 35.898438 97.898438 35.742188 97.898438 35.550781 C 97.898438 35.355469 97.847656 35.199219 97.785156 35.199219 C 97.714844 35.199219 97.695312 35.078125 97.730469 34.855469 C 97.777344 34.570312 97.757812 34.523438 97.628906 34.570312 C 97.503906 34.621094 97.480469 34.570312 97.519531 34.316406 C 97.554688 34.085938 97.527344 34 97.421875 34 C 97.316406 34 97.289062 33.914062 97.320312 33.699219 C 97.351562 33.496094 97.324219 33.398438 97.234375 33.398438 C 97.15625 33.398438 97.101562 33.289062 97.101562 33.148438 C 97.101562 33.011719 97.050781 32.898438 96.988281 32.898438 C 96.921875 32.898438 96.898438 32.796875 96.921875 32.65625 C 96.953125 32.503906 96.917969 32.390625 96.835938 32.359375 C 96.761719 32.328125 96.699219 32.238281 96.699219 32.152344 C 96.699219 32.066406 96.660156 31.917969 96.613281 31.824219 C 96.347656 31.304688 96.28125 31.109375 96.34375 31.007812 C 96.382812 30.945312 96.339844 30.898438 96.246094 30.898438 C 96.125 30.898438 96.09375 30.839844 96.128906 30.699219 C 96.160156 30.578125 96.121094 30.464844 96.027344 30.414062 C 95.929688 30.359375 95.890625 30.246094 95.925781 30.117188 C 95.957031 29.988281 95.933594 29.914062 95.863281 29.929688 C 95.800781 29.941406 95.757812 29.859375 95.769531 29.75 C 95.777344 29.640625 95.71875 29.511719 95.636719 29.46875 C 95.523438 29.402344 95.515625 29.351562 95.605469 29.242188 C 95.699219 29.128906 95.691406 29.101562 95.5625 29.101562 C 95.464844 29.101562 95.398438 29.019531 95.398438 28.898438 C 95.398438 28.789062 95.355469 28.699219 95.300781 28.699219 C 95.246094 28.699219 95.199219 28.609375 95.199219 28.5 C 95.199219 28.390625 95.15625 28.300781 95.101562 28.300781 C 95.046875 28.300781 95 28.210938 95 28.101562 C 95 27.988281 94.953125 27.898438 94.898438 27.898438 C 94.84375 27.898438 94.800781 27.808594 94.800781 27.699219 C 94.800781 27.589844 94.765625 27.5 94.726562 27.5 C 94.683594 27.5 94.539062 27.253906 94.398438 26.949219 C 94.261719 26.648438 94.117188 26.402344 94.074219 26.398438 C 94.035156 26.398438 94 26.308594 94 26.199219 C 94 26.089844 93.953125 26 93.898438 26 C 93.84375 26 93.800781 25.910156 93.800781 25.800781 C 93.800781 25.691406 93.75 25.601562 93.6875 25.601562 C 93.621094 25.601562 93.601562 25.492188 93.636719 25.324219 C 93.667969 25.171875 93.667969 25.105469 93.636719 25.175781 C 93.5625 25.347656 93.398438 25.332031 93.398438 25.148438 C 93.398438 25.066406 93.355469 25 93.300781 25 C 93.246094 25 93.199219 24.910156 93.199219 24.800781 C 93.199219 24.691406 93.15625 24.601562 93.101562 24.601562 C 93.046875 24.601562 93 24.539062 93 24.46875 C 93 24.398438 92.910156 24.242188 92.800781 24.121094 C 92.691406 24.003906 92.601562 23.84375 92.601562 23.761719 C 92.601562 23.683594 92.566406 23.601562 92.523438 23.582031 C 92.386719 23.527344 91.976562 22.890625 92.035156 22.832031 C 92.066406 22.800781 91.980469 22.683594 91.84375 22.574219 C 91.703125 22.46875 91.609375 22.328125 91.628906 22.265625 C 91.648438 22.203125 91.558594 22.066406 91.429688 21.964844 C 91.296875 21.863281 91.207031 21.726562 91.226562 21.667969 C 91.246094 21.609375 91.136719 21.433594 90.980469 21.28125 C 90.679688 20.988281 90.621094 20.75 90.824219 20.664062 C 90.894531 20.636719 90.84375 20.621094 90.714844 20.632812 C 90.570312 20.644531 90.433594 20.574219 90.363281 20.453125 C 90.300781 20.347656 90.191406 20.195312 90.125 20.121094 C 89.726562 19.691406 89.484375 19.285156 89.539062 19.144531 C 89.574219 19.050781 89.554688 19.015625 89.492188 19.054688 C 89.292969 19.175781 88.898438 18.695312 88.960938 18.410156 C 88.996094 18.238281 88.984375 18.195312 88.925781 18.277344 C 88.816406 18.429688 87.800781 17.414062 87.800781 17.148438 C 87.800781 17.054688 87.847656 17.015625 87.914062 17.058594 C 87.984375 17.101562 88.003906 17.085938 87.960938 17.019531 C 87.925781 16.957031 87.835938 16.929688 87.765625 16.957031 C 87.558594 17.039062 85.738281 15.101562 85.910156 14.984375 C 86.011719 14.914062 85.988281 14.902344 85.824219 14.949219 C 85.617188 15.007812 85.5 14.871094 85.675781 14.773438 C 85.714844 14.75 85.691406 14.746094 85.617188 14.765625 C 85.445312 14.808594 85.191406 14.554688 85.234375 14.382812 C 85.253906 14.308594 85.25 14.285156 85.226562 14.324219 C 85.128906 14.5 84.992188 14.382812 85.050781 14.175781 C 85.097656 14.011719 85.085938 13.988281 85.015625 14.089844 C 84.9375 14.203125 84.8125 14.132812 84.382812 13.722656 C 83.898438 13.261719 83.382812 12.796875 83.359375 12.800781 C 83.355469 12.800781 83.101562 12.917969 82.800781 13.0625 "/>
<path style=" stroke:none;fill-rule:evenodd;fill:rgb(65.098039%,86.666667%,65.098039%);fill-opacity:1;" d="M 21.699219 8.5 C 21.621094 8.609375 21.496094 8.699219 21.421875 8.699219 C 21.296875 8.699219 20.800781 9.132812 20.800781 9.246094 C 20.800781 9.363281 21.035156 9.289062 21.191406 9.125 C 21.386719 8.914062 21.960938 8.601562 22.148438 8.601562 C 22.320312 8.601562 25.894531 9.769531 26.125 9.902344 C 26.21875 9.957031 26.386719 10 26.492188 10 C 26.601562 10 26.710938 10.035156 26.738281 10.082031 C 26.765625 10.125 27.019531 10.222656 27.300781 10.300781 C 27.582031 10.375 27.835938 10.476562 27.863281 10.519531 C 27.890625 10.5625 28 10.601562 28.105469 10.601562 C 28.214844 10.601562 28.378906 10.640625 28.476562 10.691406 C 28.640625 10.777344 28.867188 10.839844 29.921875 11.105469 C 30.445312 11.238281 32.550781 11.175781 33.523438 11.003906 C 34.890625 10.757812 35.175781 10.703125 35.648438 10.601562 C 37.105469 10.28125 39.027344 9.917969 39.648438 9.847656 C 39.871094 9.820312 40.421875 9.75 40.878906 9.6875 C 41.914062 9.550781 43.882812 9.800781 44.246094 10.117188 C 44.296875 10.164062 44.402344 10.199219 44.476562 10.199219 C 44.652344 10.199219 45.664062 10.886719 46.550781 11.601562 C 47.800781 12.617188 49.023438 13.289062 50.148438 13.582031 C 50.371094 13.636719 50.730469 13.730469 50.949219 13.785156 C 51.171875 13.84375 51.550781 13.917969 51.800781 13.953125 C 56.070312 14.550781 56.710938 15.371094 56.203125 19.601562 C 55.578125 24.796875 55.441406 24.96875 51.148438 25.859375 C 50.710938 25.949219 50.171875 26.0625 49.949219 26.113281 C 49.730469 26.160156 49.347656 26.242188 49.101562 26.296875 C 48.851562 26.347656 48.449219 26.441406 48.199219 26.5 C 47.953125 26.5625 47.625 26.636719 47.472656 26.667969 C 47.320312 26.699219 47.171875 26.761719 47.144531 26.8125 C 47.113281 26.859375 46.976562 26.898438 46.84375 26.898438 C 46.707031 26.898438 46.519531 26.941406 46.421875 26.988281 C 46.328125 27.035156 46.136719 27.121094 46 27.175781 C 45.625 27.324219 44.757812 27.738281 44.699219 27.796875 C 44.632812 27.867188 44.445312 27.972656 43.042969 28.703125 C 39.269531 30.675781 38.003906 32.03125 37.292969 34.851562 C 36.671875 37.328125 35.738281 37.84375 30.351562 38.695312 C 27.78125 39.101562 26.796875 39.492188 26.128906 40.371094 C 25.394531 41.332031 25.96875 43.351562 27.707031 45.910156 C 27.921875 46.230469 28.101562 46.515625 28.101562 46.546875 C 28.101562 46.746094 29.953125 49.363281 30.453125 49.867188 C 31.585938 51.011719 31.996094 51.058594 36.550781 50.59375 C 39.117188 50.332031 39.613281 50.351562 41.199219 50.773438 C 41.503906 50.851562 41.90625 50.957031 42.101562 51.003906 C 42.292969 51.050781 42.628906 51.136719 42.851562 51.203125 C 43.070312 51.265625 43.375 51.339844 43.527344 51.371094 C 43.679688 51.398438 43.828125 51.460938 43.855469 51.511719 C 43.886719 51.558594 44.042969 51.601562 44.199219 51.601562 C 44.359375 51.601562 44.515625 51.644531 44.550781 51.699219 C 44.585938 51.753906 44.699219 51.800781 44.808594 51.800781 C 44.914062 51.800781 45.101562 51.851562 45.226562 51.914062 C 45.695312 52.160156 45.800781 52.199219 45.949219 52.199219 C 46.035156 52.199219 46.203125 52.253906 46.328125 52.316406 C 46.796875 52.558594 46.902344 52.601562 47.050781 52.601562 C 47.132812 52.601562 47.28125 52.640625 47.375 52.691406 C 47.621094 52.820312 48.128906 53.035156 49.050781 53.402344 C 49.953125 53.757812 52.902344 55.21875 53.3125 55.507812 C 53.460938 55.613281 53.609375 55.699219 53.648438 55.699219 C 53.746094 55.699219 54.644531 56.324219 54.683594 56.417969 C 54.703125 56.464844 54.78125 56.5 54.859375 56.5 C 54.9375 56.5 55 56.535156 55 56.578125 C 55 56.621094 55.140625 56.742188 55.316406 56.84375 C 55.828125 57.148438 57.324219 58.707031 57.671875 59.300781 C 58.40625 60.5625 58.433594 61.621094 57.804688 64.5 C 57.707031 64.9375 57.242188 66.332031 57.035156 66.800781 C 56.726562 67.488281 56.359375 68.25 56.304688 68.300781 C 56.253906 68.347656 56.09375 68.613281 55.855469 69.050781 C 55.710938 69.3125 55.371094 69.835938 55.300781 69.898438 C 55.269531 69.925781 55.027344 70.253906 54.765625 70.625 C 54.273438 71.324219 53.5 72.277344 51.316406 74.890625 C 50.089844 76.359375 48.683594 78.707031 48.285156 79.949219 C 48.214844 80.171875 48.125 80.394531 48.078125 80.445312 C 48.035156 80.496094 48 80.664062 48 80.8125 C 48 80.964844 47.960938 81.113281 47.914062 81.140625 C 47.867188 81.171875 47.792969 81.410156 47.757812 81.671875 C 47.230469 85.234375 46.984375 86.347656 46.328125 88.101562 C 44.417969 93.222656 41.394531 93.785156 39.332031 89.398438 C 38.898438 88.472656 38.699219 88 38.699219 87.871094 C 38.699219 87.800781 38.664062 87.695312 38.617188 87.644531 C 38.574219 87.59375 38.433594 87.210938 38.304688 86.800781 C 38.179688 86.386719 38.039062 85.9375 37.992188 85.800781 C 37.875 85.449219 37.347656 83.203125 37.15625 82.25 C 36.75 80.191406 36.46875 78.816406 36.386719 78.476562 C 36.242188 77.859375 36.121094 77.371094 36.011719 77 C 35.957031 76.808594 35.882812 76.539062 35.847656 76.398438 C 35.8125 76.261719 35.75 76.058594 35.707031 75.949219 C 35.664062 75.839844 35.574219 75.570312 35.507812 75.351562 C 35.441406 75.128906 35.339844 74.835938 35.28125 74.699219 C 35.222656 74.5625 35.140625 74.359375 35.097656 74.25 C 34.359375 72.277344 32.867188 70.128906 31.550781 69.148438 C 31.328125 68.984375 31.128906 68.824219 31.101562 68.796875 C 31.074219 68.765625 30.757812 68.539062 30.402344 68.292969 C 26.988281 65.949219 26.273438 64.300781 26 58.148438 C 25.796875 53.589844 25.394531 52.511719 23.03125 50.171875 C 22.117188 49.269531 20.769531 48.199219 20.546875 48.199219 C 20.511719 48.199219 20.289062 48.066406 20.050781 47.898438 C 19.808594 47.734375 19.589844 47.601562 19.5625 47.601562 C 19.367188 47.601562 16.074219 45.40625 15.101562 44.628906 C 13.382812 43.257812 11.503906 41.410156 10.496094 40.101562 C 10.304688 39.851562 10.125 39.628906 10.09375 39.601562 C 10.066406 39.574219 9.933594 39.390625 9.800781 39.199219 C 9.667969 39.007812 9.53125 38.828125 9.496094 38.800781 C 8.933594 38.347656 6.328125 33.632812 5.585938 31.726562 C 5.46875 31.417969 5.320312 31.042969 5.207031 30.773438 C 4.761719 29.707031 4.554688 28.738281 4.753906 28.664062 C 4.832031 28.632812 4.871094 28.539062 4.835938 28.453125 C 4.804688 28.371094 4.828125 28.300781 4.890625 28.300781 C 4.949219 28.300781 5 28.210938 5 28.101562 C 5 27.988281 5.046875 27.898438 5.101562 27.898438 C 5.15625 27.898438 5.199219 27.808594 5.199219 27.699219 C 5.199219 27.589844 5.238281 27.5 5.28125 27.5 C 5.324219 27.5 5.425781 27.34375 5.5 27.148438 C 5.574219 26.957031 5.675781 26.800781 5.71875 26.800781 C 5.761719 26.800781 5.800781 26.710938 5.800781 26.601562 C 5.800781 26.488281 5.84375 26.398438 5.898438 26.398438 C 5.953125 26.398438 6 26.308594 6 26.199219 C 6 26.089844 6.046875 26 6.101562 26 C 6.15625 26 6.199219 25.933594 6.199219 25.851562 C 6.199219 25.765625 6.246094 25.699219 6.300781 25.699219 C 6.355469 25.699219 6.398438 25.632812 6.398438 25.550781 C 6.398438 25.46875 6.445312 25.398438 6.5 25.398438 C 6.554688 25.398438 6.601562 25.308594 6.601562 25.199219 C 6.601562 25.089844 6.644531 25 6.699219 25 C 6.753906 25 6.800781 24.929688 6.800781 24.847656 C 6.800781 24.761719 6.890625 24.59375 7 24.476562 C 7.109375 24.359375 7.199219 24.203125 7.199219 24.132812 C 7.199219 24.058594 7.246094 24 7.300781 24 C 7.355469 24 7.398438 23.941406 7.398438 23.867188 C 7.398438 23.796875 7.488281 23.640625 7.597656 23.523438 C 7.710938 23.40625 7.773438 23.242188 7.738281 23.15625 C 7.703125 23.0625 7.734375 22.996094 7.8125 22.996094 C 7.945312 22.992188 8.898438 21.617188 8.898438 21.433594 C 8.898438 21.386719 8.988281 21.277344 9.101562 21.199219 C 9.210938 21.121094 9.300781 21.003906 9.300781 20.941406 C 9.300781 20.878906 9.433594 20.6875 9.601562 20.515625 C 9.765625 20.34375 9.898438 20.164062 9.898438 20.117188 C 9.898438 20.070312 10.035156 19.886719 10.199219 19.714844 C 10.363281 19.542969 10.5 19.351562 10.5 19.292969 C 10.5 19.234375 10.671875 19.019531 10.878906 18.816406 C 11.085938 18.617188 11.367188 18.292969 11.5 18.101562 C 11.632812 17.90625 11.859375 17.636719 12.003906 17.5 C 12.148438 17.363281 12.304688 17.175781 12.355469 17.082031 C 12.566406 16.703125 16.449219 12.867188 17.546875 11.949219 C 17.8125 11.730469 18.085938 11.492188 18.15625 11.425781 C 18.226562 11.355469 18.316406 11.300781 18.351562 11.300781 C 18.527344 11.300781 18.722656 10.984375 18.613281 10.875 C 18.527344 10.789062 18.5 10.789062 18.5 10.875 C 18.5 10.933594 18.414062 11.011719 18.3125 11.046875 C 18.210938 11.078125 17.871094 11.351562 17.558594 11.652344 C 17.25 11.953125 16.953125 12.199219 16.898438 12.199219 C 16.847656 12.199219 16.308594 12.707031 15.703125 13.324219 C 15.097656 13.945312 14.566406 14.484375 14.527344 14.523438 C 12.886719 16.125 12.398438 16.621094 12.398438 16.699219 C 12.398438 16.753906 12.109375 17.097656 11.75 17.46875 C 11.390625 17.839844 11.101562 18.175781 11.101562 18.214844 C 11.101562 18.253906 11.042969 18.34375 10.972656 18.417969 C 10.902344 18.492188 10.710938 18.730469 10.546875 18.949219 C 10.386719 19.171875 10.171875 19.421875 10.074219 19.511719 C 9.980469 19.601562 9.898438 19.722656 9.898438 19.785156 C 9.898438 19.847656 9.855469 19.898438 9.800781 19.898438 C 9.746094 19.898438 9.699219 19.957031 9.699219 20.027344 C 9.699219 20.097656 9.609375 20.222656 9.5 20.300781 C 9.390625 20.378906 9.300781 20.492188 9.300781 20.546875 C 9.300781 20.605469 9.164062 20.808594 9 21 C 8.835938 21.191406 8.699219 21.394531 8.699219 21.453125 C 8.699219 21.507812 8.609375 21.621094 8.5 21.699219 C 8.390625 21.777344 8.300781 21.914062 8.300781 22 C 8.300781 22.085938 8.210938 22.222656 8.101562 22.300781 C 7.988281 22.378906 7.898438 22.515625 7.898438 22.601562 C 7.898438 22.6875 7.8125 22.820312 7.707031 22.894531 C 7.597656 22.972656 7.53125 23.066406 7.554688 23.105469 C 7.578125 23.144531 7.53125 23.234375 7.449219 23.300781 C 7.367188 23.367188 7.300781 23.480469 7.300781 23.550781 C 7.300781 23.617188 7.234375 23.730469 7.152344 23.796875 C 7.070312 23.867188 6.902344 24.128906 6.777344 24.386719 C 6.652344 24.640625 6.527344 24.871094 6.5 24.898438 C 6.378906 25.019531 6.199219 25.410156 6.199219 25.546875 C 6.199219 25.632812 6.160156 25.699219 6.113281 25.699219 C 6.0625 25.699219 6 25.777344 5.96875 25.875 C 5.894531 26.109375 5.570312 26.640625 5.476562 26.683594 C 5.433594 26.703125 5.398438 26.804688 5.398438 26.910156 C 5.398438 27.015625 5.355469 27.101562 5.300781 27.101562 C 5.246094 27.101562 5.199219 27.191406 5.199219 27.300781 C 5.199219 27.410156 5.15625 27.5 5.101562 27.5 C 5.046875 27.5 5 27.589844 5 27.699219 C 5 27.808594 4.953125 27.898438 4.898438 27.898438 C 4.84375 27.898438 4.800781 27.988281 4.800781 28.101562 C 4.800781 28.210938 4.753906 28.300781 4.699219 28.300781 C 4.644531 28.300781 4.601562 28.386719 4.601562 28.492188 C 4.601562 28.601562 4.554688 28.714844 4.5 28.75 C 4.375 28.828125 4.371094 29.226562 4.492188 29.355469 C 4.542969 29.40625 4.773438 29.96875 5.003906 30.601562 C 5.488281 31.921875 5.699219 32.40625 6.480469 34 C 9.390625 39.941406 13.285156 44.078125 19.285156 47.601562 C 21.332031 48.804688 21.828125 49.164062 22.929688 50.253906 C 25.210938 52.511719 25.703125 53.8125 25.84375 57.949219 C 25.984375 62.046875 26.476562 64.277344 27.609375 65.964844 C 28.191406 66.824219 28.855469 67.402344 30.949219 68.851562 C 32.253906 69.75 33.535156 71.273438 34.335938 72.867188 C 35.074219 74.335938 35.960938 77.046875 36.40625 79.199219 C 36.632812 80.304688 36.6875 80.5625 36.796875 81.148438 C 39.027344 92.996094 43.179688 96.109375 46.402344 88.351562 C 46.597656 87.886719 47.015625 86.507812 47.1875 85.773438 C 47.40625 84.847656 47.484375 84.441406 47.597656 83.699219 C 47.976562 81.148438 48.183594 80.375 48.902344 78.824219 C 49.445312 77.660156 51.015625 75.328125 51.828125 74.484375 C 51.929688 74.375 54.101562 71.746094 54.542969 71.191406 C 54.699219 71 55.507812 69.839844 55.648438 69.613281 C 55.703125 69.523438 55.824219 69.339844 55.914062 69.199219 C 56.878906 67.714844 57.808594 65.40625 58.097656 63.75 C 58.164062 63.363281 58.261719 62.835938 58.308594 62.570312 C 58.890625 59.464844 56.886719 57.09375 51.328125 54.308594 C 50.441406 53.863281 49.6875 53.5 49.65625 53.5 C 49.625 53.5 49.382812 53.40625 49.125 53.289062 C 48.863281 53.175781 48.558594 53.046875 48.449219 53.003906 C 48.179688 52.898438 47.804688 52.75 47.5 52.621094 C 44.136719 51.222656 39.632812 50.105469 38.101562 50.292969 C 31.027344 51.152344 31.050781 51.164062 28.097656 46.300781 C 27.914062 45.996094 27.558594 45.414062 27.304688 45 C 25.238281 41.636719 25.546875 39.929688 28.351562 39.222656 C 29.285156 38.984375 29.71875 38.898438 30 38.898438 C 30.164062 38.898438 30.488281 38.855469 30.722656 38.804688 C 30.957031 38.753906 31.464844 38.660156 31.851562 38.597656 C 33.679688 38.308594 34.269531 38.148438 35.328125 37.664062 C 36.46875 37.140625 37.046875 36.390625 37.398438 34.976562 C 37.765625 33.484375 38.296875 32.441406 39.167969 31.503906 C 40.117188 30.480469 40.613281 30.148438 43.296875 28.722656 C 43.875 28.417969 44.550781 28.046875 44.796875 27.902344 C 45.289062 27.617188 46.585938 27.097656 47.300781 26.898438 C 47.546875 26.832031 47.863281 26.742188 48 26.699219 C 48.246094 26.625 48.863281 26.488281 49.851562 26.285156 C 50.125 26.226562 50.507812 26.144531 50.699219 26.101562 C 50.890625 26.054688 51.296875 25.96875 51.601562 25.902344 C 53.8125 25.445312 54.328125 25.253906 54.910156 24.671875 C 55.570312 24.003906 55.941406 22.914062 56.199219 20.851562 C 56.257812 20.355469 56.351562 19.648438 56.40625 19.28125 C 56.914062 15.699219 56 14.472656 52.398438 13.902344 C 49.679688 13.472656 48.503906 12.980469 46.625 11.480469 C 43.929688 9.328125 42.433594 9.09375 37.601562 10.070312 C 31.070312 11.390625 30.964844 11.390625 27.601562 10.242188 C 26.859375 9.988281 25.371094 9.488281 24.300781 9.132812 C 23.226562 8.777344 22.308594 8.441406 22.253906 8.390625 C 22.097656 8.238281 21.851562 8.289062 21.699219 8.5 M 20.300781 9.5 C 20.222656 9.609375 20.097656 9.699219 20.027344 9.699219 C 19.957031 9.699219 19.898438 9.746094 19.898438 9.800781 C 19.898438 9.855469 19.851562 9.898438 19.796875 9.898438 C 19.628906 9.898438 19.191406 10.382812 19.296875 10.449219 C 19.351562 10.480469 19.535156 10.371094 19.710938 10.203125 C 19.886719 10.035156 20.070312 9.898438 20.121094 9.898438 C 20.214844 9.898438 20.699219 9.445312 20.699219 9.355469 C 20.699219 9.222656 20.429688 9.320312 20.300781 9.5 M 18.796875 10.652344 C 18.625 10.859375 18.753906 10.960938 18.945312 10.769531 C 19.03125 10.683594 19.101562 10.589844 19.101562 10.558594 C 19.101562 10.445312 18.921875 10.503906 18.796875 10.652344 M 83.007812 12.78125 C 82.875 12.875 82.472656 13.070312 82.109375 13.21875 C 81.441406 13.492188 81.359375 13.605469 82 13.367188 C 82.636719 13.132812 83.199219 12.855469 83.199219 12.777344 C 83.199219 12.613281 83.503906 12.714844 83.75 12.960938 C 84.085938 13.292969 84.164062 13.226562 83.859375 12.871094 C 83.59375 12.5625 83.355469 12.535156 83.007812 12.78125 M 80.550781 13.765625 C 73.460938 16.292969 71.847656 17.523438 71.246094 20.851562 C 70.917969 22.652344 71.398438 26.621094 72.015625 27.191406 C 72.445312 27.59375 74.550781 27.71875 77.234375 27.5 C 80.460938 27.238281 81.105469 27.183594 81.820312 27.089844 C 85.980469 26.554688 87.941406 27.503906 87.9375 30.050781 C 87.933594 31.789062 86.984375 33.714844 85.90625 34.179688 C 84.578125 34.746094 74.589844 34.210938 71.800781 33.425781 C 70.253906 32.988281 69.265625 33.410156 68.050781 35.015625 C 67.234375 36.09375 67.140625 36.394531 67.351562 37.246094 C 67.675781 38.550781 67.183594 39.96875 65.589844 42.3125 C 65.375 42.628906 65.199219 42.917969 65.199219 42.953125 C 65.199219 42.988281 65.117188 43.136719 65.011719 43.285156 C 62.410156 46.984375 63.15625 50.40625 67.226562 53.460938 C 68.132812 54.140625 68.363281 54.253906 69.300781 54.511719 C 70.464844 54.828125 73.113281 55.089844 75.199219 55.097656 C 79.324219 55.113281 80.902344 56.410156 81.652344 60.398438 C 81.835938 61.363281 81.921875 62.65625 82.015625 65.898438 C 82.230469 73.183594 82.195312 74.222656 81.613281 76.851562 C 81.191406 78.742188 81.179688 78.839844 81.300781 79.25 C 81.585938 80.191406 82.140625 80.679688 83.414062 81.097656 C 84.046875 81.304688 85.90625 81.390625 86.167969 81.222656 C 86.230469 81.183594 85.777344 81.164062 85.160156 81.183594 C 83.839844 81.226562 82.710938 80.878906 82.035156 80.222656 C 81.335938 79.542969 81.28125 79.015625 81.710938 77.101562 C 81.828125 76.5625 81.957031 75.882812 82.109375 75 C 82.273438 74.039062 82.359375 71.433594 82.277344 69.949219 C 82.238281 69.234375 82.160156 67.097656 82.105469 65.199219 C 81.898438 57.898438 80.949219 55.84375 77.449219 55.109375 C 77.175781 55.050781 75.734375 54.957031 74.25 54.894531 C 69.980469 54.722656 68.746094 54.449219 67.300781 53.359375 C 66.328125 52.625 65.253906 51.613281 64.902344 51.101562 C 64.769531 50.90625 64.636719 50.726562 64.605469 50.699219 C 64.574219 50.671875 64.488281 50.542969 64.414062 50.410156 C 64.339844 50.28125 64.195312 50.019531 64.089844 49.832031 C 63.984375 49.648438 63.898438 49.414062 63.898438 49.316406 C 63.898438 49.21875 63.847656 49.085938 63.78125 49.023438 C 63.707031 48.945312 63.660156 48.5 63.65625 47.777344 C 63.652344 46.75 63.722656 46.28125 64 45.550781 C 64.175781 45.082031 65.054688 43.371094 65.230469 43.152344 C 65.429688 42.902344 66.644531 40.894531 66.894531 40.398438 C 67.597656 39.015625 67.691406 38.398438 67.445312 36.816406 C 67.289062 35.8125 69.03125 33.746094 70.328125 33.394531 C 70.632812 33.308594 70.898438 33.335938 71.726562 33.535156 C 74.148438 34.117188 75.914062 34.300781 81.570312 34.5625 C 83.242188 34.636719 85.667969 34.46875 86.109375 34.246094 C 87.089844 33.742188 87.992188 31.910156 88.078125 30.246094 C 88.160156 28.585938 87.519531 27.652344 85.851562 27 C 85.535156 26.878906 84.113281 26.679688 84.007812 26.746094 C 83.957031 26.777344 83.316406 26.851562 82.582031 26.910156 C 81.847656 26.96875 80.777344 27.058594 80.199219 27.109375 C 74.828125 27.570312 73.082031 27.585938 72.230469 27.179688 C 72.003906 27.070312 71.8125 26.574219 71.621094 25.601562 C 71.5625 25.296875 71.464844 24.808594 71.40625 24.515625 C 71.269531 23.824219 71.269531 21.089844 71.40625 20.5625 C 71.664062 19.582031 71.757812 19.320312 72.035156 18.800781 C 72.679688 17.59375 74.109375 16.539062 76.628906 15.40625 C 77 15.238281 77.347656 15.101562 77.402344 15.101562 C 77.457031 15.101562 77.582031 15.058594 77.675781 15.011719 C 77.773438 14.964844 77.984375 14.867188 78.148438 14.800781 C 78.316406 14.730469 78.527344 14.636719 78.625 14.589844 C 78.71875 14.539062 78.875 14.5 78.972656 14.496094 C 79.070312 14.496094 79.230469 14.433594 79.332031 14.355469 C 79.429688 14.28125 79.902344 14.097656 80.378906 13.945312 C 80.859375 13.792969 81.292969 13.628906 81.34375 13.582031 C 81.496094 13.453125 81.3125 13.492188 80.550781 13.765625 M 86.699219 15.828125 C 86.699219 15.921875 87.707031 16.925781 87.753906 16.878906 C 87.777344 16.855469 87.652344 16.683594 87.472656 16.492188 C 87.070312 16.066406 86.699219 15.75 86.699219 15.828125 M 88.398438 17.757812 C 88.398438 17.863281 88.710938 18.125 88.765625 18.066406 C 88.796875 18.035156 88.753906 17.941406 88.667969 17.855469 C 88.511719 17.695312 88.398438 17.65625 88.398438 17.757812 M 89.898438 19.65625 C 89.898438 19.761719 90.210938 20.023438 90.265625 19.964844 C 90.296875 19.933594 90.253906 19.839844 90.167969 19.753906 C 90.011719 19.597656 89.898438 19.554688 89.898438 19.65625 M 91 21.066406 C 91.003906 21.222656 91.1875 21.445312 91.257812 21.375 C 91.292969 21.339844 91.25 21.238281 91.160156 21.148438 C 91.074219 21.058594 91 21.023438 91 21.066406 M 92.625 23.601562 C 92.691406 23.710938 92.78125 23.800781 92.824219 23.800781 C 92.867188 23.800781 92.84375 23.710938 92.777344 23.601562 C 92.707031 23.488281 92.617188 23.398438 92.574219 23.398438 C 92.53125 23.398438 92.554688 23.488281 92.625 23.601562 M 93.800781 25.753906 C 93.800781 25.785156 93.890625 25.90625 94 26.023438 C 94.222656 26.261719 94.269531 26.148438 94.0625 25.875 C 93.933594 25.707031 93.800781 25.644531 93.800781 25.753906 M 97.359375 33.585938 C 97.324219 33.640625 97.34375 33.714844 97.40625 33.753906 C 97.558594 33.847656 97.65625 33.71875 97.53125 33.589844 C 97.457031 33.519531 97.402344 33.515625 97.359375 33.585938 M 97.699219 34.851562 C 97.699219 34.933594 97.746094 35 97.800781 35 C 97.855469 35 97.898438 34.933594 97.898438 34.851562 C 97.898438 34.765625 97.855469 34.699219 97.800781 34.699219 C 97.746094 34.699219 97.699219 34.765625 97.699219 34.851562 M 97.898438 35.5 C 97.898438 35.609375 97.945312 35.699219 98 35.699219 C 98.054688 35.699219 98.101562 35.609375 98.101562 35.5 C 98.101562 35.390625 98.054688 35.300781 98 35.300781 C 97.945312 35.300781 97.898438 35.390625 97.898438 35.5 M 98.101562 36.148438 C 98.101562 36.234375 98.144531 36.300781 98.199219 36.300781 C 98.253906 36.300781 98.300781 36.234375 98.300781 36.148438 C 98.300781 36.066406 98.253906 36 98.199219 36 C 98.144531 36 98.101562 36.066406 98.101562 36.148438 M 98.300781 36.792969 C 98.300781 36.90625 98.34375 37 98.398438 37 C 98.453125 37 98.5 36.933594 98.5 36.855469 C 98.5 36.777344 98.453125 36.683594 98.398438 36.648438 C 98.34375 36.617188 98.300781 36.679688 98.300781 36.792969 M 98.5 37.605469 C 98.5 37.71875 98.546875 37.785156 98.601562 37.75 C 98.65625 37.714844 98.699219 37.625 98.699219 37.542969 C 98.699219 37.464844 98.65625 37.398438 98.601562 37.398438 C 98.546875 37.398438 98.5 37.492188 98.5 37.605469 M 98.699219 38.398438 C 98.699219 38.511719 98.746094 38.601562 98.800781 38.601562 C 98.855469 38.601562 98.898438 38.511719 98.898438 38.398438 C 98.898438 38.289062 98.855469 38.199219 98.800781 38.199219 C 98.746094 38.199219 98.699219 38.289062 98.699219 38.398438 M 98.898438 39.300781 C 98.898438 39.488281 98.925781 39.511719 99.019531 39.421875 C 99.113281 39.328125 99.113281 39.273438 99.019531 39.179688 C 98.925781 39.085938 98.898438 39.113281 98.898438 39.300781 M 99.101562 40.199219 C 99.101562 40.308594 99.144531 40.398438 99.199219 40.398438 C 99.253906 40.398438 99.300781 40.308594 99.300781 40.199219 C 99.300781 40.089844 99.253906 40 99.199219 40 C 99.144531 40 99.101562 40.089844 99.101562 40.199219 M 99.300781 41.242188 C 99.300781 41.382812 99.34375 41.5 99.398438 41.5 C 99.453125 41.5 99.5 41.414062 99.5 41.304688 C 99.5 41.199219 99.453125 41.085938 99.398438 41.050781 C 99.34375 41.015625 99.300781 41.097656 99.300781 41.242188 M 99.5 42.492188 C 99.5 42.601562 99.546875 42.714844 99.601562 42.75 C 99.65625 42.785156 99.699219 42.699219 99.699219 42.554688 C 99.699219 42.414062 99.65625 42.300781 99.601562 42.300781 C 99.546875 42.300781 99.5 42.386719 99.5 42.492188 M 99.699219 43.945312 C 99.699219 44.078125 99.746094 44.214844 99.800781 44.25 C 99.859375 44.285156 99.898438 44.183594 99.898438 44.007812 C 99.898438 43.835938 99.855469 43.699219 99.800781 43.699219 C 99.746094 43.699219 99.699219 43.808594 99.699219 43.945312 M 99.929688 45.898438 C 99.929688 46.203125 99.949219 46.328125 99.972656 46.175781 C 99.996094 46.023438 99.996094 45.777344 99.972656 45.625 C 99.949219 45.472656 99.929688 45.597656 99.929688 45.898438 M 99.929688 54.050781 C 99.929688 54.378906 99.949219 54.503906 99.972656 54.324219 C 99.996094 54.144531 99.996094 53.875 99.972656 53.722656 C 99.949219 53.574219 99.929688 53.71875 99.929688 54.050781 M 99.699219 56 C 99.699219 56.164062 99.746094 56.300781 99.800781 56.300781 C 99.855469 56.300781 99.898438 56.164062 99.898438 56 C 99.898438 55.835938 99.855469 55.699219 99.800781 55.699219 C 99.746094 55.699219 99.699219 55.835938 99.699219 56 M 99.5 57.449219 C 99.5 57.585938 99.546875 57.699219 99.601562 57.699219 C 99.65625 57.699219 99.699219 57.585938 99.699219 57.449219 C 99.699219 57.3125 99.65625 57.199219 99.601562 57.199219 C 99.546875 57.199219 99.5 57.3125 99.5 57.449219 M 99.300781 58.644531 C 99.300781 58.785156 99.34375 58.898438 99.398438 58.898438 C 99.453125 58.898438 99.5 58.8125 99.5 58.707031 C 99.5 58.597656 99.453125 58.484375 99.398438 58.449219 C 99.34375 58.414062 99.300781 58.5 99.300781 58.644531 M 99.167969 59.566406 C 99.0625 59.671875 99.089844 60 99.199219 60 C 99.253906 60 99.300781 59.886719 99.300781 59.75 C 99.300781 59.488281 99.277344 59.457031 99.167969 59.566406 M 98.898438 60.648438 C 98.898438 60.734375 98.945312 60.800781 99 60.800781 C 99.054688 60.800781 99.101562 60.734375 99.101562 60.648438 C 99.101562 60.566406 99.054688 60.5 99 60.5 C 98.945312 60.5 98.898438 60.566406 98.898438 60.648438 M 98.699219 61.601562 C 98.699219 61.710938 98.746094 61.800781 98.800781 61.800781 C 98.855469 61.800781 98.898438 61.710938 98.898438 61.601562 C 98.898438 61.488281 98.855469 61.398438 98.800781 61.398438 C 98.746094 61.398438 98.699219 61.488281 98.699219 61.601562 M 98.5 62.398438 C 98.5 62.511719 98.546875 62.601562 98.601562 62.601562 C 98.65625 62.601562 98.699219 62.511719 98.699219 62.398438 C 98.699219 62.289062 98.65625 62.199219 98.601562 62.199219 C 98.546875 62.199219 98.5 62.289062 98.5 62.398438 M 98.300781 63.15625 C 98.300781 63.300781 98.34375 63.386719 98.398438 63.351562 C 98.453125 63.316406 98.5 63.199219 98.5 63.09375 C 98.5 62.988281 98.453125 62.898438 98.398438 62.898438 C 98.34375 62.898438 98.300781 63.015625 98.300781 63.15625 M 98.101562 63.851562 C 98.101562 63.933594 98.144531 64 98.199219 64 C 98.253906 64 98.300781 63.933594 98.300781 63.851562 C 98.300781 63.765625 98.253906 63.699219 98.199219 63.699219 C 98.144531 63.699219 98.101562 63.765625 98.101562 63.851562 M 97.898438 64.5 C 97.898438 64.609375 97.945312 64.699219 98 64.699219 C 98.054688 64.699219 98.101562 64.609375 98.101562 64.5 C 98.101562 64.390625 98.054688 64.300781 98 64.300781 C 97.945312 64.300781 97.898438 64.390625 97.898438 64.5 M 97.753906 65.027344 C 97.710938 65.128906 97.703125 65.238281 97.738281 65.269531 C 97.839844 65.371094 97.921875 65.230469 97.875 65.03125 C 97.832031 64.859375 97.828125 64.859375 97.753906 65.027344 M 97.34375 66.207031 C 97.308594 66.269531 97.320312 66.363281 97.375 66.414062 C 97.441406 66.480469 97.492188 66.460938 97.53125 66.359375 C 97.601562 66.175781 97.445312 66.046875 97.34375 66.207031 M 96.601562 68.449219 C 96.601562 68.53125 96.644531 68.601562 96.699219 68.601562 C 96.753906 68.601562 96.800781 68.53125 96.800781 68.449219 C 96.800781 68.367188 96.753906 68.300781 96.699219 68.300781 C 96.644531 68.300781 96.601562 68.367188 96.601562 68.449219 M 94.117188 73.65625 C 94.046875 73.738281 94.007812 73.882812 94.03125 73.976562 C 94.070312 74.121094 94.089844 74.113281 94.152344 73.925781 C 94.191406 73.800781 94.261719 73.699219 94.3125 73.699219 C 94.359375 73.699219 94.398438 73.65625 94.398438 73.601562 C 94.398438 73.457031 94.273438 73.484375 94.117188 73.65625 M 92.613281 76.390625 C 92.539062 76.4375 92.496094 76.539062 92.519531 76.613281 C 92.554688 76.707031 92.601562 76.679688 92.6875 76.523438 C 92.820312 76.277344 92.8125 76.261719 92.613281 76.390625 M 91.425781 78.148438 C 91.238281 78.359375 91.273438 78.417969 91.5 78.277344 C 91.609375 78.207031 91.699219 78.117188 91.699219 78.074219 C 91.699219 77.957031 91.5625 77.992188 91.425781 78.148438 M 90.339844 79.3125 L 90.148438 79.527344 L 90.476562 79.359375 C 90.820312 79.183594 90.882812 79.101562 90.664062 79.101562 C 90.589844 79.101562 90.445312 79.195312 90.339844 79.3125 M 89.796875 79.703125 C 89.660156 79.808594 89.59375 79.894531 89.648438 79.894531 C 89.78125 79.894531 90.148438 79.613281 90.089844 79.558594 C 90.066406 79.535156 89.933594 79.597656 89.796875 79.703125 M 89.167969 80.0625 C 89.011719 80.148438 88.902344 80.234375 88.921875 80.257812 C 88.984375 80.316406 89.5 80.0625 89.5 79.976562 C 89.5 79.878906 89.503906 79.878906 89.167969 80.0625 M 88.15625 80.554688 C 87.832031 80.691406 87.496094 80.804688 87.40625 80.808594 C 87.296875 80.8125 87.289062 80.832031 87.378906 80.867188 C 87.507812 80.917969 88.5625 80.546875 88.746094 80.382812 C 88.882812 80.261719 88.816406 80.28125 88.15625 80.554688 M 86.699219 81 L 86.351562 81.074219 L 86.71875 81.085938 C 86.921875 81.09375 87.117188 81.054688 87.148438 81 C 87.21875 80.890625 87.214844 80.890625 86.699219 81 "/>
<path style=" stroke:none;fill-rule:evenodd;fill:rgb(39.215686%,70.588235%,98.431373%);fill-opacity:1;" d="M 47.898438 0.101562 C 48.039062 0.144531 48.328125 0.183594 48.550781 0.1875 C 49.234375 0.207031 52.074219 0.605469 53.699219 0.914062 C 54.226562 1.011719 55.039062 1.195312 56.53125 1.550781 C 57.632812 1.8125 59.773438 2.457031 60.851562 2.851562 C 61.398438 3.050781 62.097656 3.308594 62.398438 3.417969 C 62.703125 3.527344 63.152344 3.710938 63.398438 3.820312 C 63.875 4.035156 64.234375 4.191406 65.300781 4.660156 C 69.21875 6.371094 74.5625 9.9375 78.003906 13.136719 C 78.308594 13.417969 78.703125 13.78125 78.878906 13.945312 L 79.199219 14.238281 L 79.875 14.011719 C 82.945312 12.988281 83.738281 12.535156 83.074219 12.191406 C 82.953125 12.125 82.710938 11.921875 82.539062 11.738281 C 82.367188 11.554688 82.199219 11.433594 82.164062 11.46875 C 82.128906 11.503906 82.101562 11.464844 82.101562 11.382812 C 82.101562 11.300781 81.976562 11.171875 81.824219 11.09375 C 81.671875 11.015625 81.449219 10.859375 81.328125 10.75 C 80.945312 10.398438 80.808594 10.300781 80.726562 10.300781 C 80.679688 10.300781 80.578125 10.210938 80.5 10.101562 C 80.421875 9.988281 80.265625 9.898438 80.152344 9.898438 C 79.984375 9.898438 79.976562 9.878906 80.101562 9.800781 C 80.226562 9.71875 80.222656 9.703125 80.074219 9.703125 C 79.976562 9.699219 79.757812 9.566406 79.585938 9.398438 C 79.410156 9.234375 79.21875 9.101562 79.15625 9.101562 C 79.09375 9.101562 78.980469 9.011719 78.898438 8.898438 C 78.820312 8.789062 78.6875 8.699219 78.601562 8.699219 C 78.515625 8.699219 78.378906 8.609375 78.300781 8.5 C 78.222656 8.390625 78.085938 8.300781 78 8.300781 C 77.914062 8.300781 77.777344 8.210938 77.699219 8.101562 C 77.621094 7.988281 77.492188 7.898438 77.414062 7.898438 C 77.335938 7.898438 77.199219 7.820312 77.113281 7.71875 C 77.023438 7.621094 76.734375 7.441406 76.476562 7.320312 C 76.214844 7.199219 76 7.050781 76 6.988281 C 76 6.929688 75.933594 6.90625 75.851562 6.9375 C 75.765625 6.96875 75.699219 6.9375 75.699219 6.871094 C 75.699219 6.75 75.476562 6.621094 74.75 6.324219 C 74.53125 6.234375 74.261719 6.078125 74.15625 5.980469 C 74.050781 5.878906 73.902344 5.800781 73.832031 5.800781 C 73.757812 5.800781 73.699219 5.753906 73.699219 5.699219 C 73.699219 5.644531 73.554688 5.597656 73.375 5.597656 C 73.128906 5.597656 73.085938 5.574219 73.199219 5.5 C 73.320312 5.421875 73.308594 5.402344 73.125 5.402344 C 73 5.402344 72.898438 5.367188 72.898438 5.324219 C 72.894531 5.285156 72.648438 5.136719 72.347656 5 C 72.046875 4.863281 71.800781 4.71875 71.800781 4.675781 C 71.800781 4.632812 71.730469 4.601562 71.648438 4.601562 C 71.5 4.601562 71.394531 4.558594 70.925781 4.316406 C 70.804688 4.253906 70.632812 4.199219 70.550781 4.199219 C 70.46875 4.199219 70.398438 4.15625 70.398438 4.101562 C 70.398438 4.046875 70.285156 4 70.144531 4 C 70 4 69.914062 3.957031 69.949219 3.898438 C 69.984375 3.84375 69.898438 3.800781 69.75 3.800781 C 69.605469 3.800781 69.511719 3.765625 69.535156 3.722656 C 69.5625 3.679688 69.46875 3.632812 69.324219 3.621094 C 69.179688 3.609375 69.03125 3.550781 68.996094 3.492188 C 68.957031 3.429688 68.898438 3.386719 68.863281 3.390625 C 68.609375 3.425781 68.496094 3.386719 68.558594 3.285156 C 68.597656 3.222656 68.589844 3.195312 68.535156 3.226562 C 68.453125 3.28125 68.050781 3.140625 67.578125 2.890625 C 67.480469 2.839844 67.3125 2.800781 67.203125 2.800781 C 67.089844 2.800781 67 2.753906 67 2.699219 C 67 2.644531 66.890625 2.601562 66.757812 2.601562 C 66.621094 2.601562 66.480469 2.550781 66.445312 2.492188 C 66.40625 2.429688 66.277344 2.398438 66.15625 2.421875 C 66.039062 2.445312 65.886719 2.40625 65.820312 2.335938 C 65.753906 2.265625 65.472656 2.175781 65.199219 2.140625 C 64.925781 2.105469 64.699219 2.035156 64.699219 1.988281 C 64.699219 1.9375 64.546875 1.898438 64.355469 1.898438 C 64.167969 1.898438 63.984375 1.855469 63.949219 1.800781 C 63.914062 1.746094 63.78125 1.699219 63.648438 1.699219 C 63.519531 1.699219 63.382812 1.65625 63.351562 1.601562 C 63.316406 1.546875 63.132812 1.5 62.945312 1.5 C 62.753906 1.5 62.601562 1.453125 62.601562 1.398438 C 62.601562 1.34375 62.421875 1.300781 62.199219 1.300781 C 61.980469 1.300781 61.800781 1.253906 61.800781 1.199219 C 61.800781 1.144531 61.621094 1.101562 61.40625 1.101562 C 61.1875 1.101562 60.988281 1.0625 60.960938 1.015625 C 60.933594 0.972656 60.71875 0.925781 60.484375 0.917969 C 60.253906 0.90625 60.035156 0.863281 60.007812 0.820312 C 59.976562 0.777344 59.746094 0.726562 59.5 0.710938 C 59.253906 0.695312 59.035156 0.640625 59.015625 0.589844 C 59 0.542969 58.71875 0.5 58.398438 0.5 C 58.074219 0.5 57.785156 0.453125 57.75 0.398438 C 57.714844 0.34375 57.351562 0.300781 56.9375 0.300781 C 56.527344 0.300781 56.210938 0.261719 56.242188 0.214844 C 56.269531 0.167969 55.722656 0.101562 55.023438 0.0664062 C 53.246094 -0.0234375 47.59375 0.00390625 47.898438 0.101562 M 2.402344 66.058594 C 2.402344 66.164062 2.449219 66.316406 2.503906 66.398438 C 2.578125 66.507812 2.589844 66.46875 2.539062 66.25 C 2.457031 65.882812 2.398438 65.800781 2.402344 66.058594 M 90.039062 79.648438 C 89.878906 79.789062 89.699219 79.898438 89.632812 79.898438 C 89.570312 79.898438 89.5 79.9375 89.484375 79.980469 C 89.441406 80.082031 88.269531 80.636719 87.75 80.800781 C 87.53125 80.871094 87.261719 80.964844 87.148438 81.007812 C 86.589844 81.230469 84.25 81.371094 83.789062 81.210938 C 83.398438 81.074219 83.320312 81.121094 82.851562 81.730469 C 78.871094 86.890625 71.476562 92.609375 65.199219 95.378906 C 64.691406 95.601562 63.945312 95.933594 63.351562 96.203125 C 62.449219 96.605469 59.058594 97.777344 57.851562 98.101562 C 55.269531 98.792969 53.464844 99.171875 51.25 99.488281 C 49.726562 99.707031 48.933594 99.800781 48.550781 99.808594 C 48.328125 99.8125 48.058594 99.855469 47.949219 99.90625 C 47.824219 99.964844 49.25 99.980469 51.75 99.949219 C 53.949219 99.921875 55.875 99.898438 56.023438 99.902344 C 56.175781 99.902344 56.300781 99.859375 56.300781 99.800781 C 56.300781 99.742188 56.589844 99.699219 56.992188 99.699219 C 57.375 99.699219 57.714844 99.65625 57.75 99.601562 C 57.785156 99.546875 58.007812 99.5 58.25 99.5 C 58.492188 99.5 58.710938 99.464844 58.738281 99.417969 C 58.765625 99.375 59 99.328125 59.261719 99.3125 C 59.523438 99.300781 59.785156 99.261719 59.839844 99.226562 C 59.953125 99.15625 60.617188 99.019531 61.25 98.933594 C 61.46875 98.902344 61.691406 98.839844 61.746094 98.789062 C 61.796875 98.742188 62.007812 98.699219 62.210938 98.699219 C 62.414062 98.699219 62.597656 98.65625 62.617188 98.601562 C 62.636719 98.550781 62.800781 98.496094 62.984375 98.480469 C 63.164062 98.46875 63.335938 98.421875 63.363281 98.378906 C 63.390625 98.335938 63.546875 98.300781 63.710938 98.300781 C 63.886719 98.300781 63.984375 98.257812 63.949219 98.199219 C 63.914062 98.140625 64.027344 98.101562 64.222656 98.101562 C 64.410156 98.101562 64.601562 98.058594 64.65625 98.007812 C 64.707031 97.957031 64.929688 97.890625 65.148438 97.855469 C 65.585938 97.789062 66.152344 97.625 66.421875 97.488281 C 66.519531 97.441406 66.691406 97.398438 66.804688 97.398438 C 66.917969 97.398438 66.984375 97.355469 66.949219 97.300781 C 66.914062 97.246094 66.96875 97.195312 67.070312 97.1875 C 67.351562 97.171875 67.425781 97.148438 67.820312 96.96875 C 68.027344 96.875 68.285156 96.800781 68.398438 96.800781 C 68.507812 96.800781 68.601562 96.753906 68.601562 96.699219 C 68.601562 96.644531 68.691406 96.601562 68.800781 96.601562 C 68.910156 96.601562 69 96.554688 69 96.5 C 69 96.445312 69.136719 96.398438 69.300781 96.398438 C 69.464844 96.398438 69.601562 96.355469 69.601562 96.300781 C 69.601562 96.246094 69.691406 96.199219 69.800781 96.199219 C 69.910156 96.199219 70 96.15625 70 96.101562 C 70 96.046875 70.089844 96 70.199219 96 C 70.308594 96 70.398438 95.964844 70.402344 95.925781 C 70.402344 95.824219 70.894531 95.601562 71.113281 95.601562 C 71.210938 95.601562 71.316406 95.554688 71.351562 95.5 C 71.382812 95.445312 71.511719 95.398438 71.632812 95.394531 C 71.84375 95.386719 71.84375 95.382812 71.648438 95.300781 C 71.484375 95.226562 71.503906 95.214844 71.78125 95.207031 C 72.003906 95.203125 72.089844 95.164062 72.039062 95.085938 C 72 95.019531 72.011719 94.996094 72.0625 95.027344 C 72.148438 95.082031 72.777344 94.835938 72.898438 94.703125 C 73.007812 94.585938 73.40625 94.398438 73.546875 94.398438 C 73.632812 94.398438 73.699219 94.355469 73.699219 94.300781 C 73.699219 94.246094 73.757812 94.199219 73.832031 94.199219 C 73.902344 94.199219 74.058594 94.109375 74.175781 94 C 74.296875 93.890625 74.457031 93.800781 74.535156 93.800781 C 74.613281 93.800781 74.730469 93.734375 74.800781 93.648438 C 74.867188 93.566406 74.980469 93.5 75.050781 93.5 C 75.25 93.5 75.703125 93.238281 75.632812 93.164062 C 75.597656 93.128906 75.65625 93.101562 75.765625 93.101562 C 75.875 93.101562 76.117188 92.964844 76.300781 92.800781 C 76.484375 92.636719 76.707031 92.5 76.792969 92.5 C 76.878906 92.5 77.007812 92.410156 77.078125 92.300781 C 77.144531 92.191406 77.261719 92.101562 77.332031 92.101562 C 77.402344 92.101562 77.558594 92.011719 77.675781 91.902344 C 77.792969 91.792969 77.945312 91.691406 78.019531 91.675781 C 78.089844 91.664062 78.207031 91.570312 78.28125 91.476562 C 78.351562 91.378906 78.476562 91.300781 78.554688 91.300781 C 78.632812 91.300781 78.863281 91.144531 79.066406 90.953125 C 79.269531 90.765625 79.460938 90.625 79.5 90.648438 C 79.535156 90.671875 79.625 90.601562 79.703125 90.496094 C 79.78125 90.386719 79.925781 90.300781 80.027344 90.300781 C 80.128906 90.300781 80.183594 90.253906 80.148438 90.199219 C 80.117188 90.144531 80.136719 90.101562 80.199219 90.101562 C 80.257812 90.101562 80.414062 90 80.542969 89.875 C 80.878906 89.550781 81.199219 89.292969 81.199219 89.351562 C 81.199219 89.378906 81.339844 89.265625 81.515625 89.101562 C 81.6875 88.933594 81.871094 88.800781 81.921875 88.800781 C 81.972656 88.800781 82.179688 88.628906 82.382812 88.421875 C 82.585938 88.214844 82.90625 87.933594 83.101562 87.800781 C 83.527344 87.503906 83.742188 87.300781 83.632812 87.300781 C 83.585938 87.300781 83.675781 87.214844 83.824219 87.117188 C 83.976562 87.015625 84.070312 86.90625 84.035156 86.867188 C 83.996094 86.832031 84.019531 86.800781 84.085938 86.800781 C 84.242188 86.800781 85.105469 85.9375 85.027344 85.859375 C 84.992188 85.828125 85.039062 85.800781 85.125 85.800781 C 85.214844 85.800781 85.316406 85.710938 85.351562 85.601562 C 85.386719 85.488281 85.449219 85.398438 85.492188 85.398438 C 85.628906 85.398438 86 85.03125 86 84.898438 C 86 84.824219 86.027344 84.792969 86.058594 84.828125 C 86.121094 84.886719 86.984375 84.085938 86.953125 84 C 86.941406 83.972656 87.015625 83.871094 87.117188 83.773438 C 87.21875 83.679688 87.300781 83.628906 87.300781 83.664062 C 87.300781 83.703125 87.414062 83.601562 87.550781 83.441406 C 87.6875 83.28125 87.800781 83.113281 87.800781 83.066406 C 87.800781 83.019531 87.933594 82.855469 88.097656 82.703125 C 88.257812 82.550781 88.363281 82.398438 88.328125 82.363281 C 88.296875 82.328125 88.34375 82.300781 88.4375 82.300781 C 88.535156 82.300781 88.585938 82.253906 88.550781 82.199219 C 88.515625 82.144531 88.554688 82.101562 88.636719 82.101562 C 88.71875 82.101562 88.816406 82.007812 88.851562 81.898438 C 88.886719 81.785156 89.023438 81.585938 89.152344 81.457031 C 89.28125 81.328125 89.363281 81.195312 89.335938 81.167969 C 89.304688 81.136719 89.375 81.054688 89.492188 80.984375 C 89.605469 80.910156 89.699219 80.804688 89.699219 80.746094 C 89.699219 80.691406 89.789062 80.578125 89.898438 80.5 C 90.011719 80.421875 90.101562 80.296875 90.101562 80.222656 C 90.101562 80.148438 90.144531 80.117188 90.199219 80.148438 C 90.253906 80.183594 90.300781 80.121094 90.300781 80.007812 C 90.300781 79.894531 90.34375 79.800781 90.398438 79.800781 C 90.453125 79.800781 90.5 79.730469 90.5 79.644531 C 90.5 79.558594 90.546875 79.515625 90.601562 79.550781 C 90.65625 79.585938 90.699219 79.5625 90.699219 79.507812 C 90.699219 79.316406 90.335938 79.394531 90.039062 79.648438 "/>
</g>
</svg>
