<svg width="70" height="70" xmlns="http://www.w3.org/2000/svg">
 <title>logo</title>

 <g>
  <title>Layer 1</title>
  <g transform="rotate(180 34.9847 34.9888)">
   <g id="svg_1">
    <path fill="rgb(73.333333%,92.156863%,42.352941%)" fill-rule="evenodd" d="m15.13339,6.14933c-0.11719,0.0625 -0.26562,0.17578 -0.33203,0.24609c-0.06641,0.07031 -0.16797,0.11328 -0.22656,0.08985c-0.0586,-0.01954 -0.10938,-0.00782 -0.10938,0.03125c0,0.08984 -0.32031,0.41406 -0.40234,0.41406c-0.03516,0 -0.16406,0.09765 -0.29297,0.21484c-0.17969,0.17188 -0.24219,0.19922 -0.32422,0.13281c-0.07812,-0.0664 -0.09766,-0.0625 -0.09766,0.03516c0,0.15625 -0.1914,0.33984 -0.29296,0.27734c-0.05079,-0.03125 -0.0586,-0.01953 -0.03125,0.03125c0.04687,0.07422 -0.10157,0.28907 -0.19922,0.28907c-0.02735,0 -0.08985,0.03906 -0.13672,0.08593c-0.05078,0.04688 -0.24219,0.21485 -0.42969,0.36719c-0.76562,0.64453 -3.48437,3.32813 -3.63281,3.59375c-0.03516,0.06641 -0.14453,0.19531 -0.2461,0.29297c-0.10156,0.09766 -0.25781,0.28516 -0.35156,0.42188c-0.09375,0.13281 -0.28906,0.35937 -0.4375,0.5c-0.14453,0.14062 -0.26172,0.29296 -0.26172,0.33203c0,0.04297 -0.09765,0.17578 -0.21093,0.29687c-0.11719,0.1211 -0.21094,0.25 -0.21094,0.28125c0,0.03125 -0.09375,0.16016 -0.20703,0.27735c-0.11719,0.12109 -0.21094,0.2539 -0.21094,0.30078c0,0.04297 -0.0625,0.125 -0.14063,0.17968c-0.07812,0.05469 -0.14062,0.13282 -0.14062,0.16407c0,0.1289 -0.66797,1.08984 -0.76172,1.09375c-0.05469,0 -0.07812,0.04687 -0.05078,0.11328c0.02344,0.05859 -0.01953,0.17187 -0.10156,0.2539c-0.07422,0.08204 -0.13672,0.19141 -0.13672,0.24219c0,0.05078 -0.03125,0.09375 -0.07031,0.09375c-0.03516,0 -0.07032,0.03906 -0.07032,0.09375c0,0.04688 -0.0625,0.15625 -0.14062,0.23828c-0.07422,0.08203 -0.13672,0.19922 -0.13672,0.26172c0,0.05469 -0.03516,0.10547 -0.07031,0.10547c-0.03907,0 -0.07032,0.0625 -0.07032,0.14063c0,0.07421 -0.03125,0.13671 -0.07031,0.13671c-0.03906,0 -0.07031,0.05079 -0.07031,0.10938c0,0.05469 -0.03125,0.10156 -0.07031,0.10156c-0.03907,0 -0.07032,0.05469 -0.07032,0.11328c0,0.07032 -0.03906,0.09766 -0.10156,0.07422c-0.05859,-0.02344 -0.125,-0.00781 -0.15234,0.03906c-0.02735,0.04688 -0.01563,0.05469 0.03125,0.02735c0.05078,-0.03125 0.08203,0 0.08203,0.09375c0,0.08203 -0.03125,0.14453 -0.07031,0.14453c-0.03907,0 -0.07032,0.0625 -0.07032,0.14062c0,0.07813 -0.02343,0.14063 -0.05468,0.14063c-0.03125,0 -0.10157,0.10937 -0.15235,0.24219c-0.05468,0.13672 -0.125,0.24609 -0.15625,0.24609c-0.02734,0 -0.05468,0.06641 -0.05468,0.14844c0,0.09375 -0.03516,0.13281 -0.09375,0.11328c-0.07032,-0.03125 -0.08594,0.00781 -0.0586,0.14062c0.02344,0.14844 0.01172,0.17188 -0.08594,0.13672c-0.09765,-0.03906 -0.10546,-0.02343 -0.04296,0.09375c0.0625,0.10938 0.05468,0.14844 -0.02735,0.17969c-0.125,0.04688 -0.09765,0.26953 0.10938,0.90234c0.13672,0.41407 0.16797,0.50391 0.32812,0.89454c0.04688,0.10156 0.10938,0.26171 0.14063,0.34765c0.51953,1.33594 2.34375,4.63672 2.73828,4.95313c0.02344,0.01953 0.12109,0.14453 0.21094,0.28125c0.09375,0.13281 0.1875,0.26172 0.20703,0.28125c0.01953,0.01562 0.14843,0.17187 0.28125,0.34765c0.70312,0.91797 2.01953,2.21094 3.22265,3.16797c0.6836,0.54688 2.98828,2.08203 3.125,2.08203c0.01953,0 0.17188,0.09375 0.33985,0.20703c0.16797,0.11719 0.32422,0.21094 0.34765,0.21094c0.15625,0 1.09766,0.75 1.73828,1.38281c1.65625,1.63672 1.9375,2.39063 2.07813,5.58204c0.17969,4.01171 0.65625,5.27734 2.52344,6.71093c0.05859,0.04297 0.30859,0.22266 0.55859,0.39063c0.25,0.17187 0.47266,0.33203 0.48828,0.35156c0.01953,0.01953 0.16016,0.13281 0.31641,0.24609c0.77344,0.57813 1.60937,1.67579 2.14453,2.81641c0.37891,0.8125 0.49609,1.10547 0.625,1.52734c0.04687,0.15235 0.10937,0.34375 0.14062,0.41797c0.02735,0.07813 0.07422,0.21875 0.09766,0.31641c0.02344,0.09766 0.07422,0.28516 0.11328,0.41797c0.07031,0.23437 0.13672,0.51172 0.26953,1.05078c0.05078,0.22656 0.24219,1.16797 0.53125,2.625c0.13672,0.66797 0.50391,2.24219 0.58594,2.48437c0.03516,0.09766 0.13281,0.41407 0.21875,0.70313c0.08984,0.28516 0.19141,0.55469 0.21875,0.58984c0.03516,0.03516 0.05859,0.10938 0.05859,0.16016c0,0.08984 0.14063,0.41797 0.44141,1.06641c1.44531,3.07031 3.5625,2.67578 4.89844,-0.90625c0.46094,-1.23047 0.63281,-2.00782 1,-4.5c0.02734,-0.1836 0.07812,-0.35157 0.10937,-0.375c0.03516,-0.01954 0.0625,-0.1211 0.0625,-0.22657c0,-0.10547 0.02344,-0.22265 0.05469,-0.25781c0.03125,-0.03516 0.09375,-0.19141 0.14453,-0.34766c0.27735,-0.87109 1.26172,-2.51171 2.1211,-3.54296c1.52734,-1.82813 2.07031,-2.4961 2.41406,-2.98438c0.18359,-0.26172 0.35156,-0.48828 0.375,-0.50781c0.05078,-0.04297 0.28515,-0.41016 0.38672,-0.59375c0.16797,-0.3086 0.28125,-0.49219 0.3164,-0.52735c0.03907,-0.03515 0.29297,-0.5664 0.51172,-1.04687c0.14453,-0.32813 0.46875,-1.30469 0.53906,-1.61328c0.4375,-2.01172 0.41797,-2.75391 -0.09375,-3.63672c-0.24218,-0.41797 -1.29296,-1.50781 -1.64843,-1.72266c-0.125,-0.07031 -0.22266,-0.15234 -0.22266,-0.18359c0,-0.03125 -0.04297,-0.05469 -0.09766,-0.05469c-0.05468,0 -0.10937,-0.02344 -0.125,-0.05859c-0.02734,-0.06641 -0.65625,-0.50391 -0.72265,-0.50391c-0.02735,0 -0.13281,-0.05859 -0.23438,-0.13281c-0.28906,-0.20313 -2.35156,-1.22656 -2.98437,-1.47266c-0.64453,-0.25781 -1,-0.41015 -1.17188,-0.5c-0.0664,-0.03515 -0.17187,-0.0625 -0.23047,-0.0625c-0.10156,0 -0.17578,-0.02734 -0.5039,-0.19922c-0.08594,-0.04296 -0.20703,-0.08203 -0.26563,-0.08203c-0.10547,0 -0.17578,-0.02734 -0.5039,-0.19922c-0.08985,-0.04296 -0.21875,-0.07812 -0.29297,-0.07812c-0.07813,0 -0.15625,-0.03516 -0.1836,-0.07031c-0.02343,-0.03907 -0.13281,-0.07032 -0.24218,-0.07032c-0.10938,0 -0.21875,-0.03125 -0.24219,-0.0625c-0.01953,-0.03515 -0.125,-0.07812 -0.23047,-0.09765c-0.10547,-0.02344 -0.32031,-0.07422 -0.47266,-0.11719c-0.15625,-0.04687 -0.39062,-0.10937 -0.52343,-0.14062c-0.13672,-0.03516 -0.42188,-0.10547 -0.63282,-0.16016c-1.10937,-0.29688 -1.45703,-0.3125 -3.2539,-0.12891c-3.1875,0.32813 -3.47656,0.29297 -4.26953,-0.50781c-0.34766,-0.35156 -1.64453,-2.18359 -1.64453,-2.32422c0,-0.01953 -0.125,-0.21875 -0.27735,-0.44531c-1.21484,-1.78906 -1.61719,-3.20313 -1.10547,-3.875c0.46875,-0.61719 1.15625,-0.89063 2.95703,-1.17578c3.76954,-0.59375 4.42579,-0.95703 4.85938,-2.69141c0.49609,-1.97265 1.38281,-2.92187 4.02344,-4.30078c0.98437,-0.51172 1.11328,-0.58594 1.16015,-0.63672c0.04297,-0.03906 0.64844,-0.32812 0.91016,-0.43359c0.09766,-0.03906 0.23047,-0.09766 0.29687,-0.13281c0.06641,-0.03125 0.19922,-0.0625 0.29297,-0.0625c0.09375,0 0.19141,-0.02735 0.21094,-0.0586c0.01953,-0.03515 0.125,-0.07812 0.23047,-0.10156c0.10547,-0.02344 0.33594,-0.07422 0.50781,-0.11719c0.17578,-0.04297 0.45703,-0.10937 0.63281,-0.14453c0.17188,-0.03516 0.44141,-0.09375 0.59375,-0.12891c0.15625,-0.03515 0.53125,-0.11328 0.83985,-0.17578c3.0039,-0.625 3.10156,-0.74218 3.53906,-4.3789c0.35547,-2.96094 -0.09375,-3.53907 -3.08203,-3.95703c-0.30078,-0.03907 -0.46484,-0.07813 -1.14063,-0.25391c-0.8125,-0.21094 -1.65625,-0.67578 -2.53515,-1.39063c-0.6211,-0.5 -1.32813,-0.98046 -1.45313,-0.98046c-0.05078,0 -0.125,-0.02735 -0.16015,-0.0586c-0.25391,-0.22265 -1.63282,-0.39844 -2.35938,-0.30078c-0.3164,0.04297 -0.70312,0.09375 -0.85937,0.11328c-0.4336,0.04688 -1.78125,0.30078 -2.80078,0.52735c-0.33204,0.07031 -0.53125,0.10937 -1.48829,0.28125c-0.67968,0.12109 -2.15234,0.16406 -2.51953,0.07031c-0.73828,-0.1836 -0.89843,-0.23047 -1.01172,-0.28906c-0.07031,-0.03516 -0.18359,-0.0625 -0.25781,-0.0625c-0.07422,0 -0.15234,-0.02735 -0.17187,-0.0586c-0.01953,-0.03125 -0.19532,-0.10156 -0.39453,-0.15234c-0.19532,-0.05469 -0.375,-0.125 -0.39454,-0.15235c-0.01562,-0.03515 -0.09375,-0.05859 -0.17187,-0.05859c-0.07031,0 -0.19141,-0.03125 -0.25391,-0.06641c-0.19922,-0.11328 -2.67968,-0.91406 -2.80859,-0.90625c-0.0625,0 -0.21094,0.05469 -0.32422,0.1211m43.08203,2.8164c0,0.03907 0.03125,0.05469 0.06641,0.03516c0.11328,-0.07031 3.10937,2.85547 3.1914,3.11328c0.05469,0.17578 0.71094,0.78906 0.71094,0.66406c0,-0.05859 -0.03125,-0.10546 -0.0625,-0.10546c-0.08984,0 -0.26562,-0.1875 -0.26562,-0.28125c0,-0.04297 -0.26953,-0.34766 -0.59766,-0.67579c-0.32812,-0.32421 -0.58203,-0.61328 -0.56641,-0.64062c0.01954,-0.02734 -0.09765,-0.16016 -0.2539,-0.29688c-0.39844,-0.33984 -0.96485,-0.91015 -1.17188,-1.17187c-0.09375,-0.12109 -0.21484,-0.22266 -0.26562,-0.22266c-0.05078,0 -0.07422,-0.03515 -0.04688,-0.07422c0.02344,-0.03515 -0.01172,-0.07031 -0.07031,-0.07031c-0.0625,0 -0.19141,-0.07812 -0.28516,-0.17187c-0.18359,-0.1836 -0.38281,-0.23438 -0.38281,-0.10157m-2.76562,1.1211c-0.02344,0.03515 -0.10157,0.0625 -0.17969,0.0625c-0.07031,0 -0.19141,0.02734 -0.25391,0.0664c-0.07031,0.03125 -0.21875,0.09766 -0.33593,0.14454c-0.11329,0.04687 -0.26172,0.11718 -0.33204,0.14843c-0.0625,0.03516 -0.15234,0.0625 -0.1875,0.0625c-0.03906,0 -0.28515,0.09766 -0.54296,0.21485c-1.76563,0.79297 -2.76563,1.53125 -3.21485,2.375c-0.19531,0.36328 -0.26172,0.54687 -0.4414,1.23437c-0.09766,0.36719 -0.09766,2.28125 0,2.76563c0.04296,0.20703 0.10937,0.54687 0.15234,0.76172c0.13281,0.67968 0.26562,1.02734 0.42578,1.10546c0.59375,0.28125 1.81641,0.27344 5.57813,-0.05078c0.40234,-0.03515 1.15234,-0.09765 1.66796,-0.14062c0.51172,-0.03906 0.96094,-0.08985 0.9961,-0.11328c0.07422,-0.04688 1.07031,0.09375 1.29297,0.17578c1.16406,0.45703 1.61328,1.11328 1.55859,2.27344c-0.0625,1.16406 -0.69141,2.44921 -1.37891,2.80078c-0.94531,0.47656 -7.3125,0.16797 -10.07031,-0.5c-0.57812,-0.13672 -0.76562,-0.15625 -0.97656,-0.09766c-0.91016,0.24609 -2.12891,1.69531 -2.01953,2.39453c0.17187,1.10938 0.10547,1.54297 -0.38672,2.50781c-0.17188,0.34766 -1.02344,1.75391 -1.16406,1.92969c-0.1211,0.15235 -0.73828,1.35156 -0.85938,1.67969c-0.19531,0.51172 -0.24219,0.83984 -0.24219,1.55859c0.00391,0.50391 0.03516,0.81641 0.08985,0.8711c0.04297,0.04297 0.08203,0.13672 0.08203,0.20312c0,0.07031 0.05859,0.23438 0.13281,0.36328c0.07422,0.12891 0.17578,0.3125 0.22656,0.40235c0.05079,0.09375 0.11329,0.18359 0.13282,0.20312c0.02343,0.01953 0.11718,0.14453 0.21093,0.28125c0.24219,0.35938 0.9961,1.06641 1.67579,1.58203c1.01171,0.76172 1.8789,0.95313 4.86718,1.07422c1.78516,0.07422 2.3086,0.12891 2.79688,0.29688c1.48437,0.50781 2.30469,1.83203 2.59375,4.1875c0.01953,0.17187 0.0664,1.39843 0.10547,2.73047c0.03906,1.32812 0.09375,2.82421 0.12109,3.32421c0.05859,1.03907 -0.00391,2.86329 -0.11719,3.53516c-0.10547,0.61719 -0.19531,1.09375 -0.27734,1.47266c-0.30078,1.33984 -0.26563,1.70703 0.22656,2.18359c0.1836,0.17969 0.31641,0.25391 0.82813,0.45703c0.17968,0.07422 0.20312,0.05469 0.72265,-0.6289c0.51172,-0.67579 1.67969,-2.40625 1.97657,-2.92579c0.07812,-0.13281 0.29296,-0.51171 0.48437,-0.83593c1.17188,-2.01953 2.41016,-4.90625 3.03125,-7.07422c0.05078,-0.17188 0.12891,-0.4375 0.17969,-0.59375c0.90625,-2.87891 1.41406,-7.23438 1.28125,-10.9336c-0.20313,-5.48828 -1.85156,-11.33984 -4.45313,-15.80468c-1.08203,-1.85938 -2.73437,-4.2461 -3.63281,-5.25c-0.07031,-0.08203 -0.34766,-0.39453 -0.61719,-0.70313c-0.83593,-0.95312 -1.71484,-1.84375 -1.7539,-1.77734m6.75781,2.92578c0,0.03516 0.08594,0.14062 0.19141,0.23047c0.10937,0.08984 0.23437,0.24219 0.28515,0.34375c0.05078,0.09765 0.17578,0.27344 0.28125,0.38672c0.10156,0.11328 0.21875,0.26953 0.26172,0.34375c0.03906,0.07031 0.11328,0.13672 0.16016,0.14453c0.04687,0.01172 0.05078,0.0039 0.01172,-0.01953c-0.03907,-0.01563 -0.07032,-0.08203 -0.07032,-0.13672c0,-0.0625 -0.09765,-0.19922 -0.21093,-0.30469c-0.11719,-0.10547 -0.21094,-0.24609 -0.21094,-0.30859c0,-0.0625 -0.03125,-0.11328 -0.07031,-0.11328c-0.03516,0 -0.07032,-0.04297 -0.07032,-0.09766c0,-0.05469 -0.0625,-0.12109 -0.14062,-0.14453c-0.07813,-0.02344 -0.11719,-0.07813 -0.09375,-0.1211c0.02734,-0.04687 0.01172,-0.05859 -0.03516,-0.02734c-0.05078,0.03516 -0.07812,-0.00391 -0.07812,-0.09375c0,-0.08203 -0.04688,-0.14453 -0.10547,-0.14453c-0.0586,0 -0.10547,0.02734 -0.10547,0.0625m1.25781,1.58594c0,0.02343 0.03516,0.10156 0.07422,0.17578c0.10547,0.20312 0.21875,0.16797 0.125,-0.03906c-0.07031,-0.15625 -0.19922,-0.24219 -0.19922,-0.13672m0.35156,0.58203c0,0.08984 0.27735,0.32031 0.32813,0.26562c0.02344,-0.02343 0.00781,-0.04687 -0.03516,-0.04687c-0.04687,0 -0.08203,-0.0625 -0.08203,-0.13672c0,-0.08203 -0.04687,-0.14063 -0.10547,-0.14063c-0.05859,0 -0.10547,0.02344 -0.10547,0.0586m0.28125,0.41797c0,0.09375 0.27344,0.32031 0.32422,0.26562c0.02735,-0.02344 0.01172,-0.04297 -0.03515,-0.04297c-0.04297,0 -0.08203,-0.0625 -0.08203,-0.14062c0,-0.07813 -0.04688,-0.14063 -0.10157,-0.14063c-0.05859,0 -0.10547,0.02735 -0.10547,0.0586m0.27735,0.40234c0,0.06641 0.30078,0.48047 0.36719,0.50781c0.03125,0.01172 0.05468,0.07032 0.05468,0.125c0,0.0586 0.0625,0.16797 0.14063,0.25391c0.07422,0.08203 0.14062,0.19141 0.14062,0.24219c0,0.04687 0.03125,0.09375 0.07032,0.09375c0.03906,0 0.0664,0.0625 0.0664,0.13672c0,0.13671 0.07422,0.18359 0.15625,0.10156c0.0586,-0.0586 -0.15625,-0.45703 -0.26562,-0.5c-0.05469,-0.01953 -0.10157,-0.08203 -0.10157,-0.13672c0,-0.05469 -0.05859,-0.16797 -0.13671,-0.25c-0.07422,-0.07813 -0.11719,-0.17188 -0.09766,-0.20703c0.01953,-0.03125 -0.01172,-0.07422 -0.07422,-0.10156c-0.05859,-0.01954 -0.10937,-0.10157 -0.10937,-0.17579c0,-0.07031 -0.04688,-0.1289 -0.10547,-0.1289c-0.0586,0 -0.10547,0.01953 -0.10547,0.03906m2.3789,4.26563c0,0.05468 0.03516,0.10546 0.07422,0.10546c0.03516,0 0.07032,-0.05078 0.07032,-0.10546c0,-0.0586 -0.03516,-0.10547 -0.07032,-0.10547c-0.03906,0 -0.07422,0.04687 -0.07422,0.10547m0.1211,0.21875c-0.0586,0.05468 0.00781,0.16406 0.09765,0.16406c0.03516,0 0.0625,-0.04297 0.0625,-0.10156c0,-0.10938 -0.07812,-0.14063 -0.16015,-0.0625m0.08984,0.375c0,0.03515 0.03516,0.08203 0.07031,0.10546c0.03907,0.02344 0.07032,0.10157 0.07032,0.17188c0,0.07031 0.05078,0.14844 0.10547,0.16797c0.13671,0.05469 0.13671,-0.07422 0,-0.21094c-0.0586,-0.05859 -0.08985,-0.13281 -0.07032,-0.16016c0.01953,-0.03125 -0.01172,-0.07421 -0.07031,-0.10156c-0.05859,-0.01953 -0.10547,-0.00781 -0.10547,0.02735m0.28125,0.67578c0,0.05468 0.04688,0.09375 0.10547,0.09375c0.05859,0 0.10547,-0.03907 0.10547,-0.09375c0,-0.05078 -0.04688,-0.09375 -0.10547,-0.09375c-0.05859,0 -0.10547,0.04297 -0.10547,0.09375m0.14063,0.23047c0,0.04296 0.02734,0.13281 0.0625,0.19531c0.07812,0.15625 0.1914,0.4375 0.24218,0.59765c0.04297,0.12891 0.1836,0.16797 0.1836,0.05079c0,-0.03516 -0.03125,-0.07032 -0.07031,-0.07032c-0.03907,0 -0.06641,-0.09375 -0.06641,-0.21093c0,-0.11329 -0.03516,-0.20704 -0.07031,-0.20704c-0.03907,0 -0.07032,-0.05078 -0.07032,-0.11328c0,-0.05859 -0.05078,-0.15625 -0.10546,-0.21093c-0.0586,-0.0586 -0.10547,-0.07422 -0.10547,-0.03125m0.41797,1.11718c0,0.08203 0.03515,0.14453 0.07031,0.14453c0.03906,0 0.07422,0.08204 0.07422,0.17579c0,0.10937 0.03515,0.17578 0.10156,0.17578c0.05859,0 0.10547,-0.05078 0.10547,-0.10938c0,-0.05859 -0.03125,-0.08594 -0.07031,-0.0664c-0.03516,0.02734 -0.07032,-0.01954 -0.07032,-0.10157c0,-0.08203 -0.04687,-0.19922 -0.10547,-0.2539c-0.08984,-0.09375 -0.10546,-0.09375 -0.10546,0.03515m0.28125,0.8125c0,0.0586 0.05078,0.10547 0.11328,0.10547c0.09375,0 0.09765,-0.01953 0.02734,-0.10547c-0.05078,-0.05859 -0.09766,-0.10547 -0.11328,-0.10547c-0.01563,0 -0.02734,0.04688 -0.02734,0.10547m0.14062,0.41797c0,0.06641 0.03125,0.10938 0.07813,0.09375c0.03906,-0.01172 0.07421,-0.05469 0.07421,-0.09375c0,-0.03515 -0.03515,-0.07422 -0.07421,-0.08984c-0.04688,-0.01172 -0.07813,0.02734 -0.07813,0.08984m0.55859,1.89063c0,0.05859 0.03125,0.10547 0.07032,0.10547c0.03906,0 0.07031,-0.04688 0.07031,-0.10547c0,-0.0586 -0.03125,-0.10547 -0.07031,-0.10547c-0.03907,0 -0.07032,0.04687 -0.07032,0.10547m0.19532,0.42968c-0.03125,0.02735 -0.05469,0.09766 -0.05469,0.15625c0,0.07813 0.02344,0.08594 0.07812,0.03125c0.04297,-0.04296 0.06641,-0.11328 0.05079,-0.16015c-0.01172,-0.04297 -0.05079,-0.0586 -0.07422,-0.02735m0.0664,0.66016c0.04297,0.15625 0.16016,0.18359 0.16016,0.03906c0,-0.05468 -0.04688,-0.11328 -0.09766,-0.13672c-0.0664,-0.02343 -0.08593,0.00782 -0.0625,0.09766m0.09766,0.46484c-0.01172,0.125 0.07031,0.30079 0.14062,0.30079c0.03125,0 0.0625,-0.06641 0.0625,-0.14454c0,-0.07812 -0.03125,-0.125 -0.0664,-0.10156c-0.03516,0.01953 -0.07813,0 -0.09766,-0.05078c-0.02344,-0.05859 -0.03906,-0.0625 -0.03906,-0.00391m0.16016,0.76172c0.02343,0.0586 0.04296,0.14063 0.04296,0.17969c0,0.03906 0.03125,0.05078 0.07032,0.02344c0.10937,-0.0625 0.08203,-0.22266 -0.04297,-0.27344c-0.08594,-0.03125 -0.10547,-0.01172 -0.07031,0.07031m0.11718,0.67188c0.01172,0.22265 0.11719,0.3789 0.16797,0.2539c0.03125,-0.07421 0.00781,-0.16406 -0.0625,-0.23437c-0.08203,-0.08203 -0.10937,-0.08594 -0.10547,-0.01953m0.13672,0.79297c0,0.21484 0.07813,0.45312 0.14844,0.45312c0.09375,0 0.07422,-0.16797 -0.04688,-0.39062c-0.08203,-0.16407 -0.10156,-0.17578 -0.10156,-0.0625m0.14063,1.08593c0,0.2461 0.07031,0.48829 0.14453,0.48829c0.09765,0 0.07422,-0.24219 -0.04297,-0.46485l-0.10156,-0.19922l0,0.17578m0.15234,1.53907c0,0.21093 0.02344,0.46093 0.05469,0.5625c0.08203,0.24609 0.08203,-0.28516 0.0039,-0.66797c-0.05468,-0.27735 -0.05468,-0.27735 -0.05859,0.10547m0.03906,4.58593c-0.02734,0.15235 -0.04687,0.4375 -0.04687,0.62891l0.01172,0.35156l0.0625,-0.38672c0.03515,-0.21093 0.05468,-0.49609 0.04687,-0.6289l-0.02344,-0.2461l-0.05078,0.28125m-0.14843,1.73047c-0.02735,0.08985 -0.03907,0.25391 -0.03516,0.3711c0.00781,0.16406 0.01562,0.17187 0.03906,0.05078c0.01563,-0.08985 0.0586,-0.16016 0.09766,-0.16016c0.03515,0 0.0625,-0.09375 0.0625,-0.21094c0,-0.24609 -0.10547,-0.27734 -0.16406,-0.05078m-0.15235,1.20313c-0.02734,0.13281 -0.03125,0.28515 -0.00781,0.33203c0.01562,0.05078 0.03516,0.01953 0.03906,-0.0625c0.00391,-0.08984 0.03906,-0.16016 0.07813,-0.16016c0.08593,0 0.08984,-0.25781 0,-0.3125c-0.03516,-0.01953 -0.08594,0.07032 -0.10938,0.20313m-0.14453,0.91406c-0.02344,0.09375 -0.02734,0.21094 -0.00781,0.26172c0.02344,0.05078 0.04297,0.01562 0.04297,-0.07422c0.0039,-0.08594 0.03515,-0.14062 0.07422,-0.11719c0.03906,0.02344 0.07031,-0.01953 0.07031,-0.10156c0,-0.19922 -0.12891,-0.17969 -0.17969,0.03125m-0.125,0.70703c-0.07812,0.19141 -0.05078,0.26172 0.05859,0.17188c0.11719,-0.09766 0.14844,-0.28125 0.04688,-0.28125c-0.03906,0 -0.08203,0.04687 -0.10547,0.10937m-0.14062,0.69922c-0.07422,0.19141 -0.04688,0.25391 0.0625,0.14453c0.05468,-0.05859 0.10546,-0.13672 0.10546,-0.17969c0,-0.11328 -0.12109,-0.08984 -0.16796,0.03516m-0.13282,0.65625c-0.02343,0.08984 -0.0039,0.12109 0.0625,0.09766c0.05078,-0.02344 0.09766,-0.08203 0.09766,-0.13672c0,-0.14453 -0.11719,-0.11719 -0.16016,0.03906m-0.12109,0.52734c0,0.0586 0.03516,0.10547 0.07031,0.10547c0.03906,0 0.07031,-0.04687 0.07031,-0.10547c0,-0.05468 -0.03125,-0.10546 -0.07031,-0.10546c-0.03515,0 -0.07031,0.05078 -0.07031,0.10546m-0.27734,1.05079c0,0.05859 0.02734,0.10546 0.0664,0.10546c0.03906,0 0.07031,-0.04687 0.07031,-0.10546c0,-0.05469 -0.03125,-0.10547 -0.07031,-0.10547c-0.03906,0 -0.0664,0.05078 -0.0664,0.10547m-0.42188,1.40234c0,0.0625 0.03125,0.10156 0.07813,0.08984c0.03906,-0.01562 0.07421,-0.05468 0.07421,-0.08984c0,-0.03906 -0.03515,-0.08203 -0.07421,-0.09375c-0.04688,-0.01563 -0.07813,0.02734 -0.07813,0.09375m-0.19531,0.67578c-0.04688,0.04688 -0.08203,0.15625 -0.08203,0.24609c0,0.08985 -0.03516,0.16407 -0.07422,0.16407c-0.03516,0 -0.07031,0.0625 -0.07031,0.14453c0,0.1289 0.01562,0.1289 0.10546,0.03515c0.0586,-0.05468 0.10547,-0.17968 0.10547,-0.27734c0,-0.09375 0.03516,-0.18359 0.08203,-0.19922c0.04297,-0.01562 0.06641,-0.0664 0.05079,-0.11328c-0.02344,-0.07031 -0.04688,-0.07031 -0.11719,0m-0.36328,0.90234c0,0.12891 0.00781,0.13282 0.10547,0.03907c0.05859,-0.0586 0.10156,-0.1211 0.10156,-0.14453c0,-0.02344 -0.04297,-0.03907 -0.10156,-0.03907c-0.0625,0 -0.10547,0.0625 -0.10547,0.14453m-0.14063,0.375c0,0.09375 -0.03515,0.19141 -0.07031,0.21485c-0.03906,0.02344 -0.07031,0.09375 -0.07031,0.14844c0,0.09375 0.01172,0.09375 0.10547,0c0.05468,-0.05469 0.10546,-0.16797 0.10546,-0.2461c0,-0.08203 0.03125,-0.14844 0.07032,-0.14844c0.03515,0 0.07031,-0.03125 0.07031,-0.07031c0,-0.03906 -0.04688,-0.0664 -0.10938,-0.0664c-0.0625,0 -0.10156,0.0664 -0.10156,0.16796m-0.23437,0.57813c-0.07813,0.07812 -0.05469,0.14062 0.05859,0.14062c0.05859,0 0.10547,-0.04296 0.10547,-0.09375c0,-0.10156 -0.08594,-0.125 -0.16406,-0.04687m-0.15625,0.35547c-0.02344,0.0664 -0.07032,0.17578 -0.10547,0.24219c-0.10156,0.1914 -0.07422,0.28515 0.04297,0.17187c0.05468,-0.05859 0.10156,-0.17578 0.10156,-0.25391c0,-0.08593 0.03516,-0.13281 0.07031,-0.10937c0.03906,0.02344 0.07031,-0.00391 0.07031,-0.06641c0,-0.14453 -0.13281,-0.13672 -0.17968,0.01563m-1.21875,2.57422c0,0.05468 0.03125,0.10156 0.07031,0.10156c0.03906,0 0.06641,-0.04688 0.06641,-0.10156c0,-0.0625 -0.02735,-0.10938 -0.06641,-0.10938c-0.03906,0 -0.07031,0.04688 -0.07031,0.10938m-0.70313,1.26562c0,0.0586 0.03906,0.09375 0.08594,0.08203c0.12891,-0.04297 0.14844,-0.19531 0.02734,-0.19531c-0.0625,0 -0.11328,0.05078 -0.11328,0.11328m-0.13672,0.25781c0,0.05079 -0.05468,0.15235 -0.125,0.22657c-0.0664,0.07422 -0.20312,0.28906 -0.29687,0.46875c-0.09766,0.18359 -0.19922,0.33203 -0.22656,0.33203c-0.02735,0 -0.05469,0.03515 -0.05469,0.07422c0,0.03515 0.04687,0.0664 0.10547,0.0664c0.05859,0 0.10547,-0.03906 0.10547,-0.08984c0,-0.16797 0.17578,-0.46875 0.30078,-0.50781c0.0625,-0.02344 0.11718,-0.10547 0.11718,-0.17969c0,-0.07813 0.03516,-0.12109 0.07422,-0.09766c0.0586,0.03907 0.08594,-0.05078 0.0625,-0.21875c-0.0039,-0.02343 0.03516,-0.07031 0.08594,-0.10547c0.07422,-0.04296 0.06641,-0.05859 -0.02734,-0.05859c-0.06641,0 -0.1211,0.04297 -0.1211,0.08984m-0.86718,1.36719c-0.14454,0.16016 -0.14454,0.22266 -0.00782,0.22266c0.05469,0 0.10157,-0.0586 0.10157,-0.13281c0,-0.07422 0.04296,-0.15235 0.08984,-0.17188c0.05078,-0.01953 0.05469,-0.03906 0.00781,-0.03906c-0.03906,-0.00391 -0.125,0.05078 -0.1914,0.12109m-0.31641,0.47656c-0.16016,0.19922 -0.1875,0.30469 -0.07813,0.30469c0.03907,0 0.07032,-0.05078 0.07032,-0.11328c0,-0.0625 0.07031,-0.17187 0.15234,-0.24609c0.08203,-0.07032 0.11719,-0.13282 0.07422,-0.13282c-0.04297,0 -0.14063,0.08594 -0.21875,0.1875m-0.38672,0.50782c-0.08984,0.10156 -0.09766,0.14062 -0.02734,0.16406c0.04687,0.01562 0.1289,-0.01953 0.17578,-0.08203c0.17969,-0.23047 0.05078,-0.30078 -0.14844,-0.08203m-4.90625,1.54687c0.07813,0.03516 0.20313,0.0586 0.27734,0.0586c0.11719,-0.00391 0.10938,-0.01172 -0.03125,-0.0586c-0.24218,-0.07422 -0.42187,-0.07422 -0.24609,0"/>
    <path fill="rgb(54.509804%,79.607843%,98.431373%)" fill-rule="evenodd" d="m31.81698,0.03214c-0.01562,0.01953 -0.30468,0.03516 -0.64062,0.04688c-0.33203,0.0039 -0.60938,0.03515 -0.60938,0.07421c0,0.03125 -0.21875,0.0586 -0.48437,0.0586c-0.26953,0 -0.50781,0.03125 -0.53125,0.0664c-0.02344,0.03907 -0.19531,0.07422 -0.38281,0.07422c-0.19141,0 -0.36328,0.03125 -0.38672,0.07032c-0.02344,0.03906 -0.1836,0.0664 -0.35547,0.0664c-0.17188,0 -0.30859,0.03516 -0.30859,0.07031c0,0.03907 -0.15625,0.07032 -0.35157,0.07032c-0.1914,0 -0.34765,0.03125 -0.34765,0.07031c0,0.03906 -0.14063,0.07031 -0.3125,0.07031c-0.17188,0 -0.32813,0.03125 -0.35547,0.07031c-0.02344,0.03907 -0.14844,0.07032 -0.27735,0.07032c-0.13281,0 -0.25781,0.03125 -0.28125,0.07031c-0.02343,0.03516 -0.13281,0.07031 -0.24218,0.07031c-0.11328,0 -0.22266,0.03125 -0.2461,0.07031c-0.02734,0.03907 -0.13672,0.07032 -0.25,0.07032c-0.11328,0 -0.20703,0.03125 -0.20703,0.07031c0,0.03906 -0.09375,0.06641 -0.21094,0.06641c-0.11328,0 -0.20703,0.03515 -0.20703,0.07031c0,0.03906 -0.1289,0.07422 -0.28125,0.07422c-0.15625,0 -0.28125,0.02734 -0.28125,0.0664c0,0.03907 -0.07031,0.07032 -0.15625,0.07422c-0.08593,0.00391 -0.28515,0.05078 -0.4375,0.10938c-0.30468,0.11328 -0.32031,0.11718 -0.6289,0.20312c-0.11719,0.03125 -0.26953,0.09375 -0.33985,0.14453c-0.07422,0.05078 -0.17578,0.07422 -0.23047,0.05078c-0.05078,-0.01953 -0.09765,0 -0.09765,0.04297c0,0.03907 -0.0625,0.07422 -0.13672,0.07422c-0.07813,0 -0.14063,0.03516 -0.14063,0.07422c0,0.04297 -0.02343,0.0625 -0.05468,0.04297c-0.03125,-0.01563 -0.21094,0.03906 -0.40235,0.13281c-0.1914,0.08985 -0.41797,0.16406 -0.5,0.16797c-0.08593,0 -0.16406,0.02734 -0.17578,0.05469c-0.03515,0.07812 -0.61328,0.36719 -0.73047,0.36719c-0.05468,0 -0.09765,0.03515 -0.09765,0.07031c0,0.03906 -0.07813,0.07422 -0.17578,0.07422c-0.09375,0 -0.17579,0.02734 -0.17579,0.0664c0,0.03907 -0.04296,0.07032 -0.10546,0.07032c-0.0586,0 -0.10157,0.03125 -0.10157,0.07031c0,0.03906 -0.0625,0.07031 -0.13672,0.07031c-0.07421,0 -0.15625,0.03125 -0.17968,0.07031c-0.02344,0.03907 -0.10157,0.07032 -0.17969,0.07032c-0.07422,0 -0.13281,0.03125 -0.13281,0.07031c0,0.03906 -0.05078,0.0664 -0.10938,0.0664c-0.0625,0 -0.09375,0.03516 -0.0664,0.07422c0.01953,0.03516 -0.02344,0.07032 -0.10157,0.07032c-0.07812,0 -0.14453,0.02734 -0.14453,0.0664c0,0.03906 -0.0625,0.07031 -0.14062,0.07031c-0.07813,0 -0.14063,0.03125 -0.14063,0.07032c0,0.03906 -0.05859,0.07031 -0.13281,0.07031c-0.07422,0 -0.14453,0.02344 -0.15625,0.05469c-0.01563,0.02734 -0.27734,0.17578 -0.58594,0.32812c-0.30859,0.14844 -0.57031,0.29688 -0.58203,0.33203c-0.01172,0.03125 -0.06641,0.0586 -0.11328,0.0586c-0.04688,0 -0.14453,0.0625 -0.21484,0.13672c-0.07032,0.07812 -0.16797,0.14062 -0.21875,0.14062c-0.05469,0 -0.09375,0.02734 -0.09375,0.0625c0,0.03516 -0.14454,0.14844 -0.32032,0.25391c-0.46093,0.26953 -0.4414,0.28125 1.54688,0.95703c3.74609,1.27734 3.80859,1.29297 4.77344,1.21875c1.01953,-0.07422 1.44921,-0.14844 4.14843,-0.69141c3.38282,-0.68359 4.42969,-0.51953 6.31641,0.98438c1.31641,1.05078 2.14062,1.39453 4.04297,1.69531c2.51953,0.39844 3.16015,1.25781 2.80469,3.76562c-0.03907,0.25782 -0.10547,0.75391 -0.14454,1.10157c-0.17968,1.4414 -0.4414,2.20312 -0.90234,2.67187c-0.40625,0.40625 -0.76953,0.54297 -2.31641,0.86328c-0.21484,0.04688 -0.49609,0.10547 -0.63281,0.13672c-0.13281,0.03125 -0.41015,0.09375 -0.60937,0.13281c-0.79688,0.16797 -1.11328,0.23829 -1.27735,0.28907c-0.09765,0.02734 -0.32031,0.08984 -0.49218,0.13672c-0.5,0.14062 -1.40625,0.5039 -1.75,0.70312c-0.17579,0.10156 -0.64844,0.36328 -1.05079,0.57422c-1.8789,1 -2.22656,1.23047 -2.89062,1.94531c-0.60938,0.65625 -0.98047,1.38672 -1.23828,2.4336c-0.2461,0.98828 -0.65235,1.51562 -1.44922,1.8789c-0.74219,0.33985 -1.15625,0.45313 -2.43359,0.65625c-0.26954,0.04297 -0.62891,0.10938 -0.79297,0.14453c-0.16407,0.03516 -0.39063,0.06641 -0.50391,0.06641c-0.19531,0 -0.5,0.05859 -1.15234,0.22656c-1.96485,0.49219 -2.17969,1.6875 -0.73438,4.04297c0.17969,0.28906 0.42578,0.69922 0.55469,0.91016c2.06641,3.40625 2.05078,3.39843 7.00391,2.79687c1.07421,-0.13281 4.01953,0.59766 6.5625,1.6211c0.08203,0.03515 0.23437,0.09375 0.33203,0.13281c0.09375,0.03906 0.24218,0.09765 0.33203,0.1289c0.08594,0.03907 0.30469,0.13282 0.48828,0.21094c0.17969,0.08203 0.35156,0.14844 0.37109,0.14844c0.02344,0 0.55078,0.25391 1.17188,0.56641c3.89062,1.94921 5.29297,3.60937 4.88672,5.78515c-0.03125,0.1836 -0.10157,0.55469 -0.14844,0.82422c-0.20313,1.16016 -0.85156,2.77734 -1.52734,3.81641c-0.0625,0.09765 -0.14844,0.22656 -0.1875,0.28906c-0.09766,0.15625 -0.66407,0.96875 -0.77344,1.10156c-0.3086,0.39063 -1.82813,2.23047 -1.89844,2.3086c-0.57031,0.58984 -1.66797,2.22265 -2.05078,3.03515c-0.5,1.08594 -0.64844,1.62891 -0.91406,3.41406c-0.07813,0.51954 -0.13282,0.80469 -0.28516,1.45313c-0.12109,0.51172 -0.41406,1.47656 -0.55078,1.80469c-1.58984,3.83203 -3.71094,3.89843 -5.29688,0.17187c-0.52734,-1.23437 -0.98828,-2.91797 -1.42578,-5.21484c-0.23047,-1.21094 -0.32422,-1.6211 -0.55468,-2.53906c-0.75,-2.94922 -1.91407,-4.94532 -3.53907,-6.07032c-1.46484,-1.01172 -1.92968,-1.41797 -2.33593,-2.01953c-0.79297,-1.17969 -1.14063,-2.74219 -1.23829,-5.60937c-0.09765,-2.89844 -0.4414,-3.8086 -2.03906,-5.39063c-0.76953,-0.76172 -1.11719,-1.01172 -2.55078,-1.85547c-4.19922,-2.46484 -6.92578,-5.36328 -8.96484,-9.51953c-0.54297,-1.10937 -0.69141,-1.45703 -1.02735,-2.36719c-0.42968,-1.16406 -0.41406,-1.15234 -0.68359,-0.59375c-0.12109,0.25782 -0.20703,0.4961 -0.19141,0.52735c0.01953,0.02734 0.00391,0.05469 -0.03906,0.05469c-0.03906,0 -0.07422,0.04687 -0.07422,0.10546c0,0.0625 -0.0625,0.24219 -0.14062,0.39844c-0.07813,0.16016 -0.14063,0.33203 -0.14063,0.38281c0,0.05079 -0.03125,0.08985 -0.07422,0.08985c-0.03906,0 -0.05468,0.02734 -0.03515,0.05859c0.01562,0.03125 -0.01172,0.14453 -0.06641,0.25391c-0.05469,0.10547 -0.10156,0.23828 -0.10156,0.29297c0,0.09765 -0.03516,0.17187 -0.20313,0.5c-0.04297,0.08984 -0.10156,0.30078 -0.12109,0.47265c-0.02734,0.17188 -0.07422,0.3125 -0.10547,0.3125c-0.03125,0 -0.05859,0.125 -0.05859,0.28125c0,0.15235 -0.03516,0.28125 -0.07422,0.28125c-0.03516,0 -0.07031,0.09375 -0.07031,0.20703c0,0.11719 -0.02735,0.21094 -0.06641,0.21094c-0.03906,0 -0.07031,0.09375 -0.07031,0.20703c0,0.11328 -0.03125,0.22266 -0.07032,0.25c-0.03906,0.02344 -0.07031,0.13282 -0.07031,0.2461c0,0.10937 -0.02344,0.21484 -0.05469,0.23437c-0.03125,0.01953 -0.0625,0.13672 -0.07031,0.26563c-0.01172,0.1289 -0.05078,0.24218 -0.08984,0.25781c-0.03516,0.01172 -0.06641,0.17578 -0.06641,0.36328c0,0.19141 -0.03125,0.34766 -0.07031,0.34766c-0.03906,0 -0.07031,0.13672 -0.07031,0.30859c0,0.17188 -0.03125,0.33203 -0.07032,0.35547c-0.03515,0.02344 -0.07031,0.16406 -0.07031,0.31641c0,0.14843 -0.02734,0.28906 -0.0664,0.3125c-0.03907,0.02734 -0.07032,0.22656 -0.07032,0.45703c0,0.22656 -0.03515,0.42968 -0.07422,0.45312c-0.03515,0.02344 -0.0664,0.2461 -0.0664,0.49219c0,0.25 -0.02735,0.45312 -0.0586,0.45312c-0.15234,0 -0.17968,8.61329 -0.03125,8.66407c0.0625,0.01562 0.08985,0.1914 0.08985,0.54297c0,0.28515 0.03125,0.53515 0.0664,0.55859c0.03907,0.02344 0.07422,0.22656 0.07422,0.45312c0,0.23047 0.03125,0.42969 0.07032,0.45704c0.03906,0.02343 0.0664,0.16406 0.0664,0.3125c0,0.15234 0.03516,0.29296 0.07031,0.3164c0.03907,0.02344 0.07032,0.1836 0.07032,0.35547c0,0.17188 0.03125,0.30859 0.07031,0.30859c0.03906,0 0.07031,0.14063 0.07031,0.3125c0,0.17188 0.03125,0.32813 0.07031,0.35547c0.03907,0.02344 0.07032,0.14844 0.07032,0.27735c0,0.13281 0.03125,0.25781 0.07031,0.28125c0.03516,0.02343 0.07031,0.13281 0.07031,0.24218c0,0.11329 0.03125,0.22266 0.07031,0.2461c0.03907,0.02734 0.07032,0.13672 0.07032,0.25c0,0.11328 0.03125,0.20703 0.07031,0.20703c0.03906,0 0.06641,0.09375 0.06641,0.21094c0,0.11328 0.03515,0.20703 0.07031,0.20703c0.03906,0 0.07422,0.10937 0.07422,0.24219c0,0.13281 0.02734,0.26171 0.0664,0.28515c0.03907,0.02344 0.07032,0.13672 0.07032,0.25c0,0.11328 0.02734,0.20313 0.0625,0.20313c0.03515,0 0.08203,0.12109 0.10937,0.26172c0.04688,0.26953 0.14063,0.57421 0.25781,0.82812c0.03907,0.07813 0.07813,0.1875 0.08594,0.24609c0.01563,0.09766 0.20313,0.53907 0.33203,0.78125c0.03516,0.06641 0.0625,0.16797 0.0625,0.23047c0,0.05469 0.03516,0.10157 0.07422,0.10157c0.04297,0 0.05859,0.02734 0.03906,0.0625c-0.01953,0.02734 0.04297,0.20703 0.13282,0.39453c0.09765,0.1875 0.17578,0.3789 0.17578,0.43359c0,0.05078 0.03125,0.08984 0.07031,0.08984c0.03906,0 0.06641,0.04688 0.06641,0.10157c0,0.05859 0.0625,0.21875 0.14453,0.35547c0.07422,0.13671 0.13672,0.29296 0.13672,0.34765c0,0.05078 0.02734,0.10547 0.05468,0.11719c0.02735,0.01562 0.16016,0.23828 0.28907,0.49609c0.1289,0.26172 0.26562,0.47266 0.29687,0.47266c0.03516,0 0.05859,0.0625 0.05859,0.14062c0,0.07813 0.03125,0.14063 0.07032,0.14063c0.03906,0 0.07031,0.0625 0.07031,0.14062c0,0.07813 0.03516,0.14063 0.07031,0.14063c0.03906,0 0.07031,0.0625 0.07031,0.13672c0,0.07812 0.02735,0.14062 0.0625,0.14062c0.03125,0 0.14844,0.17969 0.25782,0.40235c0.10547,0.22265 0.28125,0.53515 0.39062,0.69531c0.10938,0.16016 0.19922,0.32812 0.19922,0.36719c0,0.04297 0.02734,0.07422 0.0625,0.07422c0.03516,0 0.11328,0.10937 0.17578,0.24609c0.0625,0.12891 0.15625,0.28125 0.20313,0.32812c0.12109,0.125 0.53906,0.73438 0.53906,0.78907c0,0.02734 0.07812,0.125 0.17187,0.21875c0.10157,0.09765 0.17579,0.20312 0.17579,0.23828c0,0.03515 0.07031,0.13672 0.16015,0.22656c0.08594,0.08594 0.20313,0.24609 0.25391,0.34766c0.05469,0.10937 0.125,0.17578 0.16015,0.15625c0.03125,-0.01953 0.0586,0.01172 0.0586,0.07031c0,0.0625 0.03125,0.10937 0.0664,0.10937c0.03907,0 0.07422,0.03516 0.07422,0.07422c0,0.03907 0.07813,0.15625 0.17578,0.26172c0.09766,0.10547 0.24219,0.28516 0.31641,0.40625c0.07422,0.11719 0.27734,0.3711 0.45313,0.5625c0.57031,0.60938 0.66406,0.71875 0.66406,0.76563c0,0.0625 0.4375,0.44531 0.5039,0.44922c0.03125,0 0.05469,0.04296 0.05469,0.08984c0,0.04687 0.10156,0.16406 0.22266,0.26172c0.30469,0.23828 1.24609,1.1914 1.24609,1.26172c0,0.02734 0.0625,0.07031 0.14063,0.08984c0.07812,0.01953 0.14062,0.08594 0.14062,0.14453c0,0.0625 0.05078,0.11328 0.10938,0.11328c0.05859,0 0.09375,0.02735 0.07031,0.0625c-0.01953,0.03516 0.04687,0.09766 0.15625,0.14453c0.10156,0.04297 0.3125,0.20313 0.46484,0.35547c0.14844,0.15235 0.30078,0.27735 0.33594,0.27735c0.03516,0 0.04688,0.03125 0.02344,0.0625c-0.01953,0.03125 0.05469,0.10156 0.17187,0.14843c0.11328,0.04688 0.20703,0.10547 0.20703,0.13282c0,0.02343 0.14063,0.13672 0.3125,0.2539c0.17579,0.11328 0.31641,0.23047 0.32032,0.26172c0,0.03125 0.03906,0.05078 0.08984,0.05078c0.04688,0 0.13281,0.0625 0.19141,0.14063c0.05468,0.07812 0.125,0.14062 0.15625,0.14062c0.02734,0 0.15234,0.09375 0.27343,0.20703c0.11719,0.11719 0.26172,0.21094 0.3125,0.21094c0.05079,0 0.09375,0.03516 0.09375,0.07031c0,0.03907 0.05079,0.07032 0.10938,0.07032c0.0625,0 0.09375,0.03125 0.06641,0.07031c-0.02344,0.03906 0,0.07031 0.05468,0.07031c0.05078,0 0.16407,0.0625 0.2461,0.14063c0.08203,0.07812 0.17578,0.14062 0.21093,0.14062c0.03516,0 0.16407,0.09375 0.28125,0.21094c0.1211,0.11328 0.26563,0.21094 0.3125,0.21094c0.05079,0 0.16016,0.0625 0.24219,0.13672c0.08203,0.07812 0.17188,0.14062 0.19531,0.14062c0.02344,0 0.14454,0.07813 0.26954,0.17578c0.1289,0.09375 0.25,0.15235 0.27734,0.12891c0.02344,-0.02735 0.04687,-0.01172 0.04687,0.03515c0,0.04297 0.04688,0.08204 0.10547,0.08204c0.05469,0 0.10157,0.03125 0.10157,0.07421c0,0.03907 0.02734,0.05469 0.0625,0.03516c0.03515,-0.01953 0.11718,0.02344 0.1875,0.10156c0.0664,0.07422 0.18359,0.13672 0.2539,0.13672c0.07031,0 0.12891,0.03125 0.12891,0.07031c0,0.03907 0.0625,0.07032 0.14062,0.07032c0.07422,0 0.13672,0.03125 0.13672,0.07031c0,0.03516 0.0625,0.07031 0.14063,0.07031c0.07812,0 0.14062,0.03125 0.14062,0.07031c0,0.03907 0.0625,0.07032 0.14063,0.07032c0.07812,0 0.14062,0.02343 0.14062,0.05859c0,0.03125 0.14844,0.12891 0.33203,0.21484c0.17969,0.08985 0.39453,0.19532 0.47266,0.23438c0.30859,0.16406 0.64062,0.32422 0.85547,0.41016c0.1289,0.05468 0.23047,0.12109 0.23047,0.14453c0,0.03125 0.0625,0.05468 0.13281,0.05468c0.07422,0 0.15625,0.03125 0.17969,0.07032c0.02343,0.03906 0.125,0.07031 0.21875,0.07031c0.09765,0 0.15625,0.03125 0.13281,0.07031c-0.02344,0.03906 0.00781,0.07031 0.07031,0.07031c0.0586,0 0.24219,0.0625 0.40235,0.14063c0.15625,0.07812 0.32812,0.14062 0.3789,0.14062c0.05078,0 0.09375,0.03125 0.09375,0.07032c0,0.03515 0.0625,0.07031 0.14063,0.07031c0.07812,0 0.21093,0.03516 0.29687,0.07812c0.32422,0.16797 0.40235,0.19922 0.49219,0.19922c0.05078,0 0.21875,0.0586 0.36719,0.13282c0.14843,0.07421 0.34375,0.125 0.42968,0.11718c0.08985,-0.01172 0.16407,0.00782 0.16407,0.03907c0,0.03515 0.07422,0.0625 0.17187,0.0625c0.08985,0 0.1875,0.03125 0.21094,0.07031c0.02344,0.03906 0.15234,0.0664 0.28516,0.0664c0.13281,0 0.24218,0.03516 0.24218,0.07422c0,0.03516 0.07422,0.07032 0.16797,0.07032c0.09375,0 0.19141,0.02734 0.21485,0.0664c0.02734,0.03906 0.13671,0.07031 0.24609,0.07031c0.10937,0 0.21875,0.03125 0.23828,0.06641c0.02344,0.03125 0.16016,0.07813 0.30469,0.09766c0.61328,0.09375 0.78906,0.13672 0.82422,0.19531c0.02343,0.03516 0.16406,0.0625 0.3125,0.0625c0.14843,0 0.28906,0.03125 0.3164,0.07031c0.02344,0.03906 0.1836,0.07031 0.35547,0.07031c0.16797,0 0.3086,0.03125 0.3086,0.07032c0,0.03515 0.13671,0.07031 0.30078,0.07031c0.16406,0 0.32812,0.02734 0.36718,0.0625c0.0625,0.05859 0.24219,0.08594 1.32813,0.1875c0.22656,0.02344 0.45312,0.07031 0.49219,0.10156c0.09765,0.07813 2.76562,0.11719 3.17968,0.04688c0.17579,-0.03125 0.60157,-0.08594 0.94532,-0.125c1.28906,-0.14453 2.71484,-0.38282 3.78125,-0.62891c2.13672,-0.49219 4.54687,-1.24609 5.82812,-1.82422c0.33594,-0.14844 0.76953,-0.34375 1.25781,-0.55859c4.4375,-1.96485 9.16407,-5.60547 12.33985,-9.51172c0.17187,-0.21484 0.33594,-0.40625 0.36719,-0.42969c0.02734,-0.01953 -0.12891,-0.11719 -0.34766,-0.21875c-0.60156,-0.26953 -0.90625,-0.58984 -1.07031,-1.13672c-0.08594,-0.28906 -0.07813,-0.35547 0.21875,-1.67968c0.40625,-1.83985 0.43359,-2.56641 0.28125,-7.66797c-0.06641,-2.26953 -0.125,-3.17578 -0.25391,-3.85157c-0.52344,-2.78906 -1.62891,-3.69921 -4.51562,-3.71093c-1.46094,-0.00391 -3.31641,-0.1875 -4.12891,-0.40625c-0.65625,-0.1836 -0.82031,-0.26172 -1.45313,-0.73828c-2.84765,-2.13672 -3.37109,-4.53125 -1.55078,-7.1211c0.07422,-0.10547 0.13282,-0.21094 0.13282,-0.23437c0,-0.02344 0.12109,-0.22657 0.27343,-0.44922c1.11328,-1.64063 1.45703,-2.63281 1.23047,-3.54297c-0.14453,-0.59766 -0.08203,-0.80859 0.49219,-1.5625c0.84766,-1.125 1.53906,-1.42188 2.625,-1.11328c1.95312,0.55078 8.94141,0.92578 9.87109,0.52734c0.75782,-0.32422 1.42188,-1.67187 1.42188,-2.89062c0.0039,-1.78125 -1.36719,-2.44532 -4.28125,-2.07032c-0.5,0.0625 -0.94922,0.10157 -3.21094,0.28516c-1.87891,0.15234 -3.35156,0.06641 -3.65234,-0.21484c-0.25391,-0.23828 -0.64063,-2.22266 -0.64063,-3.30078c0,-2.85938 1.19922,-4.11719 5.34766,-5.625l0.33984,-0.125l-0.51562,-0.48047c-2.78125,-2.57032 -6.33985,-4.97657 -9.23047,-6.24219c-0.66406,-0.29297 -1.01563,-0.44531 -1.34766,-0.59375c-0.16406,-0.07422 -0.47265,-0.19922 -0.68359,-0.27344c-0.21094,-0.07812 -0.69922,-0.25781 -1.08203,-0.39844c-0.75782,-0.27734 -2.25391,-0.72656 -3.02735,-0.91015c-2.12109,-0.50391 -3.20703,-0.69922 -4.88672,-0.875c-0.38281,-0.04297 -0.875,-0.10547 -1.08984,-0.14453c-0.38672,-0.06641 -1.69141,-0.09375 -1.75391,-0.03516"/>
    <path fill="rgb(58.039216%,83.137255%,17.254902%)" fill-rule="evenodd" d="m57.93808,9.14542c-0.48828,0.23047 -0.60156,0.27344 -0.94531,0.38281c-0.15235,0.05079 -0.3086,0.11719 -0.34766,0.14844c-0.03516,0.02735 -0.13672,0.05469 -0.22266,0.05469c-0.08593,0 -0.17578,0.03125 -0.19922,0.07031c-0.02343,0.03906 -0.10546,0.07031 -0.17968,0.07031c-0.11719,0 -0.25782,0.0586 -0.48047,0.19141c-0.01953,0.01172 0.23828,0.29297 0.5625,0.63281c0.32422,0.33594 0.8125,0.85938 1.07812,1.16797c0.26953,0.3086 0.54688,0.6211 0.61719,0.70313c0.80859,0.89843 2.29688,3.02343 3.34375,4.75781c3.89844,6.48047 5.51953,14.75391 4.42578,22.60937c-0.20312,1.45704 -0.65625,3.64844 -0.96484,4.6211c-0.05078,0.15625 -0.12891,0.42187 -0.17969,0.59375c-0.62109,2.16797 -1.85937,5.05469 -3.03125,7.07422c-0.19141,0.32422 -0.41016,0.70312 -0.48437,0.83593c-0.28516,0.50391 -1.59375,2.4375 -2.03907,3.01172l-0.46093,0.59375l0.33203,0.08985c0.17968,0.04297 0.45703,0.08203 0.61328,0.08593c0.45703,0.00391 1.82812,-0.25 1.95312,-0.35937c0.03516,-0.03516 0.10938,-0.05859 0.16016,-0.05859c0.37891,0 2.24219,-1.20704 2.25391,-1.46094c0.0039,-0.05078 0.09375,-0.17969 0.19921,-0.28516c0.10547,-0.10937 0.1875,-0.23047 0.17188,-0.26953c-0.01172,-0.03906 0.05469,-0.13281 0.15234,-0.20703c0.09766,-0.07813 0.15625,-0.16406 0.12891,-0.19141c-0.02734,-0.02343 -0.01563,-0.0664 0.02344,-0.09375c0.03906,-0.02734 0.14843,-0.1914 0.24218,-0.36328c0.09375,-0.17187 0.22657,-0.375 0.29297,-0.45312c0.07032,-0.07422 0.125,-0.17578 0.125,-0.22657c0,-0.04687 0.0586,-0.09375 0.13672,-0.09375c0.07031,0 0.15235,-0.02734 0.17578,-0.0664c0.02344,-0.03906 -0.0039,-0.05078 -0.0664,-0.02735c-0.07032,0.02735 -0.10938,0.00391 -0.10938,-0.07031c0,-0.0625 0.03516,-0.11328 0.07031,-0.11328c0.03907,0 0.07032,-0.04297 0.07032,-0.09375c0,-0.04687 0.0625,-0.15625 0.14062,-0.23828c0.07813,-0.08203 0.14063,-0.20313 0.14063,-0.26172c0,-0.05859 0.03125,-0.10547 0.07031,-0.10547c0.03516,0 0.07031,-0.0625 0.07031,-0.14062c0,-0.07813 0.03125,-0.14063 0.07031,-0.14063c0.03907,0 0.07032,-0.05859 0.07032,-0.13281c0,-0.07422 0.02343,-0.14453 0.05468,-0.15625c0.02344,-0.01563 0.16016,-0.24609 0.29297,-0.51563c0.13282,-0.26953 0.26953,-0.50781 0.3086,-0.53515c0.03125,-0.02344 0.03906,-0.08203 0.01172,-0.1211c-0.02735,-0.04296 0.0039,-0.09765 0.0625,-0.12109c0.05859,-0.02344 0.10156,-0.09375 0.08984,-0.16016c-0.01172,-0.0664 0.03125,-0.11328 0.10156,-0.11328c0.0625,0 0.14063,-0.03125 0.17578,-0.0625c0.03125,-0.03515 0.01953,-0.04297 -0.02343,-0.01953c-0.04688,0.02735 -0.10157,-0.0039 -0.125,-0.0625c-0.0586,-0.15625 -0.05469,-0.16797 0.05859,-0.16797c0.0625,0 0.08594,-0.05078 0.0625,-0.13281c-0.01953,-0.07422 0,-0.15234 0.04297,-0.17969c0.04297,-0.02734 0.07422,-0.10937 0.07422,-0.1875c0,-0.07422 0.04687,-0.15234 0.10156,-0.17578c0.05469,-0.01953 0.08594,-0.08203 0.0625,-0.13672c-0.02344,-0.05468 0.01172,-0.11718 0.06641,-0.13672c0.05859,-0.02343 0.09375,-0.09765 0.07421,-0.16796c-0.01953,-0.07032 0,-0.15235 0.03907,-0.17579c0.04297,-0.02734 0.07812,-0.125 0.07812,-0.21875c0,-0.09765 0.03906,-0.16796 0.09375,-0.16796c0.0625,0 0.08594,-0.0586 0.0625,-0.17579c-0.02344,-0.125 0,-0.17578 0.07031,-0.17578c0.07422,0 0.09375,-0.05078 0.07032,-0.17578c-0.01953,-0.10156 -0.00391,-0.17187 0.04297,-0.17187c0.04296,0 0.08203,-0.07813 0.08203,-0.17188c0,-0.09375 0.02734,-0.1914 0.0664,-0.21484c0.03907,-0.02344 0.07032,-0.1211 0.07032,-0.21485c0,-0.09375 0.04296,-0.17187 0.09375,-0.17187c0.0625,0 0.08203,-0.06641 0.05859,-0.21875c-0.02344,-0.17969 -0.00781,-0.21484 0.07812,-0.17969c0.08985,0.03125 0.10547,0 0.07032,-0.1914c-0.01953,-0.13282 -0.00391,-0.25 0.04297,-0.27735c0.04296,-0.02734 0.07421,-0.14453 0.07421,-0.25781c0,-0.11328 0.03516,-0.20313 0.07422,-0.20313c0.03516,0 0.07032,-0.11328 0.07032,-0.24609c0,-0.13281 0.02734,-0.24609 0.0664,-0.24609c0.03906,0 0.07031,-0.10938 0.07031,-0.24219c0,-0.13672 0.03125,-0.24609 0.07032,-0.24609c0.03906,0 0.07031,-0.12891 0.07031,-0.28125c0,-0.15625 0.03125,-0.28125 0.07031,-0.28125c0.03516,0 0.0625,-0.11329 0.05469,-0.25c-0.00391,-0.13672 0.03125,-0.27344 0.08203,-0.3086c0.05859,-0.03515 0.07422,-0.125 0.04297,-0.26562c-0.03906,-0.16797 -0.01563,-0.24219 0.08984,-0.33594c0.11328,-0.09375 0.125,-0.15625 0.07422,-0.29297c-0.07422,-0.19141 -0.02344,-0.43359 0.08594,-0.43359c0.04297,0 0.05078,-0.1211 0.02344,-0.30469c-0.03516,-0.23438 -0.01953,-0.33203 0.07422,-0.42188c0.08593,-0.08984 0.10546,-0.18359 0.07031,-0.36718c-0.05078,-0.28516 0.01172,-0.67578 0.10547,-0.6211c0.03515,0.01953 0.05468,-0.21484 0.04687,-0.52734c-0.01172,-0.35938 0.01563,-0.58203 0.0625,-0.61328c0.08985,-0.05469 0.10938,-0.67188 0.10547,-3.65625c-0.00391,-3.25391 -0.00781,-3.52735 -0.09766,-3.58203c-0.05468,-0.03516 -0.08203,-0.23047 -0.07031,-0.5625c0.00781,-0.33203 -0.01562,-0.52344 -0.07031,-0.5586c-0.05469,-0.03515 -0.07813,-0.21484 -0.07031,-0.51172c0.01172,-0.25 -0.01172,-0.44531 -0.04297,-0.42578c-0.08985,0.0586 -0.13672,-0.20703 -0.09375,-0.52734c0.02734,-0.19531 0.01562,-0.27734 -0.03516,-0.24609c-0.10156,0.0625 -0.16015,-0.21875 -0.08984,-0.40625c0.04687,-0.1211 0.02734,-0.1875 -0.07813,-0.27735c-0.10547,-0.09375 -0.1289,-0.16797 -0.08984,-0.33594c0.03125,-0.14062 0.01562,-0.23046 -0.04297,-0.26953c-0.05469,-0.03125 -0.08594,-0.17187 -0.07812,-0.34375c0.0039,-0.17968 -0.01563,-0.27343 -0.0586,-0.24609c-0.04297,0.02344 -0.07031,-0.07031 -0.07031,-0.24219c0,-0.15625 -0.03125,-0.28515 -0.07031,-0.28515c-0.03907,0 -0.07032,-0.125 -0.07032,-0.28125c0,-0.15235 -0.03125,-0.27735 -0.07031,-0.27735c-0.03906,0 -0.0664,-0.09765 -0.0664,-0.21094c0,-0.11718 -0.03516,-0.21093 -0.07032,-0.21093c-0.03906,0 -0.07422,-0.10938 -0.07422,-0.24219c0,-0.13672 -0.03515,-0.24609 -0.07812,-0.24609c-0.04688,0 -0.0625,-0.08594 -0.03906,-0.24219c0.03515,-0.19922 0.01953,-0.23047 -0.07032,-0.19922c-0.08593,0.03516 -0.10156,0 -0.07812,-0.17969c0.02734,-0.16015 0.00781,-0.21875 -0.06641,-0.21875c-0.07422,0 -0.09375,-0.0625 -0.07031,-0.21094c0.01953,-0.14062 0.00391,-0.21093 -0.0625,-0.21093c-0.05469,0 -0.08984,-0.07813 -0.08984,-0.17578c0,-0.09375 -0.03907,-0.17579 -0.08203,-0.17579c-0.04688,0 -0.0625,-0.07031 -0.04688,-0.16796c0.02344,-0.10547 0,-0.1875 -0.05859,-0.20704c-0.05078,-0.02343 -0.09375,-0.08593 -0.09375,-0.14453c0,-0.0625 -0.03125,-0.16406 -0.0625,-0.23047c-0.1875,-0.36328 -0.23047,-0.5 -0.1875,-0.57031c0.02734,-0.04687 -0.00391,-0.07812 -0.07032,-0.07812c-0.08203,0 -0.10546,-0.03907 -0.08203,-0.14063c0.02344,-0.08203 -0.0039,-0.16406 -0.07031,-0.19922c-0.06641,-0.03906 -0.09375,-0.11718 -0.07031,-0.20703c0.01953,-0.08984 0.0039,-0.14062 -0.04297,-0.13281c-0.04688,0.00781 -0.07422,-0.04688 -0.06641,-0.125c0.00391,-0.07422 -0.03515,-0.16406 -0.09375,-0.19531c-0.07812,-0.04688 -0.08593,-0.08203 -0.01953,-0.16016c0.0625,-0.07812 0.0586,-0.09766 -0.03125,-0.09766c-0.07031,0 -0.11719,-0.05859 -0.11719,-0.14062c0,-0.07813 -0.02734,-0.14063 -0.0664,-0.14063c-0.03906,0 -0.07031,-0.0625 -0.07031,-0.14062c0,-0.07422 -0.03125,-0.14063 -0.07032,-0.14063c-0.03906,0 -0.07031,-0.0625 -0.07031,-0.13671c0,-0.08204 -0.03125,-0.14454 -0.07031,-0.14454c-0.03906,0 -0.07031,-0.0625 -0.07031,-0.13671c0,-0.07813 -0.02344,-0.14063 -0.05079,-0.14063c-0.03125,0 -0.13281,-0.17187 -0.23046,-0.38672c-0.09375,-0.21094 -0.19532,-0.38281 -0.22657,-0.38281c-0.02734,0 -0.05078,-0.0625 -0.05078,-0.14063c0,-0.07812 -0.03515,-0.14062 -0.07031,-0.14062c-0.03906,0 -0.07031,-0.0625 -0.07031,-0.14063c0,-0.07421 -0.03516,-0.13671 -0.07813,-0.13671c-0.04687,0 -0.0625,-0.07813 -0.03515,-0.19532c0.01953,-0.10547 0.01953,-0.15234 0,-0.10547c-0.05469,0.1211 -0.16797,0.10938 -0.16797,-0.01562c0,-0.05859 -0.03125,-0.10547 -0.07032,-0.10547c-0.03515,0 -0.07031,-0.0625 -0.07031,-0.14062c0,-0.07422 -0.02734,-0.13672 -0.0664,-0.13672c-0.03907,0 -0.07032,-0.04688 -0.07032,-0.09375c0,-0.05078 -0.0664,-0.16016 -0.14062,-0.24219c-0.07813,-0.08594 -0.14063,-0.19531 -0.14063,-0.25391c0,-0.05468 -0.02343,-0.11328 -0.05468,-0.125c-0.09375,-0.03906 -0.38282,-0.48437 -0.33985,-0.52734c0.01953,-0.01953 -0.03906,-0.10156 -0.13672,-0.17969c-0.09765,-0.07422 -0.16406,-0.17187 -0.14843,-0.21484c0.01171,-0.04297 -0.05079,-0.14063 -0.14063,-0.21094c-0.09375,-0.07031 -0.15625,-0.16797 -0.14062,-0.20703c0.01171,-0.04297 -0.0625,-0.16406 -0.17188,-0.26953c-0.21094,-0.20703 -0.25391,-0.375 -0.10937,-0.4336c0.04687,-0.01953 0.01171,-0.03125 -0.07813,-0.02343c-0.10156,0.00781 -0.19531,-0.03907 -0.24609,-0.125c-0.04297,-0.07422 -0.1211,-0.17969 -0.16797,-0.23047c-0.27735,-0.30078 -0.44531,-0.58594 -0.41016,-0.6836c0.02735,-0.0664 0.01172,-0.08984 -0.03125,-0.0625c-0.14062,0.08204 -0.41406,-0.2539 -0.37109,-0.45312c0.02344,-0.12109 0.01562,-0.14844 -0.02735,-0.09375c-0.07421,0.10937 -0.78515,-0.60156 -0.78515,-0.78906c0,-0.06641 0.03125,-0.09375 0.07812,-0.0625c0.05078,0.03125 0.0625,0.01953 0.03516,-0.02735c-0.02734,-0.04297 -0.08984,-0.0625 -0.13672,-0.04297c-0.14453,0.05469 -1.42187,-1.30078 -1.30078,-1.38281c0.07031,-0.04687 0.05469,-0.05469 -0.05859,-0.02344c-0.14454,0.03907 -0.22657,-0.05468 -0.10547,-0.125c0.02734,-0.01562 0.01172,-0.01562 -0.03907,-0.0039c-0.12109,0.03125 -0.30078,-0.14844 -0.26953,-0.26953c0.01172,-0.05078 0.01172,-0.06641 -0.0039,-0.03907c-0.07032,0.1211 -0.16407,0.03907 -0.125,-0.10546c0.03125,-0.11329 0.02343,-0.12891 -0.02344,-0.0586c-0.05469,0.07813 -0.14453,0.03125 -0.44531,-0.25781c-0.33594,-0.32031 -0.69922,-0.64844 -0.71485,-0.64453c-0.0039,0 -0.17968,0.08203 -0.39062,0.18359"/>
    <path fill="rgb(65.098039%,86.666667%,65.098039%)" fill-rule="evenodd" d="m15.16855,5.95011c-0.05469,0.07812 -0.14453,0.14062 -0.19532,0.14062c-0.08984,0 -0.4375,0.30469 -0.4375,0.38282c0,0.08203 0.16407,0.03125 0.27344,-0.08594c0.14063,-0.14844 0.53906,-0.36719 0.67188,-0.36719c0.12109,0 2.62109,0.82031 2.78515,0.91406c0.0625,0.03516 0.1836,0.06641 0.25391,0.06641c0.07812,0 0.15625,0.02344 0.17187,0.05859c0.01954,0.02735 0.19922,0.09766 0.39454,0.15235c0.19921,0.05078 0.375,0.12109 0.39453,0.15234c0.01953,0.03125 0.09765,0.0586 0.17187,0.0586c0.07422,0 0.1875,0.02734 0.25781,0.0625c0.11329,0.05859 0.27344,0.10546 1.01172,0.28906c0.36719,0.09375 1.83985,0.05078 2.51953,-0.07031c0.95704,-0.17188 1.15625,-0.21094 1.48829,-0.28125c1.01953,-0.22657 2.36718,-0.48047 2.80078,-0.52735c0.15625,-0.01953 0.54297,-0.07031 0.85937,-0.11328c0.72656,-0.09766 2.10547,0.07813 2.35938,0.30078c0.03515,0.03125 0.10937,0.0586 0.16015,0.0586c0.125,0 0.83203,0.48046 1.45313,0.98046c0.875,0.71094 1.73047,1.17969 2.51953,1.38672c0.15625,0.03907 0.40625,0.10547 0.55859,0.14063c0.15625,0.04297 0.42188,0.09375 0.59766,0.11719c2.98828,0.41796 3.4375,0.99609 3.08203,3.95703c-0.4375,3.63672 -0.53516,3.7539 -3.53906,4.3789c-0.3086,0.0625 -0.6836,0.14063 -0.83985,0.17578c-0.15234,0.03516 -0.42187,0.09375 -0.59375,0.12891c-0.17578,0.03516 -0.45703,0.10156 -0.63281,0.14453c-0.17187,0.04297 -0.40234,0.09375 -0.50781,0.11719c-0.10547,0.02344 -0.21094,0.06641 -0.23047,0.10156c-0.01953,0.03125 -0.11719,0.0586 -0.21094,0.0586c-0.09375,0 -0.22656,0.03125 -0.29297,0.0625c-0.0664,0.03515 -0.19921,0.09375 -0.29687,0.13281c-0.26172,0.10547 -0.86719,0.39453 -0.91016,0.43359c-0.04687,0.05078 -0.17578,0.125 -1.16015,0.63672c-2.64063,1.37891 -3.52735,2.32813 -4.02344,4.30078c-0.43359,1.73438 -1.08984,2.09766 -4.85938,2.69141c-1.80078,0.28515 -2.48828,0.55859 -2.95703,1.17578c-0.51172,0.67187 -0.10937,2.08594 1.10547,3.875c0.15235,0.22656 0.27735,0.42578 0.27735,0.44531c0,0.14063 1.29687,1.97266 1.64453,2.32422c0.79297,0.80078 1.08203,0.83594 4.26953,0.50781c1.79687,-0.18359 2.14453,-0.16797 3.2539,0.12891c0.21094,0.05469 0.4961,0.125 0.63282,0.16016c0.13281,0.03125 0.36718,0.09375 0.52343,0.14062c0.15235,0.04297 0.36719,0.09375 0.47266,0.11719c0.10547,0.01953 0.21094,0.0625 0.23047,0.09765c0.02344,0.03125 0.13281,0.0625 0.24219,0.0625c0.10937,0 0.21875,0.03125 0.24218,0.07032c0.02735,0.03515 0.10547,0.07031 0.1836,0.07031c0.07422,0 0.20312,0.03516 0.29297,0.07812c0.32812,0.17188 0.39843,0.19922 0.5039,0.19922c0.0586,0 0.17969,0.03907 0.26563,0.08203c0.32812,0.17188 0.40234,0.19922 0.5039,0.19922c0.0586,0 0.16407,0.02735 0.23047,0.0625c0.17188,0.08985 0.52735,0.24219 1.17188,0.5c0.63281,0.2461 2.69531,1.26953 2.98437,1.47266c0.10157,0.07422 0.20703,0.13281 0.23438,0.13281c0.0664,0 0.69531,0.4375 0.72265,0.50391c0.01563,0.03515 0.07032,0.05859 0.125,0.05859c0.05469,0 0.09766,0.02344 0.09766,0.05469c0,0.03125 0.09766,0.11328 0.22266,0.18359c0.35547,0.21485 1.40625,1.30469 1.64843,1.72266c0.51172,0.88281 0.53125,1.625 0.09375,3.63672c-0.07031,0.30859 -0.39453,1.28515 -0.53906,1.61328c-0.21875,0.48047 -0.47265,1.01172 -0.51172,1.04687c-0.03515,0.03516 -0.14843,0.21875 -0.3164,0.52735c-0.10157,0.18359 -0.33594,0.55078 -0.38672,0.59375c-0.02344,0.01953 -0.19141,0.24609 -0.375,0.50781c-0.34375,0.48828 -0.88672,1.15625 -2.41406,2.98438c-0.85938,1.03125 -1.84375,2.67187 -2.1211,3.54296c-0.05078,0.15625 -0.11328,0.3125 -0.14453,0.34766c-0.03125,0.03516 -0.05469,0.15234 -0.05469,0.25781c0,0.10547 -0.02734,0.20703 -0.0625,0.22657c-0.03125,0.02343 -0.08203,0.1914 -0.10937,0.375c-0.36719,2.49218 -0.53906,3.26953 -1,4.5c-1.33594,3.58203 -3.45313,3.97656 -4.89844,0.90625c-0.30078,-0.64844 -0.44141,-0.97657 -0.44141,-1.06641c0,-0.05078 -0.02343,-0.125 -0.05859,-0.16016c-0.02734,-0.03515 -0.12891,-0.30468 -0.21875,-0.58984c-0.08594,-0.28906 -0.18359,-0.60547 -0.21875,-0.70313c-0.08203,-0.24218 -0.44922,-1.8164 -0.58594,-2.48437c-0.28125,-1.44141 -0.48047,-2.40234 -0.53515,-2.64063c-0.10157,-0.43359 -0.1875,-0.77343 -0.26563,-1.03515c-0.03906,-0.13281 -0.08984,-0.32031 -0.11328,-0.41797c-0.02344,-0.09766 -0.07031,-0.23828 -0.09766,-0.31641c-0.03125,-0.07422 -0.09375,-0.26562 -0.14062,-0.41797c-0.04688,-0.15625 -0.11719,-0.35937 -0.16016,-0.45703c-0.03906,-0.09375 -0.09765,-0.23828 -0.1289,-0.3125c-0.51563,-1.38281 -1.5586,-2.88672 -2.48047,-3.57422c-0.15625,-0.11328 -0.29688,-0.22656 -0.31641,-0.24609c-0.01562,-0.01953 -0.23828,-0.17969 -0.48828,-0.35156c-2.39062,-1.64063 -2.89062,-2.79297 -3.08203,-7.10156c-0.14063,-3.19141 -0.42188,-3.94532 -2.07813,-5.58204c-0.64062,-0.63281 -1.58203,-1.38281 -1.73828,-1.38281c-0.02343,0 -0.17968,-0.09375 -0.34765,-0.21094c-0.16797,-0.11328 -0.32032,-0.20703 -0.33985,-0.20703c-0.13672,0 -2.4414,-1.53515 -3.125,-2.08203c-1.20312,-0.95703 -2.51953,-2.25 -3.22265,-3.16797c-0.13282,-0.17578 -0.26172,-0.33203 -0.28125,-0.34765c-0.01953,-0.01953 -0.11328,-0.14844 -0.20703,-0.28125c-0.08985,-0.13672 -0.1875,-0.26172 -0.21094,-0.28125c-0.39453,-0.31641 -2.21875,-3.61719 -2.73828,-4.95313c-0.08203,-0.21484 -0.1875,-0.47656 -0.26563,-0.66406c-0.3125,-0.75 -0.45703,-1.42578 -0.3164,-1.47656c0.05468,-0.02344 0.08203,-0.08985 0.05859,-0.14844c-0.02344,-0.05859 -0.00781,-0.10938 0.03516,-0.10938c0.04296,0 0.07812,-0.0625 0.07812,-0.13671c0,-0.08204 0.03125,-0.14454 0.07031,-0.14454c0.03907,0 0.07032,-0.0625 0.07032,-0.13671c0,-0.07813 0.02734,-0.14063 0.05468,-0.14063c0.03125,0 0.10157,-0.10937 0.15625,-0.24609c0.05078,-0.13282 0.1211,-0.24219 0.15235,-0.24219c0.03125,0 0.05468,-0.0625 0.05468,-0.14063c0,-0.07812 0.03125,-0.14062 0.07032,-0.14062c0.03906,0 0.07031,-0.0625 0.07031,-0.14063c0,-0.07812 0.03516,-0.14062 0.07031,-0.14062c0.03906,0 0.07031,-0.04688 0.07031,-0.10156c0,-0.0625 0.03125,-0.10938 0.07032,-0.10938c0.03906,0 0.07031,-0.04687 0.07031,-0.10156c0,-0.05859 0.03125,-0.10938 0.07031,-0.10938c0.03906,0 0.07031,-0.0625 0.07031,-0.13671c0,-0.07813 0.03125,-0.14063 0.07032,-0.14063c0.03515,0 0.07031,-0.05078 0.07031,-0.10547c0,-0.0625 0.0625,-0.17969 0.13672,-0.26172c0.07812,-0.08203 0.14062,-0.1914 0.14062,-0.23828c0,-0.05469 0.03516,-0.09375 0.07032,-0.09375c0.03906,0 0.07031,-0.04297 0.07031,-0.09375c0,-0.05078 0.0625,-0.16015 0.13672,-0.24219c0.08203,-0.08203 0.125,-0.19531 0.10156,-0.2539c-0.02734,-0.06641 -0.00391,-0.11328 0.05078,-0.11328c0.09375,-0.00391 0.76172,-0.96485 0.76172,-1.09375c0,-0.03125 0.0625,-0.10938 0.14062,-0.16407c0.07813,-0.05468 0.14063,-0.13671 0.14063,-0.17968c0,-0.04688 0.09375,-0.17969 0.21094,-0.30078c0.11328,-0.11719 0.20703,-0.2461 0.20703,-0.27735c0,-0.03125 0.09375,-0.16015 0.21094,-0.28125c0.11328,-0.12109 0.21093,-0.2539 0.21093,-0.29687c0,-0.03907 0.11719,-0.19141 0.26172,-0.33203c0.14844,-0.14063 0.34375,-0.36719 0.4375,-0.5c0.09375,-0.13672 0.25,-0.32422 0.35156,-0.42188c0.10157,-0.09766 0.21094,-0.22656 0.2461,-0.29297c0.14844,-0.26562 2.86719,-2.94922 3.63281,-3.59375c0.1875,-0.15234 0.37891,-0.32031 0.42969,-0.36719c0.04687,-0.04687 0.10937,-0.08593 0.13672,-0.08593c0.12109,0 0.25781,-0.22266 0.17968,-0.29688c-0.05859,-0.0625 -0.07812,-0.0625 -0.07812,0c0,0.03906 -0.05859,0.09375 -0.12891,0.1211c-0.07422,0.01953 -0.30859,0.21093 -0.52734,0.42187c-0.21875,0.21094 -0.42578,0.38281 -0.46484,0.38281c-0.03516,0 -0.41016,0.35547 -0.83594,0.78907c-0.42578,0.43359 -0.79688,0.8125 -0.82422,0.83984c-1.14844,1.12109 -1.48828,1.46875 -1.48828,1.52344c0,0.03515 -0.20313,0.27734 -0.45313,0.53515c-0.2539,0.26172 -0.45703,0.4961 -0.45703,0.52344c0,0.02734 -0.03906,0.08984 -0.08984,0.14453c-0.04688,0.05078 -0.1836,0.21875 -0.29688,0.3711c-0.11328,0.15625 -0.26172,0.32812 -0.33203,0.39453c-0.0625,0.0625 -0.12109,0.14453 -0.12109,0.1875c0,0.04687 -0.03125,0.08203 -0.07031,0.08203c-0.03516,0 -0.07032,0.03906 -0.07032,0.08984c0,0.04688 -0.0625,0.13672 -0.14062,0.19141c-0.07422,0.05469 -0.13672,0.13281 -0.13672,0.17187c0,0.04297 -0.09766,0.1836 -0.21094,0.31641c-0.11719,0.13281 -0.21094,0.27734 -0.21094,0.31641c0,0.03906 -0.0625,0.12109 -0.14062,0.17578c-0.07422,0.05468 -0.14063,0.14843 -0.14063,0.20703c0,0.0625 -0.0625,0.15625 -0.13671,0.21094c-0.08204,0.05468 -0.14454,0.15234 -0.14454,0.21093c0,0.0625 -0.05859,0.15235 -0.13281,0.20703c-0.07812,0.05469 -0.12109,0.11719 -0.10547,0.14844c0.01563,0.02344 -0.01562,0.08985 -0.07422,0.13281c-0.05859,0.04688 -0.10546,0.12891 -0.10546,0.17579c0,0.04687 -0.04688,0.1289 -0.10157,0.17187c-0.05859,0.05078 -0.17578,0.23438 -0.26172,0.41406c-0.08984,0.17969 -0.17578,0.33985 -0.19531,0.35938c-0.08594,0.08203 -0.21094,0.35547 -0.21094,0.45312c0,0.0586 -0.02734,0.10547 -0.0625,0.10547c-0.03515,0 -0.07812,0.05469 -0.09765,0.125c-0.05469,0.16406 -0.28125,0.53516 -0.34766,0.56641c-0.02734,0.01172 -0.05469,0.08203 -0.05469,0.15625c0,0.07422 -0.02734,0.13672 -0.0664,0.13672c-0.03906,0 -0.07031,0.0625 -0.07031,0.13672c0,0.07812 -0.03125,0.14062 -0.07032,0.14062c-0.03906,0 -0.07031,0.0625 -0.07031,0.14063c0,0.07421 -0.03125,0.13671 -0.07031,0.13671c-0.03906,0 -0.07031,0.0625 -0.07031,0.14454c0,0.07421 -0.03125,0.13671 -0.07032,0.13671c-0.03906,0 -0.0664,0.0625 -0.0664,0.13672c0,0.07422 -0.03516,0.15625 -0.07422,0.17969c-0.08594,0.05469 -0.08985,0.33203 -0.00391,0.42578c0.03516,0.03516 0.19531,0.42578 0.35938,0.8711c0.33593,0.92187 0.48437,1.26171 1.03125,2.3789c2.03906,4.15625 4.76562,7.05469 8.96484,9.51953c1.43359,0.84375 1.78125,1.09375 2.55078,1.85547c1.59766,1.58203 1.94141,2.49219 2.03906,5.39063c0.09766,2.86718 0.44532,4.42968 1.23829,5.60937c0.40625,0.60156 0.87109,1.00781 2.33593,2.01953c0.91407,0.62891 1.8086,1.69532 2.3711,2.8125c0.51562,1.02735 1.13672,2.92578 1.44922,4.4336c0.16015,0.77343 0.19531,0.95312 0.27343,1.36328c1.5625,8.29297 4.46875,10.47265 6.72266,5.04297c0.13672,-0.32813 0.42969,-1.29297 0.55078,-1.80469c0.15234,-0.64844 0.20703,-0.93359 0.28516,-1.45313c0.26562,-1.78515 0.41406,-2.32812 0.91406,-3.41406c0.38281,-0.8125 1.48047,-2.44531 2.05078,-3.03515c0.07031,-0.07813 1.58984,-1.91797 1.89844,-2.3086c0.10937,-0.13281 0.67578,-0.94531 0.77344,-1.10156c0.03906,-0.0625 0.125,-0.19141 0.1875,-0.28906c0.67578,-1.03907 1.32421,-2.65625 1.52734,-3.81641c0.04687,-0.26953 0.11719,-0.64062 0.14844,-0.82422c0.40625,-2.17578 -0.9961,-3.83594 -4.88672,-5.78515c-0.6211,-0.3125 -1.14844,-0.56641 -1.17188,-0.56641c-0.01953,0 -0.1914,-0.06641 -0.37109,-0.14844c-0.18359,-0.07812 -0.39453,-0.16797 -0.47266,-0.19922c-0.1875,-0.07422 -0.44922,-0.17578 -0.66406,-0.26562c-2.35547,-0.98047 -5.50781,-1.76172 -6.57812,-1.62891c-4.95313,0.60156 -4.9375,0.60938 -7.00391,-2.79687c-0.12891,-0.21094 -0.375,-0.6211 -0.55469,-0.91016c-1.44531,-2.35547 -1.23047,-3.55078 0.73438,-4.04297c0.65234,-0.16797 0.95703,-0.22656 1.15234,-0.22656c0.11328,0 0.33984,-0.03125 0.50391,-0.06641c0.16406,-0.03515 0.52343,-0.10156 0.79297,-0.14453c1.27734,-0.20312 1.6914,-0.3164 2.43359,-0.65625c0.79687,-0.36328 1.20312,-0.89062 1.44922,-1.8789c0.25781,-1.04688 0.6289,-1.77735 1.23828,-2.4336c0.66406,-0.71484 1.01172,-0.94531 2.89062,-1.94531c0.40235,-0.21094 0.875,-0.47266 1.05079,-0.57422c0.34375,-0.19922 1.25,-0.5625 1.75,-0.70312c0.17187,-0.04688 0.39453,-0.10938 0.49218,-0.13672c0.17188,-0.05469 0.60157,-0.14844 1.29297,-0.29297c0.19141,-0.03906 0.46094,-0.09766 0.59375,-0.12891c0.13672,-0.03125 0.41797,-0.08984 0.63281,-0.13672c1.54688,-0.32031 1.91016,-0.45703 2.31641,-0.86328c0.46094,-0.46875 0.72266,-1.23047 0.90234,-2.67187c0.03907,-0.34766 0.10547,-0.84375 0.14454,-1.10157c0.35546,-2.50781 -0.28516,-3.36718 -2.80469,-3.76562c-1.90235,-0.30078 -2.72656,-0.64453 -4.04297,-1.69531c-1.88672,-1.50391 -2.93359,-1.66797 -6.31641,-0.98438c-4.57031,0.92188 -4.64453,0.92188 -7,0.11719c-0.51953,-0.17578 -1.55859,-0.52734 -2.30859,-0.77344c-0.75391,-0.25 -1.39453,-0.48437 -1.43359,-0.51953c-0.10938,-0.10937 -0.28125,-0.07422 -0.38672,0.07422m-0.98047,0.69922c-0.05469,0.07812 -0.14453,0.14062 -0.19141,0.14062c-0.05078,0 -0.08984,0.03516 -0.08984,0.07032c0,0.03906 -0.03516,0.07031 -0.07031,0.07031c-0.1211,0 -0.42579,0.33984 -0.35157,0.38672c0.03907,0.01953 0.16797,-0.05469 0.28907,-0.17578c0.125,-0.11719 0.2539,-0.21094 0.28906,-0.21094c0.0664,0 0.40234,-0.31641 0.40234,-0.37891c0,-0.09375 -0.1875,-0.02734 -0.27734,0.09766m-1.05469,0.80859c-0.11719,0.14453 -0.02734,0.21485 0.10547,0.08203c0.05859,-0.05859 0.10937,-0.125 0.10937,-0.14843c0,-0.07813 -0.125,-0.03907 -0.21484,0.0664m44.94922,1.48828c-0.09375,0.06641 -0.375,0.20313 -0.62891,0.3086c-0.46875,0.1914 -0.52343,0.26953 -0.07812,0.10156c0.44922,-0.16406 0.83984,-0.35547 0.83984,-0.41016c0,-0.11718 0.21485,-0.04297 0.38672,0.12891c0.23438,0.23047 0.28906,0.18359 0.07813,-0.0625c-0.1875,-0.21875 -0.35547,-0.23828 -0.59766,-0.06641m-1.71875,0.69141c-4.96484,1.76953 -6.09375,2.62891 -6.51563,4.96094c-0.22656,1.25781 0.10938,4.03906 0.53907,4.4375c0.30078,0.28125 1.77343,0.36718 3.65234,0.21484c2.26172,-0.18359 2.71094,-0.22266 3.21094,-0.28516c2.91406,-0.375 4.28515,0.28907 4.28125,2.07032c0,1.21875 -0.66406,2.5664 -1.42188,2.89062c-0.92968,0.39844 -7.91797,0.02344 -9.87109,-0.52734c-1.08594,-0.3086 -1.77734,-0.01172 -2.625,1.11328c-0.57422,0.75391 -0.63672,0.96484 -0.49219,1.5625c0.22656,0.91016 -0.11719,1.90234 -1.23047,3.54297c-0.15234,0.22265 -0.27343,0.42578 -0.27343,0.44922c0,0.02343 -0.0586,0.1289 -0.13282,0.23437c-1.82031,2.58985 -1.29687,4.98438 1.55078,7.1211c0.63282,0.47656 0.79688,0.55468 1.45313,0.73828c0.8125,0.21875 2.66797,0.40234 4.12891,0.40625c2.88671,0.01172 3.99218,0.92187 4.51562,3.71093c0.12891,0.67579 0.1875,1.58204 0.25391,3.85157c0.15234,5.10156 0.125,5.82812 -0.28125,7.66797c-0.29688,1.32421 -0.30469,1.39062 -0.21875,1.67968c0.19922,0.65625 0.58984,1 1.48047,1.29297c0.4414,0.14453 1.74218,0.20313 1.92578,0.08594c0.04687,-0.02734 -0.27344,-0.03906 -0.70313,-0.02734c-0.92578,0.03125 -1.71484,-0.21485 -2.1875,-0.67188c-0.49219,-0.47656 -0.52734,-0.84375 -0.22656,-2.18359c0.08203,-0.37891 0.17187,-0.85547 0.27734,-1.47266c0.11328,-0.67187 0.17578,-2.49609 0.11719,-3.53516c-0.02734,-0.5 -0.08203,-1.99609 -0.12109,-3.32421c-0.14453,-5.11329 -0.8086,-6.55079 -3.25782,-7.0625c-0.1914,-0.04297 -1.19921,-0.10938 -2.23828,-0.15235c-2.98828,-0.12109 -3.85547,-0.3125 -4.86718,-1.07422c-0.67969,-0.51562 -1.4336,-1.22265 -1.67579,-1.58203c-0.09375,-0.13672 -0.1875,-0.26172 -0.21093,-0.28125c-0.01953,-0.01953 -0.08203,-0.10937 -0.13282,-0.20312c-0.05078,-0.08985 -0.15234,-0.27344 -0.22656,-0.40235c-0.07422,-0.1289 -0.13281,-0.29297 -0.13281,-0.36328c0,-0.0664 -0.03906,-0.16015 -0.08203,-0.20312c-0.05469,-0.05469 -0.08594,-0.36719 -0.08985,-0.8711c0,-0.71875 0.04688,-1.04687 0.24219,-1.55859c0.1211,-0.32813 0.73828,-1.52734 0.85938,-1.67969c0.14062,-0.17578 0.99218,-1.58203 1.16406,-1.92969c0.49219,-0.96484 0.55859,-1.39843 0.38672,-2.50781c-0.10938,-0.69922 1.10937,-2.14844 2.01953,-2.39453c0.21094,-0.05859 0.39844,-0.03906 0.97656,0.09766c1.69531,0.41015 2.9336,0.53906 6.89063,0.72265c1.17187,0.05078 2.87109,-0.0664 3.17968,-0.22265c0.6875,-0.35157 1.31641,-1.63672 1.37891,-2.80078c0.05469,-1.16016 -0.39453,-1.81641 -1.55859,-2.27344c-0.22266,-0.08203 -1.21875,-0.22266 -1.29297,-0.17578c-0.03516,0.02343 -0.48438,0.07422 -0.9961,0.11328c-0.51562,0.04297 -1.26562,0.10547 -1.66796,0.14062c-3.76172,0.32422 -4.98438,0.33203 -5.57813,0.05078c-0.16016,-0.07812 -0.29297,-0.42578 -0.42578,-1.10546c-0.04297,-0.21485 -0.10938,-0.55469 -0.15234,-0.76172c-0.09766,-0.48438 -0.09766,-2.39844 0,-2.76563c0.17968,-0.6875 0.24609,-0.87109 0.4414,-1.23437c0.44922,-0.84375 1.44922,-1.58203 3.21485,-2.375c0.25781,-0.11719 0.5039,-0.21485 0.54296,-0.21485c0.03516,0 0.125,-0.02734 0.1875,-0.0625c0.07032,-0.03125 0.21875,-0.10156 0.33204,-0.14843c0.11718,-0.04688 0.26562,-0.11329 0.33593,-0.14454c0.0625,-0.03906 0.17188,-0.0664 0.24219,-0.0664c0.06641,0 0.17969,-0.04297 0.25,-0.09766c0.07031,-0.05469 0.40234,-0.18359 0.73438,-0.28906c0.33593,-0.10547 0.64062,-0.22266 0.67578,-0.25391c0.10547,-0.08984 -0.02344,-0.0625 -0.55469,0.12891m4.30469,1.44141c0,0.0664 0.70312,0.76953 0.73437,0.73828c0.01953,-0.01563 -0.07031,-0.13672 -0.19531,-0.27344c-0.28125,-0.29688 -0.53906,-0.51953 -0.53906,-0.46484m1.1875,1.35156c0,0.07422 0.21875,0.25781 0.25781,0.21484c0.01953,-0.01953 -0.00781,-0.08594 -0.07031,-0.14453c-0.10938,-0.11328 -0.1875,-0.14062 -0.1875,-0.07031m1.05078,1.32812c0,0.07422 0.21875,0.25782 0.25781,0.21875c0.01953,-0.02343 -0.01172,-0.08984 -0.07031,-0.14843c-0.10938,-0.10938 -0.1875,-0.14063 -0.1875,-0.07032m0.76953,0.98828c0.00391,0.10938 0.13281,0.26563 0.17969,0.21485c0.02734,-0.02344 -0.00391,-0.09375 -0.06641,-0.15625c-0.05859,-0.0625 -0.11328,-0.08985 -0.11328,-0.0586m1.13672,1.77344c0.04687,0.07813 0.10937,0.14063 0.14062,0.14063c0.03125,0 0.01563,-0.0625 -0.03125,-0.14063c-0.05078,-0.07812 -0.11328,-0.14062 -0.14453,-0.14062c-0.02734,0 -0.01172,0.0625 0.03516,0.14062m0.82422,1.50781c0,0.02344 0.0625,0.10547 0.14062,0.1875c0.15625,0.16797 0.1875,0.08985 0.04297,-0.10156c-0.08984,-0.11719 -0.18359,-0.16406 -0.18359,-0.08594m2.49218,5.48438c-0.02343,0.03516 -0.01171,0.08984 0.03125,0.11719c0.10938,0.0625 0.17579,-0.02735 0.08985,-0.11719c-0.05469,-0.04688 -0.08985,-0.05078 -0.1211,0m0.23829,0.88281c0,0.0586 0.03125,0.10547 0.07031,0.10547c0.03906,0 0.0664,-0.04687 0.0664,-0.10547c0,-0.05859 -0.02734,-0.10547 -0.0664,-0.10547c-0.03906,0 -0.07031,0.04688 -0.07031,0.10547m0.13671,0.45703c0,0.07422 0.03516,0.13672 0.07422,0.13672c0.03516,0 0.07032,-0.0625 0.07032,-0.13672c0,-0.07812 -0.03516,-0.14062 -0.07032,-0.14062c-0.03906,0 -0.07422,0.0625 -0.07422,0.14062m0.14454,0.45313c0,0.05859 0.02734,0.10547 0.0664,0.10547c0.03906,0 0.07031,-0.04688 0.07031,-0.10547c0,-0.0586 -0.03125,-0.10547 -0.07031,-0.10547c-0.03906,0 -0.0664,0.04687 -0.0664,0.10547m0.13671,0.44922c0,0.08203 0.03125,0.14453 0.07032,0.14453c0.03906,0 0.07031,-0.04297 0.07031,-0.09766c0,-0.05469 -0.03125,-0.12109 -0.07031,-0.14844c-0.03907,-0.01953 -0.07032,0.02344 -0.07032,0.10157m0.14063,0.57031c0,0.07812 0.03516,0.125 0.07031,0.10156c0.03906,-0.02344 0.07031,-0.08984 0.07031,-0.14453c0,-0.05469 -0.03125,-0.10156 -0.07031,-0.10156c-0.03515,0 -0.07031,0.0664 -0.07031,0.14453m0.14062,0.55469c0,0.07812 0.03125,0.14062 0.07032,0.14062c0.03906,0 0.07031,-0.0625 0.07031,-0.14062c0,-0.07813 -0.03125,-0.14063 -0.07031,-0.14063c-0.03907,0 -0.07032,0.0625 -0.07032,0.14063m0.14063,0.63281c0,0.12891 0.01562,0.14844 0.08203,0.08203c0.06641,-0.0625 0.06641,-0.10156 0,-0.16797c-0.06641,-0.0664 -0.08203,-0.04687 -0.08203,0.08594m0.14062,0.62891c0,0.07421 0.03125,0.13671 0.07032,0.13671c0.03515,0 0.07031,-0.0625 0.07031,-0.13671c0,-0.07813 -0.03516,-0.14063 -0.07031,-0.14063c-0.03907,0 -0.07032,0.0625 -0.07032,0.14063m0.14063,0.73046c0,0.09766 0.02734,0.17969 0.06641,0.17969c0.03906,0 0.07031,-0.0625 0.07031,-0.13672c0,-0.07422 -0.03125,-0.15234 -0.07031,-0.17968c-0.03907,-0.02344 -0.06641,0.03515 -0.06641,0.13671m0.13672,0.875c0,0.07422 0.03515,0.15625 0.07422,0.17969c0.03515,0.02344 0.0664,-0.03515 0.0664,-0.13672c0,-0.09765 -0.03125,-0.17968 -0.0664,-0.17968c-0.03907,0 -0.07422,0.0625 -0.07422,0.13671m0.14062,1.01563c0,0.09375 0.03516,0.1875 0.07032,0.21484c0.04296,0.02344 0.07031,-0.04687 0.07031,-0.17187c0,-0.1211 -0.03125,-0.21485 -0.07031,-0.21485c-0.03516,0 -0.07032,0.07813 -0.07032,0.17188m0.16016,1.36719c0,0.21484 0.01562,0.30078 0.03125,0.19531c0.01562,-0.10938 0.01562,-0.28125 0,-0.38672c-0.01563,-0.10547 -0.03125,-0.01953 -0.03125,0.19141m0,5.70703c0,0.23047 0.01562,0.3164 0.03125,0.1914c0.01562,-0.125 0.01562,-0.3164 0,-0.42187c-0.01563,-0.10156 -0.03125,-0.00391 -0.03125,0.23047m-0.16016,1.36328c0,0.11719 0.03516,0.21094 0.07032,0.21094c0.03906,0 0.07031,-0.09375 0.07031,-0.21094c0,-0.11328 -0.03125,-0.21094 -0.07031,-0.21094c-0.03516,0 -0.07032,0.09766 -0.07032,0.21094m-0.14062,1.01562c0,0.09375 0.03515,0.17579 0.07422,0.17579c0.03515,0 0.0664,-0.08204 0.0664,-0.17579c0,-0.09765 -0.03125,-0.17578 -0.0664,-0.17578c-0.03907,0 -0.07422,0.07813 -0.07422,0.17578m-0.13672,0.83594c0,0.09766 0.02734,0.17969 0.06641,0.17969c0.03906,0 0.07031,-0.0625 0.07031,-0.13672c0,-0.07422 -0.03125,-0.15625 -0.07031,-0.17969c-0.03907,-0.02343 -0.06641,0.03516 -0.06641,0.13672m-0.09375,0.64453c-0.07422,0.07422 -0.05469,0.30469 0.02344,0.30469c0.03515,0 0.07031,-0.07812 0.07031,-0.17578c0,-0.18359 -0.01563,-0.20313 -0.09375,-0.12891m-0.1875,0.75782c0,0.0625 0.03125,0.10546 0.07031,0.10546c0.03906,0 0.07031,-0.04296 0.07031,-0.10546c0,-0.0586 -0.03125,-0.10157 -0.07031,-0.10157c-0.03906,0 -0.07031,0.04297 -0.07031,0.10157m-0.14063,0.66796c0,0.07813 0.03125,0.14063 0.07032,0.14063c0.03906,0 0.07031,-0.0625 0.07031,-0.14063c0,-0.07812 -0.03125,-0.14062 -0.07031,-0.14062c-0.03907,0 -0.07032,0.0625 -0.07032,0.14062m-0.14062,0.5586c0,0.07812 0.03516,0.14062 0.07031,0.14062c0.03906,0 0.07031,-0.0625 0.07031,-0.14062c0,-0.07813 -0.03125,-0.14063 -0.07031,-0.14063c-0.03515,0 -0.07031,0.0625 -0.07031,0.14063m-0.14063,0.53125c0,0.09765 0.03125,0.16015 0.07032,0.13672c0.03906,-0.02735 0.07031,-0.10938 0.07031,-0.1836c0,-0.07422 -0.03125,-0.13672 -0.07031,-0.13672c-0.03907,0 -0.07032,0.08204 -0.07032,0.1836m-0.13671,0.48437c0,0.0586 0.02734,0.10547 0.0664,0.10547c0.03906,0 0.07031,-0.04687 0.07031,-0.10547c0,-0.05859 -0.03125,-0.10547 -0.07031,-0.10547c-0.03906,0 -0.0664,0.04688 -0.0664,0.10547m-0.14454,0.45313c0,0.07812 0.03516,0.14062 0.07422,0.14062c0.03516,0 0.07032,-0.0625 0.07032,-0.14062c0,-0.07422 -0.03516,-0.13672 -0.07032,-0.13672c-0.03906,0 -0.07422,0.0625 -0.07422,0.13672m-0.10156,0.37109c-0.02734,0.07031 -0.03515,0.14844 -0.00781,0.16797c0.07031,0.07422 0.12891,-0.02734 0.09375,-0.16406c-0.03125,-0.1211 -0.03125,-0.1211 -0.08594,-0.00391m-0.28515,0.82422c-0.02344,0.04297 -0.01563,0.10938 0.02343,0.14453c0.04297,0.04688 0.08203,0.03516 0.10938,-0.03515c0.04687,-0.12891 -0.0625,-0.21875 -0.13281,-0.10938m-0.51954,1.57031c0,0.0586 0.03125,0.10547 0.07032,0.10547c0.03515,0 0.07031,-0.04687 0.07031,-0.10547c0,-0.05859 -0.03516,-0.10547 -0.07031,-0.10547c-0.03907,0 -0.07032,0.04688 -0.07032,0.10547m-1.73828,3.64453c-0.05078,0.0586 -0.07812,0.16016 -0.0625,0.22657c0.02735,0.10156 0.04297,0.09375 0.08594,-0.03907c0.02734,-0.08593 0.07813,-0.15625 0.11328,-0.15625c0.03125,0 0.0586,-0.03125 0.0586,-0.07031c0,-0.10156 -0.08594,-0.08203 -0.19532,0.03906m-1.05468,1.91407c-0.05079,0.03515 -0.08204,0.10547 -0.06641,0.15625c0.02734,0.0664 0.05859,0.04687 0.12109,-0.0625c0.08985,-0.17188 0.08594,-0.1836 -0.05468,-0.09375m-0.83204,1.23047c-0.1289,0.14843 -0.10546,0.1914 0.05469,0.08984c0.07422,-0.04688 0.14063,-0.10938 0.14063,-0.14063c0,-0.08203 -0.09766,-0.05859 -0.19532,0.05079m-0.75781,0.8164l-0.13281,0.14844l0.22656,-0.11719c0.24219,-0.12109 0.28516,-0.17969 0.13281,-0.17969c-0.05078,0 -0.15234,0.06641 -0.22656,0.14844m-0.3789,0.27344c-0.09766,0.07422 -0.14454,0.13281 -0.10547,0.13281c0.09375,0 0.35156,-0.19531 0.30859,-0.23437c-0.01562,-0.01563 -0.10937,0.02734 -0.20312,0.10156m-0.44141,0.25c-0.10938,0.0625 -0.1875,0.12109 -0.17188,0.13672c0.04297,0.04297 0.40235,-0.13672 0.40235,-0.19531c0,-0.07032 0.0039,-0.07032 -0.23047,0.05859m-0.70703,0.34375c-0.23047,0.09766 -0.46485,0.17578 -0.52735,0.17969c-0.07421,0.0039 -0.08203,0.01562 -0.01953,0.03906c0.08985,0.03906 0.82813,-0.22266 0.95703,-0.33594c0.09766,-0.08594 0.05079,-0.07422 -0.41015,0.11719m-1.01953,0.3125l-0.2461,0.05469l0.25782,0.00781c0.14062,0.00391 0.27734,-0.02344 0.30078,-0.0625c0.05078,-0.07422 0.04687,-0.07422 -0.3125,0"/>
    <path fill="rgb(39.215686%,70.588235%,98.431373%)" fill-rule="evenodd" d="m33.50448,0.0712c0.10157,0.03125 0.30079,0.0586 0.45704,0.0625c0.48046,0.01172 2.46875,0.29297 3.60546,0.50782c0.36719,0.0664 0.9375,0.19531 1.98047,0.44531c0.77344,0.18359 2.26953,0.63281 3.02735,0.91015c0.38281,0.14063 0.87109,0.32032 1.08203,0.39844c0.21094,0.07422 0.52734,0.20313 0.69922,0.28125c0.33203,0.14844 0.58593,0.25781 1.33203,0.58594c2.74219,1.19922 6.48437,3.69531 8.89062,5.93359c0.21485,0.19922 0.49219,0.45313 0.61328,0.56641l0.22657,0.20312l0.47265,-0.15625c2.14844,-0.71875 2.70313,-1.03515 2.23828,-1.27343c-0.08593,-0.04688 -0.2539,-0.19141 -0.375,-0.32032c-0.12109,-0.125 -0.23828,-0.21093 -0.26171,-0.1875c-0.02735,0.02344 -0.04297,0 -0.04297,-0.05859c0,-0.05859 -0.08985,-0.14844 -0.19532,-0.20312c-0.10546,-0.05469 -0.26171,-0.16407 -0.34765,-0.24219c-0.26953,-0.2461 -0.36328,-0.3125 -0.42188,-0.3125c-0.03125,0 -0.10156,-0.0625 -0.15625,-0.14063c-0.05468,-0.07812 -0.16406,-0.14062 -0.24609,-0.14062c-0.11719,0 -0.12109,-0.01563 -0.03516,-0.07031c0.08985,-0.05469 0.08594,-0.06641 -0.01953,-0.06641c-0.0664,-0.00391 -0.21875,-0.09766 -0.33984,-0.21484c-0.125,-0.11329 -0.25781,-0.20704 -0.30078,-0.20704c-0.04297,0 -0.125,-0.0625 -0.17969,-0.14062c-0.05469,-0.07813 -0.14844,-0.14063 -0.21094,-0.14063c-0.05859,0 -0.15625,-0.0625 -0.21094,-0.14062c-0.05468,-0.07422 -0.14843,-0.14063 -0.20703,-0.14063c-0.0625,0 -0.15625,-0.0625 -0.21093,-0.13671c-0.05469,-0.08204 -0.14454,-0.14454 -0.19922,-0.14454c-0.05469,0 -0.15235,-0.05468 -0.21094,-0.125c-0.0625,-0.0664 -0.26563,-0.19531 -0.44531,-0.27734c-0.1836,-0.08594 -0.33594,-0.19141 -0.33594,-0.23437c0,-0.03907 -0.04688,-0.05469 -0.10156,-0.03516c-0.0625,0.02344 -0.10938,0 -0.10938,-0.04688c0,-0.08203 -0.15625,-0.17187 -0.66406,-0.38281c-0.15234,-0.0625 -0.33984,-0.17187 -0.41406,-0.23828c-0.07422,-0.07422 -0.17969,-0.12891 -0.22657,-0.12891c-0.05468,0 -0.09375,-0.03125 -0.09375,-0.07031c0,-0.03906 -0.10156,-0.07031 -0.22656,-0.07031c-0.17187,0 -0.20312,-0.01563 -0.125,-0.06641c0.08594,-0.05468 0.07813,-0.07031 -0.05078,-0.07031c-0.08594,0 -0.16016,-0.02344 -0.16016,-0.05469c0,-0.02734 -0.17187,-0.1289 -0.38281,-0.22656c-0.21094,-0.09766 -0.38281,-0.19531 -0.38281,-0.22656c0,-0.03125 -0.05078,-0.05078 -0.10938,-0.05078c-0.10156,0 -0.17578,-0.03125 -0.5039,-0.20313c-0.08594,-0.04297 -0.20703,-0.07812 -0.26172,-0.07812c-0.05859,0 -0.10938,-0.03125 -0.10938,-0.07032c0,-0.03906 -0.07812,-0.07031 -0.17578,-0.07031c-0.10156,0 -0.16015,-0.03125 -0.13672,-0.07031c0.02344,-0.03906 -0.03515,-0.07031 -0.14062,-0.07031c-0.10156,0 -0.16406,-0.02344 -0.14844,-0.05469c0.01953,-0.03125 -0.04687,-0.0625 -0.14844,-0.07031c-0.10156,-0.00782 -0.20703,-0.05078 -0.23046,-0.08985c-0.02735,-0.04297 -0.06641,-0.07422 -0.09375,-0.07031c-0.17579,0.02344 -0.25391,-0.00391 -0.21094,-0.07422c0.02734,-0.04687 0.01953,-0.0625 -0.01953,-0.04297c-0.05469,0.03907 -0.33594,-0.05859 -0.66797,-0.23437c-0.06641,-0.03516 -0.1875,-0.0625 -0.26172,-0.0625c-0.07813,0 -0.14453,-0.03516 -0.14453,-0.07031c0,-0.03907 -0.07422,-0.07032 -0.16797,-0.07032c-0.09375,0 -0.19531,-0.03515 -0.21875,-0.07422c-0.02734,-0.04687 -0.11719,-0.0664 -0.20313,-0.05078c-0.08203,0.01563 -0.1875,-0.01172 -0.23437,-0.05859c-0.04688,-0.05078 -0.24219,-0.11328 -0.43359,-0.13672c-0.19141,-0.02734 -0.35157,-0.07422 -0.35157,-0.10937c0,-0.03516 -0.10547,-0.0625 -0.23828,-0.0625c-0.13281,0 -0.26172,-0.02735 -0.28515,-0.06641c-0.02735,-0.03906 -0.11719,-0.07031 -0.21094,-0.07031c-0.08985,0 -0.1875,-0.03125 -0.20703,-0.07032c-0.02735,-0.03906 -0.15625,-0.07031 -0.28516,-0.07031c-0.13672,0 -0.24219,-0.03515 -0.24219,-0.07031c0,-0.03906 -0.125,-0.07031 -0.28125,-0.07031c-0.15234,0 -0.27734,-0.03125 -0.27734,-0.07032c0,-0.03906 -0.125,-0.07031 -0.27734,-0.07031c-0.15235,0 -0.29297,-0.02734 -0.3125,-0.05859c-0.01954,-0.03125 -0.16797,-0.0625 -0.33204,-0.06641c-0.16406,-0.01172 -0.3164,-0.03906 -0.33593,-0.07031c-0.01953,-0.03125 -0.17969,-0.06641 -0.35547,-0.07813c-0.17188,-0.00781 -0.32422,-0.04687 -0.33594,-0.08203c-0.01172,-0.03515 -0.21094,-0.0625 -0.43359,-0.0625c-0.22657,0 -0.42969,-0.03515 -0.45313,-0.07422c-0.02344,-0.03515 -0.28125,-0.0664 -0.57031,-0.0664c-0.28516,0 -0.50781,-0.02735 -0.48438,-0.0586c0.01563,-0.03515 -0.36718,-0.08203 -0.85546,-0.10546c-1.24219,-0.06251 -5.19922,-0.04297 -4.98829,0.02343m-31.84375,46.17188c0,0.07422 0.03125,0.17969 0.07032,0.23828c0.05078,0.07422 0.05859,0.04687 0.02343,-0.10547c-0.05859,-0.25781 -0.09765,-0.31641 -0.09375,-0.13281m61.34375,9.51172c-0.11328,0.09765 -0.23828,0.17578 -0.28515,0.17578c-0.04297,0 -0.09375,0.02734 -0.10156,0.05859c-0.03125,0.07031 -0.85157,0.45703 -1.21485,0.57031c-0.15234,0.05079 -0.34375,0.11719 -0.42187,0.14844c-0.39063,0.15625 -2.02735,0.25391 -2.35157,0.14063c-0.27343,-0.09375 -0.32812,-0.0625 -0.65625,0.36328c-2.78515,3.61328 -7.96093,7.61719 -12.35546,9.55469c-0.35547,0.15625 -0.87891,0.38671 -1.29297,0.57812c-0.63282,0.28125 -3.00782,1.10156 -3.85157,1.32813c-1.80859,0.48437 -3.07031,0.75 -4.62109,0.96875c-1.06641,0.15234 -1.62109,0.21875 -1.89062,0.22656c-0.15625,0 -0.34375,0.03125 -0.41797,0.0664c-0.08985,0.04297 0.91015,0.05469 2.66015,0.03125c1.53907,-0.01953 2.88672,-0.03515 2.98828,-0.03125c0.10938,0 0.19532,-0.03125 0.19532,-0.07421c0,-0.03907 0.20312,-0.07032 0.48437,-0.07032c0.26953,0 0.50781,-0.03125 0.53125,-0.0664c0.02344,-0.03907 0.17969,-0.07422 0.34766,-0.07422c0.17187,0 0.32422,-0.02344 0.34375,-0.05469c0.01953,-0.03125 0.18359,-0.0625 0.36719,-0.07422c0.18359,-0.00781 0.36328,-0.03515 0.40234,-0.0625c0.08203,-0.04687 0.54687,-0.14453 0.98828,-0.20312c0.15234,-0.02344 0.30859,-0.06641 0.34766,-0.10157c0.03515,-0.03125 0.18359,-0.0625 0.32422,-0.0625c0.14453,0 0.26953,-0.03125 0.28515,-0.07031c0.01563,-0.03515 0.12891,-0.07031 0.25781,-0.08203c0.125,-0.00781 0.2461,-0.04297 0.26563,-0.07422c0.01953,-0.02734 0.12891,-0.05469 0.24219,-0.05469c0.125,0 0.1914,-0.02734 0.16797,-0.07031c-0.02735,-0.03906 0.05468,-0.0664 0.1914,-0.0664c0.12891,0 0.26563,-0.03125 0.30078,-0.06641c0.03516,-0.03516 0.19141,-0.08203 0.34766,-0.10547c0.30469,-0.04687 0.70312,-0.16406 0.89062,-0.25781c0.06641,-0.03516 0.1875,-0.0625 0.26563,-0.0625c0.08203,0 0.12891,-0.03125 0.10156,-0.07031c-0.02344,-0.03516 0.01563,-0.07422 0.08594,-0.07813c0.19531,-0.01172 0.25,-0.02734 0.52344,-0.15234c0.14843,-0.06641 0.32812,-0.11719 0.40625,-0.11719c0.07812,0 0.14062,-0.03516 0.14062,-0.07031c0,-0.03907 0.0625,-0.07032 0.14063,-0.07032c0.07812,0 0.14062,-0.03125 0.14062,-0.07031c0,-0.03906 0.09375,-0.07031 0.21094,-0.07031c0.11328,0 0.21094,-0.03125 0.21094,-0.07031c0,-0.03907 0.0625,-0.07032 0.13672,-0.07032c0.07812,0 0.14062,-0.03125 0.14062,-0.07031c0,-0.03515 0.0625,-0.07031 0.14063,-0.07031c0.07421,0 0.13671,-0.02344 0.14062,-0.05078c0,-0.07031 0.34375,-0.22656 0.49609,-0.22656c0.07032,0 0.14454,-0.03516 0.16797,-0.07032c0.02344,-0.03906 0.11328,-0.07422 0.19922,-0.07422c0.14453,-0.00781 0.14453,-0.00781 0.00781,-0.0664c-0.11328,-0.05078 -0.10156,-0.0586 0.09375,-0.06641c0.15625,-0.0039 0.21875,-0.03125 0.17969,-0.08594c-0.02734,-0.04687 -0.01562,-0.0625 0.01953,-0.03906c0.0586,0.03906 0.5,-0.13281 0.58203,-0.22656c0.07813,-0.08203 0.35547,-0.21484 0.45704,-0.21484c0.05859,0 0.10546,-0.02735 0.10546,-0.06641c0,-0.03906 0.03907,-0.07031 0.09375,-0.07031c0.04688,0 0.15625,-0.06641 0.23829,-0.14063c0.08593,-0.07812 0.19921,-0.14062 0.2539,-0.14062c0.05469,0 0.13672,-0.04688 0.1836,-0.10547c0.04687,-0.0586 0.1289,-0.10547 0.17578,-0.10547c0.14062,0 0.45703,-0.18359 0.40625,-0.23438c-0.02344,-0.02343 0.01953,-0.04296 0.09375,-0.04296c0.07812,0 0.24609,-0.09766 0.375,-0.21094c0.1289,-0.11328 0.28515,-0.21094 0.34375,-0.21094c0.0625,0 0.15234,-0.0625 0.19922,-0.14062c0.04687,-0.07422 0.1289,-0.13672 0.17968,-0.13672c0.05078,0 0.16016,-0.0625 0.23828,-0.14063c0.08594,-0.07812 0.19141,-0.14844 0.24219,-0.16015c0.05078,-0.00782 0.13281,-0.07422 0.1836,-0.13672c0.05078,-0.07032 0.13671,-0.125 0.1914,-0.125c0.05469,0 0.21485,-0.10938 0.35938,-0.24219c0.14062,-0.13281 0.27343,-0.23047 0.30078,-0.21484c0.02734,0.01562 0.08984,-0.03125 0.14453,-0.10547c0.05469,-0.07813 0.15625,-0.13672 0.22656,-0.13672c0.07031,0 0.10938,-0.03516 0.08594,-0.07031c-0.02344,-0.03907 -0.00781,-0.07032 0.03516,-0.07032c0.03906,0 0.14843,-0.07031 0.23828,-0.15625c0.23437,-0.23047 0.46093,-0.41015 0.46093,-0.36718c0,0.01953 0.09766,-0.0625 0.22266,-0.17579c0.11719,-0.11718 0.24609,-0.21093 0.28125,-0.21093c0.03516,0 0.18359,-0.1211 0.32422,-0.26563c0.14062,-0.14453 0.36719,-0.33984 0.50391,-0.43359c0.29687,-0.20703 0.44921,-0.35156 0.37109,-0.35156c-0.03125,0 0.03125,-0.0586 0.13281,-0.12891c0.10938,-0.07031 0.17188,-0.14453 0.14844,-0.17188c-0.02734,-0.02734 -0.01172,-0.04687 0.03516,-0.04687c0.10937,0 0.71484,-0.60547 0.66015,-0.66016c-0.02344,-0.02343 0.00781,-0.04297 0.06641,-0.04297c0.0664,0 0.13672,-0.0625 0.16015,-0.13671c0.02344,-0.08204 0.07032,-0.14454 0.09766,-0.14454c0.09766,0 0.35547,-0.2539 0.35547,-0.34765c0,-0.05078 0.01953,-0.07422 0.04297,-0.05078c0.04297,0.04297 0.64844,-0.51953 0.625,-0.57813c-0.00781,-0.01953 0.04297,-0.08984 0.11328,-0.16015c0.07422,-0.06641 0.12891,-0.10157 0.12891,-0.07422c0,0.02734 0.08203,-0.04688 0.17578,-0.15625c0.09765,-0.11328 0.17578,-0.23047 0.17578,-0.26563c0,-0.03125 0.09375,-0.14453 0.20703,-0.2539c0.11328,-0.10547 0.1875,-0.21094 0.16016,-0.23829c-0.01954,-0.02343 0.01171,-0.04296 0.07812,-0.04296c0.06641,0 0.10547,-0.03125 0.07813,-0.07032c-0.02344,-0.03906 0.0039,-0.0664 0.0625,-0.0664c0.05468,0 0.125,-0.06641 0.14843,-0.14453c0.02735,-0.07813 0.1211,-0.21875 0.21094,-0.3086c0.08984,-0.08984 0.14844,-0.18359 0.12891,-0.20312c-0.02344,-0.01953 0.02734,-0.07813 0.10937,-0.12891c0.07813,-0.05078 0.14453,-0.125 0.14453,-0.16406c0,-0.03906 0.0625,-0.11719 0.14063,-0.17188c0.07812,-0.05468 0.14062,-0.14453 0.14062,-0.19531c0,-0.05078 0.03125,-0.07422 0.07032,-0.05078c0.03515,0.02344 0.07031,-0.01953 0.07031,-0.10156c0,-0.07813 0.03125,-0.14453 0.0664,-0.14453c0.03907,0 0.07422,-0.04688 0.07422,-0.10938c0,-0.05859 0.03125,-0.08984 0.07032,-0.06641c0.03906,0.02735 0.0664,0.01172 0.0664,-0.02734c0,-0.13672 -0.2539,-0.08203 -0.46094,0.09766"/>
   </g>
  </g>
 </g>
</svg>